<svg width="80" height="80" viewBox="0 0 80 80" fill="none" xmlns="http://www.w3.org/2000/svg">
<path d="M7.27299 0H0V7.27299H7.27299V0Z" fill="#D3D3D3"/>
<path d="M21.8189 0H14.546V7.27299H21.8189V0Z" fill="#D3D3D3"/>
<path d="M36.3636 0H29.0906V7.27299H36.3636V0Z" fill="#D3D3D3"/>
<path d="M50.9095 0H43.6365V7.27299H50.9095V0Z" fill="#D3D3D3"/>
<path d="M65.454 0H58.1811V7.27299H65.454V0Z" fill="#D3D3D3"/>
<path d="M80 0H72.727V7.27299H80V0Z" fill="#D3D3D3"/>
<path d="M14.546 7.27301H7.27301V14.546H14.546V7.27301Z" fill="#D3D3D3"/>
<path d="M29.0906 7.27301H21.8176V14.546H29.0906V7.27301Z" fill="#D3D3D3"/>
<path d="M43.6365 7.27301H36.3635V14.546H43.6365V7.27301Z" fill="#D3D3D3"/>
<path d="M58.1824 7.27301H50.9095V14.546H58.1824V7.27301Z" fill="#D3D3D3"/>
<path d="M72.7271 7.27301H65.4541V14.546H72.7271V7.27301Z" fill="#D3D3D3"/>
<path d="M7.27299 14.546H0V21.8189H7.27299V14.546Z" fill="#D3D3D3"/>
<path d="M21.8189 14.546H14.546V21.8189H21.8189V14.546Z" fill="#D3D3D3"/>
<path d="M36.3636 14.546H29.0906V21.8189H36.3636V14.546Z" fill="#D3D3D3"/>
<path d="M50.9095 14.546H43.6365V21.8189H50.9095V14.546Z" fill="#D3D3D3"/>
<path d="M65.454 14.546H58.1811V21.8189H65.454V14.546Z" fill="#D3D3D3"/>
<path d="M80 14.546H72.727V21.8189H80V14.546Z" fill="#D3D3D3"/>
<path d="M14.546 21.8176H7.27301V29.0906H14.546V21.8176Z" fill="#D3D3D3"/>
<path d="M29.0906 21.8176H21.8176V29.0906H29.0906V21.8176Z" fill="#D3D3D3"/>
<path d="M43.6365 21.8176H36.3635V29.0906H43.6365V21.8176Z" fill="#D3D3D3"/>
<path d="M58.1824 21.8176H50.9095V29.0906H58.1824V21.8176Z" fill="#D3D3D3"/>
<path d="M72.7271 21.8176H65.4541V29.0906H72.7271V21.8176Z" fill="#D3D3D3"/>
<path d="M7.27299 29.0906H0V36.3636H7.27299V29.0906Z" fill="#D3D3D3"/>
<path d="M21.8189 29.0906H14.546V36.3636H21.8189V29.0906Z" fill="#D3D3D3"/>
<path d="M36.3636 29.0906H29.0906V36.3636H36.3636V29.0906Z" fill="#D3D3D3"/>
<path d="M50.9095 29.0906H43.6365V36.3636H50.9095V29.0906Z" fill="#D3D3D3"/>
<path d="M65.454 29.0906H58.1811V36.3636H65.454V29.0906Z" fill="#D3D3D3"/>
<path d="M80 29.0906H72.727V36.3636H80V29.0906Z" fill="#D3D3D3"/>
<path d="M14.546 36.3635H7.27301V43.6365H14.546V36.3635Z" fill="#D3D3D3"/>
<path d="M29.0906 36.3635H21.8176V43.6365H29.0906V36.3635Z" fill="#D3D3D3"/>
<path d="M43.6365 36.3635H36.3635V43.6365H43.6365V36.3635Z" fill="#D3D3D3"/>
<path d="M58.1824 36.3635H50.9095V43.6365H58.1824V36.3635Z" fill="#D3D3D3"/>
<path d="M72.7271 36.3635H65.4541V43.6365H72.7271V36.3635Z" fill="#D3D3D3"/>
<path d="M7.27299 43.6365H0V50.9095H7.27299V43.6365Z" fill="#D3D3D3"/>
<path d="M21.8189 43.6365H14.546V50.9095H21.8189V43.6365Z" fill="#D3D3D3"/>
<path d="M36.3636 43.6365H29.0906V50.9095H36.3636V43.6365Z" fill="#D3D3D3"/>
<path d="M50.9095 43.6365H43.6365V50.9095H50.9095V43.6365Z" fill="#D3D3D3"/>
<path d="M65.454 43.6365H58.1811V50.9095H65.454V43.6365Z" fill="#D3D3D3"/>
<path d="M80 43.6365H72.727V50.9095H80V43.6365Z" fill="#D3D3D3"/>
<path d="M14.546 50.9095H7.27301V58.1825H14.546V50.9095Z" fill="#D3D3D3"/>
<path d="M29.0906 50.9095H21.8176V58.1825H29.0906V50.9095Z" fill="#D3D3D3"/>
<path d="M43.6365 50.9095H36.3635V58.1825H43.6365V50.9095Z" fill="#D3D3D3"/>
<path d="M58.1824 50.9095H50.9095V58.1825H58.1824V50.9095Z" fill="#D3D3D3"/>
<path d="M72.7271 50.9095H65.4541V58.1825H72.7271V50.9095Z" fill="#D3D3D3"/>
<path d="M7.27299 58.181H0V65.454H7.27299V58.181Z" fill="#D3D3D3"/>
<path d="M21.8189 58.181H14.546V65.454H21.8189V58.181Z" fill="#D3D3D3"/>
<path d="M36.3636 58.181H29.0906V65.454H36.3636V58.181Z" fill="#D3D3D3"/>
<path d="M50.9095 58.181H43.6365V65.454H50.9095V58.181Z" fill="#D3D3D3"/>
<path d="M65.454 58.181H58.1811V65.454H65.454V58.181Z" fill="#D3D3D3"/>
<path d="M80 58.181H72.727V65.454H80V58.181Z" fill="#D3D3D3"/>
<path d="M14.546 65.4541H7.27301V72.7271H14.546V65.4541Z" fill="#D3D3D3"/>
<path d="M29.0906 65.4541H21.8176V72.7271H29.0906V65.4541Z" fill="#D3D3D3"/>
<path d="M43.6365 65.4541H36.3635V72.7271H43.6365V65.4541Z" fill="#D3D3D3"/>
<path d="M58.1824 65.4541H50.9095V72.7271H58.1824V65.4541Z" fill="#D3D3D3"/>
<path d="M72.7271 65.4541H65.4541V72.7271H72.7271V65.4541Z" fill="#D3D3D3"/>
<path d="M7.27299 72.727H0V80H7.27299V72.727Z" fill="#D3D3D3"/>
<path d="M21.8189 72.727H14.546V80H21.8189V72.727Z" fill="#D3D3D3"/>
<path d="M36.3636 72.727H29.0906V80H36.3636V72.727Z" fill="#D3D3D3"/>
<path d="M50.9095 72.727H43.6365V80H50.9095V72.727Z" fill="#D3D3D3"/>
<path d="M65.454 72.727H58.1811V80H65.454V72.727Z" fill="#D3D3D3"/>
<path d="M80 72.727H72.727V80H80V72.727Z" fill="#D3D3D3"/>
</svg>
