<svg width="56" height="57" viewBox="0 0 56 57" fill="none" xmlns="http://www.w3.org/2000/svg">
<path d="M55.0847 19.3529H41.4574V11.406C41.4566 10.842 41.2302 10.3013 40.828 9.90242C40.4258 9.50358 39.8806 9.27912 39.3118 9.27824H28.8578L22.5547 3.48241C22.8041 3.12188 22.9372 2.69472 22.9363 2.25752C22.9354 1.67673 22.7024 1.11999 22.2883 0.709315C21.8741 0.298639 21.3127 0.0675284 20.727 0.0666504C20.1414 0.0675284 19.5799 0.298639 19.1658 0.709315C18.7517 1.11999 18.5186 1.67673 18.5178 2.25752C18.5197 2.7292 18.6746 3.18776 18.9596 3.5654L12.7469 9.27824H2.14567C1.57687 9.27912 1.03163 9.50358 0.629434 9.90242C0.227233 10.3013 0.000885289 10.842 0 11.406V37.8225C0 38.3869 0.22606 38.9281 0.628453 39.3271C1.03085 39.7262 1.5766 39.9503 2.14567 39.9503H24.4795V49.6997H31.8806L28.2486 54.6789C28.1712 54.7848 28.1157 54.9048 28.0851 55.0321C28.0544 55.1593 28.0494 55.2913 28.0702 55.4204C28.0911 55.5496 28.1373 55.6734 28.2064 55.7848C28.2755 55.8962 28.3661 55.9931 28.4729 56.0698C28.6434 56.1922 28.8483 56.2583 29.0587 56.259C29.218 56.2595 29.3752 56.2225 29.5172 56.1509C29.6592 56.0794 29.782 55.9753 29.8755 55.8474L34.361 49.7096H45.2366L49.7221 55.8474C49.8153 55.9749 49.9376 56.0786 50.079 56.1502C50.2203 56.2217 50.3768 56.259 50.5356 56.259C50.7471 56.259 50.9533 56.1928 51.1247 56.0698C51.2315 55.9931 51.3221 55.8962 51.3912 55.7848C51.4603 55.6734 51.5065 55.5496 51.5274 55.4204C51.5482 55.2913 51.5432 55.1593 51.5126 55.0321C51.482 54.9048 51.4264 54.7848 51.349 54.6789L47.7171 49.6997H55.0813L55.0847 19.3529ZM20.7036 0.740507C21.112 0.740507 21.5036 0.901387 21.7924 1.18775C22.0812 1.47411 22.2434 1.8625 22.2434 2.26747C22.2425 2.67188 22.0799 3.05941 21.7912 3.34505C21.5026 3.6307 21.1114 3.79112 20.7036 3.79112C20.2958 3.79112 19.9047 3.6307 19.616 3.34505C19.3273 3.05941 19.1647 2.67188 19.1638 2.26747C19.1647 1.86277 19.3272 1.47488 19.6158 1.18871C19.9044 0.902539 20.2955 0.741384 20.7036 0.740507ZM19.4149 4.04008C19.7889 4.3111 20.2404 4.45649 20.7036 4.45502C21.202 4.45483 21.6856 4.28754 22.076 3.98033L27.8503 9.29152H13.7076L19.4149 4.04008ZM2.13564 37.962C2.09924 37.962 2.06433 37.9476 2.03859 37.9221C2.01285 37.8966 1.99838 37.862 1.99838 37.8259V11.406C1.99838 11.3699 2.01285 11.3353 2.03859 11.3098C2.06433 11.2843 2.09924 11.2699 2.13564 11.2699H39.2917C39.3281 11.2699 39.363 11.2843 39.3887 11.3098C39.4144 11.3353 39.4289 11.3699 39.4289 11.406V19.3429H36.6004V13.9587H4.81688V35.3064H24.4594V37.962H2.13564ZM24.4694 33.8292H6.30982V15.406H35.161V19.3463H24.4862L24.4694 33.8292ZM53.0762 47.7113H26.4779V21.3446H53.0762V47.7113Z" fill="white"/>
<path d="M34.3543 36.8034C35.4196 36.8034 36.4413 36.3838 37.1946 35.6367C37.9479 34.8897 38.3711 33.8765 38.3711 32.8201C38.3711 31.7636 37.9479 30.7504 37.1946 30.0034C36.4413 29.2563 35.4196 28.8367 34.3543 28.8367C33.2889 28.8367 32.2672 29.2563 31.5139 30.0034C30.7606 30.7504 30.3374 31.7636 30.3374 32.8201C30.3374 33.8765 30.7606 34.8897 31.5139 35.6367C32.2672 36.3838 33.2889 36.8034 34.3543 36.8034Z" fill="white"/>
<path d="M48.4668 26.5064H41.772V33.1454H48.4668V26.5064Z" fill="#EC5242"/>
<path d="M46.0032 42.9976L41.4742 36.0267L35.884 42.9976H46.0032Z" fill="#EC5242"/>
</svg>
