<svg width="61" height="40" viewBox="0 0 61 40" fill="none" xmlns="http://www.w3.org/2000/svg">
<path d="M37.0724 17.1743H59.2288V35.4547H33.7752L31.0671 38.1402V25.3933H33.7752L37.1393 28.4937L37.0724 17.1743Z" fill="#EC5242"/>
<path d="M57.3609 16.4141H38.4113V4.76933C38.4104 3.75509 38.004 2.78259 37.2811 2.0651C36.5582 1.34761 35.5779 0.943713 34.5551 0.941956H3.8562C2.83344 0.943713 1.85312 1.34761 1.13024 2.0651C0.407346 2.78259 0.000884742 3.75509 0 4.76933V22.6381C0.00177002 23.6518 0.408616 24.6234 1.13141 25.3402C1.8542 26.057 2.83402 26.4604 3.8562 26.4622H29.9357V38.4124C29.9361 38.6095 29.9954 38.8022 30.1062 38.9659C30.2171 39.1296 30.3744 39.2569 30.5583 39.3319C30.6793 39.3818 30.8089 39.4077 30.94 39.4082C31.0734 39.4081 31.2054 39.3816 31.3284 39.3303C31.4514 39.279 31.5629 39.2039 31.6563 39.1095L34.1568 36.5833H57.3609C58.2174 36.5877 59.0406 36.255 59.65 35.6582C60.2593 35.0614 60.605 34.2492 60.6112 33.3999V19.5909C60.6033 18.7427 60.2568 17.9322 59.6476 17.3368C59.0384 16.7415 58.2162 16.4097 57.3609 16.4141ZM2.00844 22.6381V4.76933C2.00843 4.28305 2.20301 3.81664 2.54943 3.47248C2.89586 3.12832 3.36584 2.93453 3.8562 2.93365H34.5551C35.0455 2.93453 35.5155 3.12832 35.8619 3.47248C36.2083 3.81664 36.4029 4.28305 36.4029 4.76933V26.6448L34.5786 24.7693C34.4849 24.6728 34.3727 24.596 34.2484 24.5435C34.1242 24.491 33.9906 24.4639 33.8555 24.4639H3.8562C3.3673 24.4639 2.89833 24.2717 2.552 23.9295C2.20567 23.5873 2.01021 23.123 2.00844 22.6381ZM58.6028 33.4132C58.5966 33.7343 58.4625 34.0399 58.2298 34.2632C57.9971 34.4865 57.6847 34.6093 57.3609 34.6049H33.735C33.6016 34.605 33.4695 34.6315 33.3465 34.6828C33.2235 34.7341 33.1121 34.8092 33.0187 34.9037L31.9442 35.9891V26.4556H33.4304L36.6874 29.8049C36.7809 29.9004 36.8928 29.9764 37.0164 30.0282C37.14 30.0801 37.2729 30.1069 37.4071 30.107C37.5364 30.1067 37.6646 30.0831 37.7854 30.0373C37.971 29.9625 38.1297 29.8343 38.2413 29.6692C38.3528 29.5042 38.4121 29.3098 38.4113 29.1112V27.0929H54.914V26.0971H38.4113V23.3186H48.4535V22.3228H38.4113V18.4058H57.3609C57.6847 18.4013 57.9971 18.5242 58.2298 18.7475C58.4625 18.9708 58.5966 19.2764 58.6028 19.5975V33.4132Z" fill="white"/>
<path d="M20.9179 7.34854H6.96594V8.34373H20.9179V7.34854Z" fill="white"/>
<path d="M28.2621 11.3784H6.96594V12.3736H28.2621V11.3784Z" fill="white"/>
<path d="M23.5824 15.4083H6.96594V16.4035H23.5824V15.4083Z" fill="white"/>
</svg>
