<svg width="25" height="25" viewBox="0 0 25 25" fill="none" xmlns="http://www.w3.org/2000/svg">
<g clip-path="url(#clip0_51_2063)">
<path d="M0.192224 23.091L1.25486 24.1541C1.5119 24.4113 1.92865 24.4113 2.18569 24.1541L9.28074 17.0557C9.53778 16.7985 9.53778 16.3815 9.28074 16.1244L8.2181 15.0612C7.96106 14.8041 7.54431 14.8041 7.28727 15.0612L0.192222 22.1597C-0.0648172 22.4168 -0.0648158 22.8338 0.192224 23.091Z" fill="#272A31"/>
<path d="M15.0541 8.22339L16.1168 9.28654C16.3738 9.5437 16.7906 9.54371 17.0476 9.28654L24.1427 2.18809C24.3997 1.93093 24.3997 1.51398 24.1427 1.25682L23.08 0.19367C22.823 -0.0634931 22.4062 -0.0634938 22.1492 0.193669L15.0541 7.29212C14.7971 7.54929 14.7971 7.96623 15.0541 8.22339Z" fill="#272A31"/>
<path d="M23.0794 24.1541L24.142 23.091C24.3991 22.8338 24.3991 22.4169 24.142 22.1597L17.047 15.0613C16.79 14.8041 16.3732 14.8041 16.1162 15.0613L15.0535 16.1244C14.7965 16.3816 14.7965 16.7985 15.0535 17.0557L22.1486 24.1541C22.4056 24.4113 22.8224 24.4113 23.0794 24.1541Z" fill="#272A31"/>
<path d="M8.21876 9.28487L9.2814 8.22172C9.53844 7.96456 9.53844 7.54762 9.2814 7.29045L2.18635 0.191998C1.92931 -0.0651644 1.51257 -0.0651639 1.25553 0.191999L0.192886 1.25515C-0.0641538 1.51231 -0.0641545 1.92926 0.192885 2.18642L7.28794 9.28487C7.54498 9.54204 7.96172 9.54204 8.21876 9.28487Z" fill="#272A31"/>
</g>
<defs>
<clipPath id="clip0_51_2063">
<rect width="24.347" height="24.3353" fill="white" transform="translate(24.3353 -1.52588e-05) rotate(90)"/>
</clipPath>
</defs>
</svg>
