<svg width="51" height="51" viewBox="0 0 51 51" fill="none" xmlns="http://www.w3.org/2000/svg">
<path d="M50.2549 25.1545C50.2538 24.1769 49.903 23.2313 49.2649 22.4861C48.6269 21.7409 47.7429 21.2443 46.7702 21.0848C46.2077 18.1405 45.0372 15.3434 43.3325 12.8691C43.9118 12.0744 44.1868 11.1011 44.1083 10.1236C44.0297 9.14614 43.6026 8.22836 42.9036 7.53478C42.2046 6.8412 41.2793 6.41716 40.2937 6.33867C39.308 6.26017 38.3264 6.53235 37.5247 7.10642C35.0294 5.41637 32.2088 4.25574 29.2399 3.69731C29.0798 2.73213 28.579 1.85478 27.827 1.22176C27.0751 0.588747 26.1207 0.241241 25.1344 0.241241C24.148 0.241241 23.1937 0.588747 22.4417 1.22176C21.6897 1.85478 21.189 2.73213 21.0288 3.69731C18.0597 4.25519 15.2391 5.41586 12.744 7.10642C11.9425 6.5259 10.9583 6.24833 9.96877 6.32375C8.9792 6.39916 8.04932 6.82259 7.34672 7.51773C6.64412 8.21288 6.21499 9.13402 6.13667 10.1152C6.05834 11.0963 6.33598 12.0729 6.91953 12.8691C5.21577 15.3435 4.04648 18.1407 3.48511 21.0848C2.51182 21.2436 1.6271 21.7402 0.988762 22.4859C0.350426 23.2316 0 24.178 0 25.1562C0 26.1343 0.350426 27.0807 0.988762 27.8264C1.6271 28.5721 2.51182 29.0687 3.48511 29.2275C4.04655 32.1706 5.21585 34.9666 6.91953 37.4399C6.33598 38.236 6.05834 39.2127 6.13667 40.1938C6.21499 41.175 6.64412 42.0961 7.34672 42.7913C8.04932 43.4864 8.9792 43.9098 9.96877 43.9852C10.9583 44.0606 11.9425 43.7831 12.744 43.2026C15.2388 44.8937 18.0595 46.0545 21.0288 46.6117C21.189 47.5769 21.6897 48.4542 22.4417 49.0872C23.1937 49.7202 24.148 50.0677 25.1344 50.0677C26.1207 50.0677 27.0751 49.7202 27.827 49.0872C28.579 48.4542 29.0798 47.5769 29.2399 46.6117C32.2088 46.0533 35.0294 44.8926 37.5247 43.2026C38.3264 43.7766 39.308 44.0488 40.2937 43.9703C41.2793 43.8918 42.2046 43.4678 42.9036 42.7742C43.6026 42.0806 44.0297 41.1628 44.1083 40.1854C44.1868 39.2079 43.9118 38.2346 43.3325 37.4399C45.0372 34.9669 46.2077 32.1708 46.7702 29.2275C47.7428 29.0666 48.6265 28.5692 49.2644 27.8236C49.9024 27.078 50.2533 26.1323 50.2549 25.1545ZM39.9516 35.7171C39.019 35.7136 38.1128 36.0237 37.3808 36.5968L30.2676 29.5429C31.2201 28.4506 31.7919 27.0827 31.8978 25.6425H41.9567C42.0573 26.473 42.4098 27.2537 42.9674 27.8814C43.525 28.5091 44.2616 28.9541 45.0798 29.1578C44.5597 31.7107 43.542 34.1384 42.0839 36.3047C41.4398 35.9211 40.7029 35.718 39.9516 35.7171ZM12.8812 36.5968C12.2202 36.0801 11.4162 35.7751 10.5761 35.7223C9.73606 35.6695 8.8997 35.8715 8.17815 36.3013C6.72247 34.1342 5.70605 31.7067 5.18559 29.1545C6.00349 28.9514 6.73998 28.507 7.29765 27.8799C7.85531 27.2528 8.20787 26.4726 8.3087 25.6425H18.3509C18.4584 27.0803 19.03 28.4456 19.9811 29.5362L12.8812 36.5968ZM8.17815 14.001C8.8997 14.4309 9.73606 14.6328 10.5761 14.58C11.4162 14.5273 12.2202 14.2223 12.8812 13.7056L19.9978 20.7628C19.0477 21.8501 18.4761 23.2119 18.3676 24.6466H8.32544C8.22334 23.8177 7.8702 23.0389 7.31263 22.4131C6.75506 21.7873 6.01926 21.3438 5.20232 21.1412C5.7189 18.5936 6.72956 16.1698 8.17815 14.0043V14.001ZM37.3841 13.7056C38.0452 14.2223 38.8492 14.5273 39.6893 14.58C40.5293 14.6328 41.3657 14.4309 42.0872 14.001C43.5446 16.1685 44.5611 18.5973 45.0798 21.1512C44.2645 21.3536 43.53 21.7957 42.9726 22.4195C42.4153 23.0433 42.0611 23.8196 41.9567 24.6466H31.8978C31.7919 23.21 31.2213 21.8456 30.2709 20.7562L37.3841 13.7056ZM29.173 5.36701C31.7456 5.88696 34.192 6.89705 36.3766 8.34127C35.9413 9.05604 35.7362 9.88549 35.7889 10.7189C35.8415 11.5522 36.1493 12.3498 36.6712 13.0052L29.5579 20.0591C28.4582 19.1164 27.0812 18.5506 25.6315 18.4458V8.47073C26.4683 8.36873 27.2545 8.018 27.8866 7.46463C28.5187 6.91126 28.9671 6.18117 29.173 5.37033V5.36701ZM24.6306 8.46742V18.4425C23.182 18.548 21.8062 19.1137 20.7074 20.0558L13.5942 13.0018C14.1139 12.3455 14.4203 11.5482 14.4729 10.7153C14.5255 9.88249 14.3218 9.05345 13.8888 8.33795C16.0746 6.8945 18.5222 5.88553 21.0957 5.36701C21.2993 6.17816 21.7461 6.90902 22.3772 7.46314C23.0083 8.01726 23.794 8.36858 24.6306 8.47073V8.46742ZM21.0957 44.9387C18.5222 44.4201 16.0746 43.4112 13.8888 41.9677C14.3218 41.2522 14.5255 40.4232 14.4729 39.5903C14.4203 38.7575 14.1139 37.9602 13.5942 37.3038L20.7074 30.2499C21.8062 31.192 23.182 31.7577 24.6306 31.8632V41.8383C23.7944 41.9402 23.009 42.291 22.378 42.8445C21.747 43.398 21.2999 44.1281 21.0957 44.9387ZM25.6348 41.8383V31.8632C27.0846 31.7584 28.4616 31.1926 29.5613 30.2499L36.6745 37.3038C36.1527 37.9591 35.8449 38.7568 35.7922 39.5901C35.7396 40.4235 35.9446 41.2529 36.3799 41.9677C34.1941 43.4112 31.7465 44.4201 29.173 44.9387C28.9674 44.1283 28.5194 43.3985 27.888 42.8452C27.2565 42.2919 26.4711 41.9409 25.6348 41.8383Z" fill="white"/>
<path d="M39.9517 8.32135C40.3786 8.32053 40.7962 8.44547 41.1515 8.68031C41.5068 8.91515 41.7837 9.24932 41.9472 9.64046C42.1107 10.0316 42.1534 10.4621 42.0699 10.8773C41.9864 11.2925 41.7804 11.6738 41.4781 11.9728C41.2273 12.2226 40.9183 12.4072 40.5783 12.5101C40.2384 12.6131 39.8781 12.6312 39.5294 12.5629C39.1807 12.4946 38.8544 12.342 38.5794 12.1186C38.3045 11.8952 38.0894 11.6079 37.9533 11.2823C37.8172 10.9567 37.7642 10.6028 37.7991 10.2521C37.8341 9.90128 37.9558 9.56448 38.1535 9.27155C38.3512 8.97863 38.6187 8.73863 38.9324 8.57287C39.2461 8.40711 39.5962 8.32072 39.9517 8.32135Z" fill="#272A31"/>
<path d="M8.79079 8.94544C9.09271 8.64593 9.47741 8.44193 9.89625 8.35925C10.3151 8.27658 10.7492 8.31893 11.1438 8.48096C11.5384 8.64299 11.8756 8.91742 12.1129 9.26953C12.3502 9.62164 12.4768 10.0356 12.4768 10.4591C12.4768 10.8826 12.3502 11.2966 12.1129 11.6487C11.8756 12.0008 11.5384 12.2753 11.1438 12.4373C10.7492 12.5993 10.3151 12.6417 9.89625 12.559C9.47741 12.4763 9.09271 12.2723 8.79079 11.9728C8.38605 11.5713 8.15869 11.0268 8.15869 10.4591C8.15869 9.89142 8.38605 9.34695 8.79079 8.94544Z" fill="#272A31"/>
<path d="M8.7907 41.3635C8.4882 41.0643 8.28202 40.6828 8.19826 40.2673C8.11451 39.8519 8.15694 39.4211 8.3202 39.0295C8.48345 38.638 8.76018 38.3033 9.11535 38.0678C9.47053 37.8323 9.88818 37.7065 10.3154 37.7065C10.7427 37.7065 11.1604 37.8323 11.5155 38.0678C11.8707 38.3033 12.1474 38.638 12.3107 39.0295C12.4739 39.4211 12.5164 39.8519 12.4326 40.2673C12.3489 40.6828 12.1427 41.0643 11.8402 41.3635C11.6407 41.5633 11.4032 41.722 11.1415 41.8302C10.8798 41.9385 10.599 41.9942 10.3154 41.9942C10.0319 41.9942 9.75112 41.9385 9.48941 41.8302C9.2277 41.722 8.99022 41.5633 8.7907 41.3635Z" fill="#272A31"/>
<path d="M41.478 41.3635C41.0727 41.7641 40.5238 41.989 39.9516 41.989C39.3794 41.989 38.8305 41.7641 38.4252 41.3635C38.1232 41.0641 37.9175 40.6826 37.8341 40.2673C37.7507 39.8519 37.7934 39.4214 37.9568 39.0301C38.1202 38.6388 38.3969 38.3044 38.752 38.0691C39.1071 37.8338 39.5246 37.7082 39.9516 37.7082C40.3787 37.7082 40.7961 37.8338 41.1512 38.0691C41.5063 38.3044 41.783 38.6388 41.9464 39.0301C42.1098 39.4214 42.1525 39.8519 42.0691 40.2673C41.9858 40.6826 41.7801 41.0641 41.478 41.3635Z" fill="#272A31"/>
<path d="M46.0907 27.2956C47.2831 27.2956 48.2498 26.337 48.2498 25.1545C48.2498 23.972 47.2831 23.0134 46.0907 23.0134C44.8983 23.0134 43.9316 23.972 43.9316 25.1545C43.9316 26.337 44.8983 27.2956 46.0907 27.2956Z" fill="#EC5242"/>
<path d="M25.1327 2.23343C25.5599 2.23277 25.9776 2.35779 26.3331 2.59265C26.6886 2.82752 26.9659 3.16167 27.1298 3.55284C27.2937 3.94401 27.337 4.37462 27.254 4.79016C27.1711 5.20571 26.9657 5.58753 26.6639 5.88729C26.3621 6.18706 25.9774 6.3913 25.5585 6.47418C25.1396 6.55706 24.7053 6.51487 24.3106 6.35291C23.9159 6.19096 23.5785 5.91653 23.3411 5.56436C23.1037 5.21219 22.977 4.7981 22.977 4.3745C22.977 3.80722 23.204 3.26314 23.6082 2.8617C24.0124 2.46027 24.5607 2.23431 25.1327 2.23343Z" fill="#EC5242"/>
<path d="M2.01898 25.1545C2.01898 24.731 2.14561 24.3171 2.38285 23.965C2.62009 23.6129 2.95729 23.3385 3.35181 23.1764C3.74633 23.0144 4.18044 22.972 4.59926 23.0546C5.01808 23.1372 5.40279 23.3411 5.70474 23.6405C6.00669 23.94 6.21232 24.3215 6.29563 24.7368C6.37894 25.1521 6.33618 25.5826 6.17277 25.9739C6.00936 26.3651 5.73262 26.6995 5.37756 26.9347C5.02251 27.17 4.60507 27.2956 4.17805 27.2956C3.6057 27.2947 3.05705 27.0688 2.65233 26.6675C2.24762 26.2662 2.01987 25.7221 2.01898 25.1545Z" fill="#EC5242"/>
<path d="M25.1328 48.0756C24.7056 48.0756 24.288 47.9499 23.9329 47.7145C23.5778 47.4791 23.301 47.1445 23.1377 46.7531C22.9744 46.3617 22.9318 45.931 23.0154 45.5156C23.099 45.1002 23.305 44.7187 23.6073 44.4194C23.9095 44.1201 24.2946 43.9164 24.7136 43.8342C25.1326 43.7519 25.5669 43.7948 25.9613 43.9574C26.3558 44.1199 26.6927 44.3949 26.9296 44.7474C27.1664 45.0999 27.2925 45.5142 27.2918 45.9378C27.2909 46.5051 27.0631 47.0488 26.6583 47.4496C26.2535 47.8505 25.7048 48.0756 25.1328 48.0756Z" fill="#EC5242"/>
</svg>
