<svg width="43" height="55" viewBox="0 0 43 55" fill="none" xmlns="http://www.w3.org/2000/svg">
<path d="M13.9821 34.3303H28.9516C29.4328 34.3303 29.8942 34.1408 30.2345 33.8034C30.5747 33.4659 30.7659 33.0083 30.7659 32.5312V31.6946C30.7659 31.2175 30.5747 30.7599 30.2345 30.4224C29.8942 30.085 29.4328 29.8955 28.9516 29.8955H13.9821C13.5015 29.8964 13.0409 30.0863 12.7013 30.4236C12.3618 30.7609 12.1711 31.2181 12.1711 31.6946V32.5312C12.1711 33.0077 12.3618 33.4649 12.7013 33.8022C13.0409 34.1395 13.5015 34.3294 13.9821 34.3303ZM13.1754 31.6946C13.1754 31.4822 13.2602 31.2783 13.4114 31.1278C13.5626 30.9772 13.7678 30.8922 13.9821 30.8913H28.9516C29.1662 30.8922 29.3717 30.9771 29.5234 31.1276C29.6752 31.278 29.7608 31.4819 29.7617 31.6946V32.5312C29.7617 32.7442 29.6763 32.9485 29.5244 33.0992C29.3725 33.2498 29.1664 33.3345 28.9516 33.3345H13.9821C13.8759 33.3345 13.7707 33.3137 13.6726 33.2733C13.5745 33.2328 13.4854 33.1736 13.4104 33.099C13.3355 33.0243 13.2761 32.9358 13.2358 32.8383C13.1955 32.7409 13.1749 32.6365 13.1754 32.5312V31.6946Z" fill="white"/>
<path d="M19.0165 11.5985C17.8809 11.5991 16.7706 11.2658 15.8261 10.6406C14.8816 10.0155 14.1453 9.12662 13.7103 8.08643C13.2753 7.04624 13.1611 5.90148 13.3822 4.79695C13.6034 3.69241 14.1499 2.67771 14.9526 1.88121C15.7553 1.08471 16.7782 0.542182 17.8919 0.32225C19.0056 0.102318 20.1601 0.214862 21.2092 0.645649C22.2584 1.07644 23.1552 1.80611 23.7862 2.74237C24.4171 3.67864 24.7539 4.77945 24.7539 5.90554C24.753 7.41456 24.1483 8.86156 23.0727 9.92891C21.997 10.9963 20.5382 11.5967 19.0165 11.5985ZM19.0165 2.20763C18.278 2.20697 17.5559 2.42357 16.9416 2.83001C16.3273 3.23645 15.8484 3.81447 15.5655 4.49092C15.2826 5.16737 15.2084 5.91184 15.3523 6.63012C15.4962 7.3484 15.8518 8.0082 16.374 8.52602C16.8961 9.04385 17.5615 9.39643 18.2858 9.53913C19.0101 9.68184 19.7608 9.60826 20.443 9.32771C21.1251 9.04717 21.708 8.57226 22.1178 7.96309C22.5277 7.35391 22.7461 6.63786 22.7455 5.90554C22.7437 4.92534 22.3502 3.98577 21.6513 3.29266C20.9524 2.59955 20.0049 2.20938 19.0165 2.20763Z" fill="white"/>
<path d="M40.2825 19.2532H30.2939C29.2587 17.187 27.6624 15.4483 25.6848 14.2328C23.7073 13.0174 21.4268 12.3734 19.1002 12.3734C16.7736 12.3734 14.4932 13.0174 12.5156 14.2328C10.538 15.4483 8.94177 17.187 7.90654 19.2532H2.65113C1.94828 19.2541 1.27447 19.5314 0.777476 20.0242C0.280484 20.5171 0.000885764 21.1853 0 21.8823V23.5586C0.000885764 24.2556 0.280484 24.9238 0.777476 25.4166C1.27447 25.9095 1.94828 26.1868 2.65113 26.1876H2.70469V51.99C2.70557 52.687 2.98517 53.3552 3.48216 53.8481C3.97916 54.3409 4.65297 54.6182 5.35583 54.6191H37.5745C38.2773 54.6182 38.9511 54.3409 39.4481 53.8481C39.9451 53.3552 40.2247 52.687 40.2256 51.99V26.1876H40.2792C40.982 26.1868 41.6558 25.9095 42.1528 25.4166C42.6498 24.9238 42.9294 24.2556 42.9303 23.5586V21.8823C42.9294 21.1858 42.6503 20.5181 42.154 20.0254C41.6577 19.5326 40.9848 19.255 40.2825 19.2532ZM19.1069 14.3769C20.885 14.3775 22.6337 14.8262 24.1889 15.6809C25.7441 16.5356 27.0547 17.7683 27.9976 19.2632H10.2095C11.1531 17.7674 12.4647 16.5341 14.0212 15.6793C15.5776 14.8245 17.3277 14.3763 19.1069 14.3769ZM37.8858 51.99C37.8858 52.071 37.8533 52.1487 37.7956 52.206C37.7378 52.2633 37.6595 52.2954 37.5778 52.2954H5.35917C5.27749 52.2954 5.19916 52.2633 5.14141 52.206C5.08365 52.1487 5.05121 52.071 5.05121 51.99V26.1876H37.8858V51.99Z" fill="white"/>
<path d="M35.6698 13.5835L32.4563 10.3968C32.6646 10.0746 32.7563 9.69174 32.7161 9.31108C32.676 8.93043 32.5064 8.57465 32.2354 8.3022L30.6889 6.76859C30.3716 6.45621 29.9426 6.28091 29.4955 6.28091C29.0484 6.28091 28.6195 6.45621 28.3022 6.76859L27.8804 7.19017C27.7225 7.34458 27.5972 7.52856 27.5116 7.73143C27.426 7.9343 27.382 8.15201 27.382 8.37191C27.382 8.59181 27.426 8.80951 27.5116 9.01238C27.5972 9.21525 27.7225 9.39923 27.8804 9.55364L29.4269 11.0872C29.7349 11.3963 30.1529 11.5732 30.591 11.58C31.0291 11.5869 31.4524 11.4231 31.7701 11.1238L34.9635 14.2906C35.1119 14.4358 35.2296 14.609 35.3095 14.7999C35.3894 14.9909 35.4299 15.1958 35.4288 15.4026V20.498H36.433V15.4026C36.4339 15.0643 36.3668 14.7293 36.2358 14.417C36.1047 14.1047 35.9123 13.8213 35.6698 13.5835ZM30.1533 10.3935L28.6068 8.85987C28.542 8.79794 28.4905 8.72369 28.4553 8.64156C28.4201 8.55943 28.4019 8.4711 28.4019 8.38186C28.4019 8.29262 28.4201 8.20429 28.4553 8.12216C28.4905 8.04003 28.542 7.96579 28.6068 7.90386L29.0286 7.4856C29.0914 7.42207 29.1664 7.37171 29.2492 7.33749C29.332 7.30328 29.4209 7.28592 29.5106 7.28644C29.6003 7.28592 29.6892 7.30328 29.772 7.33749C29.8548 7.37171 29.9298 7.42207 29.9926 7.4856L31.5391 9.0192C31.6039 9.08113 31.6555 9.15539 31.6907 9.23752C31.7259 9.31965 31.744 9.40797 31.744 9.49721C31.744 9.58645 31.7259 9.67478 31.6907 9.75691C31.6555 9.83904 31.6039 9.91328 31.5391 9.97522L31.1006 10.3935C30.9718 10.512 30.8026 10.5779 30.627 10.5779C30.4513 10.5779 30.2821 10.512 30.1533 10.3935Z" fill="white"/>
<path d="M40.2859 21.5768H2.65449C2.48441 21.5768 2.34656 21.7135 2.34656 21.8821V23.5612C2.34656 23.7298 2.48441 23.8665 2.65449 23.8665H40.2859C40.456 23.8665 40.5938 23.7298 40.5938 23.5612V21.8821C40.5938 21.7135 40.456 21.5768 40.2859 21.5768Z" fill="#EC5242"/>
</svg>
