<svg width="12" height="7" viewBox="0 0 12 7" fill="none" xmlns="http://www.w3.org/2000/svg">
<g clip-path="url(#clip0_51_3649)">
<path d="M5.96403 7C5.72618 7.00096 5.49742 6.90786 5.32677 6.74064L0.277517 1.62356C0.191736 1.53923 0.123554 1.4384 0.0770025 1.32704C0.0304505 1.21568 0.00647354 1.09604 0.00647354 0.975174C0.00647354 0.854307 0.0304505 0.734665 0.0770025 0.623305C0.123554 0.511945 0.191736 0.411122 0.277517 0.326786C0.446514 0.157164 0.67516 0.0619507 0.913493 0.0619507C1.15183 0.0619507 1.38047 0.157164 1.54947 0.326786L5.97687 4.79548L10.4762 0.254167C10.5596 0.169555 10.6587 0.102409 10.7678 0.0565893C10.877 0.0107701 10.994 -0.0128174 11.1122 -0.0128174C11.2304 -0.0128174 11.3475 0.0107701 11.4566 0.0565893C11.5657 0.102409 11.6648 0.169555 11.7482 0.254167C11.832 0.338286 11.8985 0.438302 11.9439 0.548464C11.9893 0.658627 12.0127 0.77676 12.0127 0.896071C12.0127 1.01538 11.9893 1.13352 11.9439 1.24368C11.8985 1.35384 11.832 1.45386 11.7482 1.53798L6.609 6.72508C6.5249 6.81175 6.42457 6.88068 6.31385 6.92788C6.20313 6.97507 6.08422 6.99959 5.96403 7V7Z" fill="#EC5242"/>
</g>
<defs>
<clipPath id="clip0_51_3649">
<rect width="12" height="7" fill="white"/>
</clipPath>
</defs>
</svg>
