<svg width="56" height="48" viewBox="0 0 56 48" fill="none" xmlns="http://www.w3.org/2000/svg">
<path d="M16.1813 19.5453C17.0927 19.5453 17.8315 18.8126 17.8315 17.9088C17.8315 17.005 17.0927 16.2723 16.1813 16.2723C15.2699 16.2723 14.531 17.005 14.531 17.9088C14.531 18.8126 15.2699 19.5453 16.1813 19.5453Z" fill="#EC5242"/>
<path d="M22.779 19.5453C23.6904 19.5453 24.4292 18.8126 24.4292 17.9088C24.4292 17.005 23.6904 16.2723 22.779 16.2723C21.8676 16.2723 21.1287 17.005 21.1287 17.9088C21.1287 18.8126 21.8676 19.5453 22.779 19.5453Z" fill="white"/>
<path d="M29.3734 19.5453C30.2848 19.5453 31.0236 18.8126 31.0236 17.9088C31.0236 17.005 30.2848 16.2723 29.3734 16.2723C28.4619 16.2723 27.7231 17.005 27.7231 17.9088C27.7231 18.8126 28.4619 19.5453 29.3734 19.5453Z" fill="#EC5242"/>
<path d="M54.4922 30.2473L42.4918 18.3602V2.75861C42.4909 2.11123 42.2309 1.49066 41.769 1.03319C41.3071 0.575733 40.6809 0.318786 40.0281 0.318787H5.52654C4.87372 0.318786 4.24757 0.575733 3.78564 1.03319C3.32371 1.49066 3.06375 2.11123 3.06286 2.75861V31.9369H2.03521C1.49571 31.9378 0.978564 32.1507 0.597079 32.529C0.215594 32.9073 0.000885154 33.4202 0 33.9552V36.1361C0.000885154 36.6711 0.215594 37.1839 0.597079 37.5622C0.978564 37.9405 1.49571 38.1535 2.03521 38.1543H14.3402L9.3024 46.2273C9.22127 46.357 9.16669 46.5013 9.1418 46.6519C9.1169 46.8025 9.12216 46.9565 9.15729 47.105C9.19241 47.2536 9.25671 47.3939 9.34651 47.5178C9.43632 47.6418 9.54986 47.7469 9.68066 47.8273C9.86546 47.9413 10.079 48.0011 10.2966 48C10.4973 48.0019 10.6952 47.9525 10.8711 47.8566C11.047 47.7607 11.195 47.6214 11.3008 47.4522L13.8682 43.346H31.7098L34.2739 47.4522C34.38 47.6212 34.5281 47.7603 34.7039 47.8562C34.8797 47.9521 35.0775 48.0016 35.2782 48C35.4958 48.0015 35.7094 47.9416 35.8941 47.8273C36.0252 47.7472 36.1391 47.6422 36.2291 47.5183C36.3192 47.3944 36.3837 47.2541 36.4188 47.1054C36.454 46.9567 36.4591 46.8025 36.434 46.6519C36.4088 46.5012 36.3539 46.3569 36.2723 46.2273L31.2111 38.1444H43.5161C44.0559 38.1444 44.5735 37.9318 44.9552 37.5533C45.3369 37.1748 45.5513 36.6614 45.5513 36.1261V33.9452C45.5487 33.4117 45.3331 32.9009 44.9517 32.5245C44.5703 32.1482 44.0541 31.9369 43.5161 31.9369H42.4918V27.0042L50.1205 34.5693C50.3521 34.7991 50.6271 34.9815 50.9298 35.1059C51.2325 35.2303 51.5569 35.2943 51.8846 35.2943C52.2122 35.2943 52.5367 35.2303 52.8394 35.1059C53.142 34.9815 53.4171 34.7991 53.6487 34.5693L54.4922 33.7461C54.724 33.5164 54.9078 33.2437 55.0333 32.9435C55.1587 32.6434 55.2233 32.3216 55.2233 31.9967C55.2233 31.6718 55.1587 31.35 55.0333 31.0499C54.9078 30.7497 54.724 30.477 54.4922 30.2473ZM15.3277 41.0224L17.1286 38.1444H28.4562L30.2537 41.0224H15.3277ZM40.4834 31.9369H5.0713V2.75861C5.0713 2.69948 5.0831 2.64094 5.10602 2.58635C5.12894 2.53176 5.16252 2.48221 5.20484 2.44055C5.24716 2.3989 5.29737 2.36596 5.35258 2.34364C5.4078 2.32131 5.46692 2.31004 5.52654 2.31048H40.0281C40.0877 2.31004 40.1469 2.32131 40.2021 2.34364C40.2573 2.36596 40.3075 2.3989 40.3498 2.44055C40.3921 2.48221 40.4257 2.53176 40.4486 2.58635C40.4716 2.64094 40.4834 2.69948 40.4834 2.75861V16.3685L37.6314 13.5403C37.2498 13.1619 33.2396 10.0781 31.7366 11.5685L31.2847 12.02C29.7817 13.5104 32.8915 17.4872 33.2731 17.8656L40.4834 25.0158V31.9369ZM38.09 16.3652L39.2816 17.5469L37.31 19.5021L36.1217 18.327L38.09 16.3652ZM38.3042 20.488L40.2758 18.5328L52.0955 30.254L50.1406 32.2091L38.3042 20.488ZM53.2804 32.5643L52.4536 33.3842C52.3787 33.4591 52.2895 33.5185 52.1912 33.5591C52.093 33.5996 51.9876 33.6205 51.8812 33.6205C51.7748 33.6205 51.6695 33.5996 51.5712 33.5591C51.473 33.5185 51.3838 33.4591 51.3088 33.3842L51.118 33.195L53.0896 31.2398L53.2804 31.4291C53.3562 31.5032 53.4163 31.5915 53.4575 31.6888C53.4987 31.7861 53.5201 31.8905 53.5204 31.996C53.5207 32.1015 53.4999 32.2061 53.4593 32.3036C53.4187 32.4011 53.3591 32.4897 53.2838 32.5643H53.2804Z" fill="white"/>
<path d="M42.8734 34.5825H2.67798V35.4881H42.8734V34.5825Z" fill="#EC5242"/>
<path d="M35.1275 17.3312L34.4581 16.6673C33.7484 15.9636 32.5199 13.7627 32.5467 13.1121L32.8446 12.8167C33.5141 12.7901 35.72 14.0051 36.4297 14.7121L37.0991 15.376L35.1275 17.3312Z" fill="#EC5242"/>
</svg>
