<svg width="18" height="15" viewBox="0 0 18 15" fill="none" xmlns="http://www.w3.org/2000/svg">
<path d="M16.9288 2.50843C16.3789 2.74814 15.8007 2.91507 15.2087 3.00508C15.4855 2.95701 15.8928 2.44835 16.0549 2.24409C16.3097 1.93323 16.503 1.57561 16.6243 1.19073C16.6243 1.16269 16.652 1.12264 16.6243 1.10261C16.6102 1.09555 16.5946 1.09187 16.5789 1.09187C16.5631 1.09187 16.5475 1.09555 16.5334 1.10261C15.8905 1.45524 15.2062 1.72437 14.4969 1.90365C14.4718 1.91081 14.4453 1.91085 14.4201 1.90379C14.395 1.89673 14.3723 1.88283 14.3545 1.8636C14.3003 1.79736 14.2407 1.73574 14.1765 1.67936C13.882 1.42425 13.5497 1.21747 13.1919 1.06656C12.7118 0.870069 12.194 0.786537 11.6774 0.822254C11.1752 0.852508 10.6849 0.988943 10.238 1.22277C9.79155 1.46052 9.39739 1.78753 9.07933 2.18401C8.74873 2.59343 8.51233 3.0723 8.38731 3.58583C8.28076 4.0728 8.26866 4.5761 8.35171 5.06774C8.35171 5.15185 8.35171 5.16387 8.28053 5.15185C5.48081 4.75133 3.15957 3.71399 1.27727 1.54719C1.19423 1.45507 1.15073 1.45507 1.08351 1.54719C0.260991 2.80081 0.660398 4.81141 1.68854 5.79669C1.82695 5.92886 1.96929 6.06103 2.11956 6.1972C1.64691 6.15632 1.1871 6.02015 0.76716 5.79669C0.688072 5.74462 0.644567 5.77666 0.636658 5.86878C0.633529 6.00272 0.641465 6.13669 0.660383 6.26929C0.743288 6.90782 0.991948 7.51265 1.38098 8.02207C1.77001 8.5315 2.28551 8.92728 2.87487 9.16905C3.01807 9.2319 3.16804 9.2776 3.32172 9.30522C2.8856 9.39416 2.43791 9.40905 1.99697 9.34928C1.90207 9.34928 1.86253 9.37731 1.90207 9.47344C2.48337 11.0755 3.74483 11.5601 4.67016 11.8365C4.7967 11.8565 4.92324 11.8565 5.0656 11.8886C5.0656 11.8886 5.0656 11.8886 5.04187 11.9086C4.72948 12.3932 3.64597 12.7537 3.1398 12.9299C2.21545 13.264 1.23086 13.3925 0.253092 13.3064C0.0988698 13.2824 0.0632734 13.2824 0.0237293 13.3064C-0.0158148 13.3304 0.0237235 13.3705 0.067222 13.4105C0.264942 13.5427 0.462671 13.6588 0.6683 13.771C1.28048 14.1041 1.92784 14.3661 2.59805 14.552C6.07002 15.5253 9.97698 14.8123 12.5829 12.189C14.6313 10.1303 15.351 7.29061 15.351 4.44694C15.351 4.33479 15.4815 4.27471 15.5566 4.21464C16.0761 3.80735 16.5344 3.32569 16.9169 2.78479C16.9759 2.70657 17.0079 2.61087 17.0079 2.51243C17 2.46437 16.996 2.47639 16.9288 2.50843Z" fill="white"/>
</svg>
