<svg width="217" height="77" viewBox="0 0 217 77" fill="none" xmlns="http://www.w3.org/2000/svg">
<g clip-path="url(#clip0_106_5378)">
<path d="M77.3012 71.4263C76.6049 71.4519 75.9144 71.2913 75.3023 70.9614C74.6902 70.6314 74.1791 70.1444 73.8226 69.5513C73.0275 68.3137 72.6252 66.434 72.6252 63.8979V60.5275C72.6122 59.5513 72.6962 58.5763 72.8761 57.6164C73.0068 56.9132 73.2279 56.2295 73.5339 55.582C73.7649 55.093 74.0859 54.6511 74.4805 54.2788C74.8021 53.9796 75.1695 53.7328 75.569 53.5475C75.9231 53.3854 76.2995 53.2763 76.686 53.224C77.0186 53.1794 77.3537 53.1559 77.6893 53.1537C78.257 53.1468 78.8222 53.2274 79.3648 53.3928C79.8499 53.5378 80.2972 53.7858 80.6758 54.1194C81.0505 54.4573 81.3419 54.8759 81.5277 55.3429C81.7373 55.8987 81.8385 56.4888 81.8258 57.082C81.8289 57.4391 81.8099 57.796 81.769 58.1508C81.7312 58.451 81.6743 58.7484 81.5987 59.0415H78.9577V58.4321C78.9867 57.7166 78.8775 57.0022 78.6359 56.3273C78.5664 56.1048 78.426 55.9106 78.2358 55.7737C78.0455 55.6368 77.8156 55.5646 77.5805 55.5679C77.3323 55.5635 77.0879 55.6285 76.8753 55.7554C76.648 55.916 76.4735 56.1393 76.3736 56.3976C76.2148 56.7876 76.1128 57.198 76.0707 57.6164C75.9975 58.2529 75.9643 58.8932 75.9713 59.5337V64.6058C75.9713 65.3839 75.9997 66.0449 76.0518 66.5887C76.0832 67.041 76.1755 67.4872 76.3263 67.9153C76.4238 68.2095 76.6044 68.4698 76.8469 68.6653C77.0872 68.8246 77.372 68.905 77.6609 68.895C77.8265 68.8942 77.9892 68.8523 78.1342 68.7731C78.3048 68.6747 78.4467 68.5342 78.546 68.3653C78.683 68.1292 78.7805 67.8728 78.8347 67.6059C78.9176 67.2208 78.9557 66.8276 78.9483 66.434V65.8761H81.788V66.5418C81.788 68.2387 81.4093 69.4731 80.6521 70.245C79.8948 71.017 78.7779 71.4107 77.3012 71.4263Z" fill="#272A31"/>
<path d="M88.5322 71.4264C88.1391 71.4251 87.7467 71.3937 87.3584 71.3326C86.9567 71.2718 86.568 71.1451 86.2084 70.9576C85.8142 70.7485 85.4601 70.4724 85.1624 70.1419C84.7951 69.7262 84.5036 69.2503 84.301 68.7356C84.0282 68.0472 83.836 67.3299 83.7283 66.5981C83.575 65.5944 83.5038 64.5801 83.5154 63.5651V60.7525C83.5047 59.756 83.5776 58.7604 83.7331 57.7758C83.8433 57.0622 84.042 56.3647 84.3247 55.6992C84.5277 55.2019 84.8212 54.7459 85.1908 54.3538C85.7784 53.7502 86.5532 53.3591 87.3916 53.2428C87.7724 53.1875 88.1567 53.1593 88.5416 53.1584C88.9137 53.1585 89.2852 53.1836 89.6538 53.2335C90.0443 53.2867 90.4242 53.399 90.7803 53.5663C91.1712 53.7503 91.5243 54.0046 91.8215 54.3163C92.1868 54.7098 92.4799 55.1635 92.6876 55.657C92.9668 56.3298 93.1638 57.0333 93.2745 57.7524C93.4324 58.7445 93.5053 59.7482 93.4922 60.7525V63.5651C93.5036 64.5665 93.4292 65.567 93.2697 66.5559C93.151 67.2854 92.9493 67.9994 92.6687 68.6841C92.4558 69.1979 92.1584 69.6731 91.7883 70.0904C91.489 70.4255 91.1355 70.7091 90.7424 70.9295C90.3943 71.1203 90.017 71.2533 89.6255 71.3233C89.2647 71.3885 88.8989 71.423 88.5322 71.4264V71.4264ZM88.5322 68.895C88.8011 68.9039 89.0656 68.8248 89.2847 68.67C89.5227 68.4771 89.696 68.2172 89.7816 67.9247C89.9288 67.4811 90.021 67.0215 90.0561 66.5559C90.1129 65.9887 90.1413 65.2902 90.1413 64.4511V60.054C90.1413 59.2149 90.1129 58.5118 90.0561 57.9399C90.0209 57.4712 89.9287 57.0085 89.7816 56.5617C89.6958 56.2653 89.5228 56.0009 89.2847 55.8023C89.0676 55.6426 88.8025 55.56 88.5322 55.5679C88.2501 55.5594 87.9728 55.6417 87.7418 55.8023C87.4959 56.0005 87.3121 56.2639 87.2117 56.5617C87.049 57.0056 86.9471 57.4692 86.9088 57.9399C86.8421 58.6426 86.8121 59.3483 86.8189 60.054V64.4511C86.812 65.1538 86.842 65.8563 86.9088 66.5559C86.9469 67.0236 87.0488 67.484 87.2117 67.9247C87.3119 68.2187 87.496 68.4776 87.7418 68.67C87.9825 68.8271 88.2681 68.9027 88.5558 68.8857L88.5322 68.895Z" fill="#272A31"/>
<path d="M95.9154 53.3787H98.4664L98.7693 55.2819C99.0023 54.9066 99.2857 54.5644 99.6117 54.2647C99.896 54.0047 100.214 53.784 100.558 53.6084C100.87 53.4474 101.203 53.3307 101.547 53.2615C101.876 53.1925 102.21 53.1579 102.546 53.1584C103.012 53.133 103.477 53.219 103.902 53.4091C104.327 53.5992 104.7 53.8878 104.988 54.2506C105.562 54.9819 105.848 56.0757 105.845 57.532V71.2295H102.532V57.668C102.587 57.0967 102.46 56.5227 102.167 56.0273C102.038 55.8707 101.874 55.7465 101.687 55.6651C101.5 55.5836 101.297 55.5471 101.093 55.5585C100.738 55.5659 100.394 55.6786 100.104 55.882C99.7567 56.1203 99.4607 56.4247 99.2331 56.7773V71.2295H95.9201L95.9154 53.3787Z" fill="#272A31"/>
<path d="M111.453 72.4482C111.397 73.0253 111.549 73.6036 111.884 74.0795C112.059 74.2486 112.269 74.3781 112.499 74.459C112.73 74.54 112.975 74.5704 113.219 74.5482C113.458 74.5494 113.697 74.5113 113.924 74.4357C114.156 74.3604 114.363 74.2224 114.52 74.0373C114.713 73.7984 114.853 73.5222 114.932 73.2263C115.051 72.7912 115.106 72.3411 115.093 71.8903V69.0777C114.777 69.4729 114.388 69.8053 113.947 70.0574C113.416 70.3449 112.816 70.4857 112.211 70.4653C111.974 70.463 111.738 70.4426 111.505 70.4043C111.214 70.3595 110.932 70.2709 110.668 70.1418C110.35 69.9798 110.062 69.7658 109.816 69.509C109.5 69.1782 109.247 68.7939 109.068 68.3746C108.822 67.8033 108.644 67.2054 108.538 66.5932C108.394 65.7383 108.327 64.8723 108.339 64.0056V59.3179C108.327 58.4901 108.394 57.6631 108.538 56.8475C108.645 56.2614 108.823 55.6901 109.068 55.1459C109.248 54.7426 109.503 54.3768 109.82 54.0677C110.077 53.8284 110.369 53.6292 110.687 53.4771C110.958 53.352 111.247 53.2667 111.543 53.2239C111.791 53.1925 112.041 53.1753 112.291 53.1724C112.683 53.1659 113.073 53.2229 113.446 53.3411C114.051 53.5361 114.581 53.9129 114.96 54.4193C115.127 54.6401 115.276 54.8737 115.405 55.1178L115.708 53.3552H118.283V70.4934C118.293 71.3981 118.197 72.301 117.999 73.1841C117.833 73.9182 117.526 74.6138 117.095 75.2326C116.692 75.7912 116.153 76.2396 115.528 76.5358C114.817 76.8619 114.04 77.0222 113.257 77.0046C112.694 77.0073 112.133 76.9555 111.581 76.8499C111.092 76.7558 110.625 76.5679 110.209 76.2967C109.802 76.027 109.475 75.6549 109.262 75.2186C109.016 74.6757 108.899 74.0837 108.921 73.4888C108.924 73.3319 108.937 73.1754 108.959 73.0201C108.99 72.8237 109.035 72.6295 109.092 72.4388L111.453 72.4482ZM113.346 67.9386C113.546 67.9421 113.745 67.9038 113.929 67.8261C114.101 67.7552 114.261 67.657 114.402 67.5355C114.537 67.4117 114.657 67.2715 114.757 67.1182C114.855 66.9699 114.939 66.813 115.008 66.6495V56.8803C114.855 56.5266 114.631 56.2075 114.35 55.9428C114.079 55.6893 113.719 55.5512 113.346 55.5584C113.117 55.5553 112.89 55.6 112.679 55.6897C112.461 55.7893 112.279 55.9529 112.158 56.1584C111.983 56.463 111.864 56.7965 111.808 57.1428C111.717 57.6802 111.676 58.2247 111.685 58.7695V64.6666C111.676 65.2129 111.718 65.7589 111.808 66.2979C111.864 66.6486 111.983 66.9867 112.158 67.2964C112.278 67.5142 112.463 67.6895 112.689 67.798C112.892 67.8913 113.113 67.9423 113.337 67.948L113.346 67.9386Z" fill="#272A31"/>
<path d="M121.245 53.3786H123.664L123.953 55.1928C124.253 54.5989 124.685 54.0798 125.216 53.674C125.636 53.3572 126.147 53.1815 126.674 53.1724C127.07 53.1406 127.468 53.2027 127.835 53.3535C128.202 53.5043 128.528 53.7395 128.785 54.0396C129.293 54.8114 129.533 55.7268 129.466 56.646C129.466 56.7913 129.466 56.9647 129.433 57.171C129.4 57.3772 129.381 57.5835 129.339 57.8038C129.296 58.0241 129.253 58.2445 129.197 58.4648C129.14 58.6851 129.078 58.8867 129.021 59.0695H126.717V57.4101C126.722 57.11 126.698 56.8102 126.646 56.5147C126.609 56.3189 126.543 56.1294 126.452 55.9522C126.394 55.8262 126.298 55.7213 126.177 55.6522C126.073 55.5958 125.955 55.5668 125.836 55.5678C125.573 55.5686 125.318 55.6579 125.112 55.8209C124.873 56.0107 124.682 56.2531 124.554 56.5288V71.2294H121.241L121.245 53.3786Z" fill="#272A31"/>
<path d="M135.397 71.4262C134.685 71.44 133.979 71.2925 133.333 70.995C132.717 70.6936 132.195 70.2318 131.823 69.659C131.36 68.9444 131.039 68.1489 130.877 67.3151C130.651 66.1901 130.547 65.0446 130.564 63.8978V60.5274C130.552 59.5572 130.637 58.5882 130.82 57.6351C130.956 56.932 131.18 56.2485 131.487 55.6006C131.716 55.1102 132.037 54.6678 132.434 54.2974C132.765 53.9975 133.142 53.7507 133.551 53.5661C133.914 53.4032 134.3 53.2942 134.696 53.2427C135.046 53.1978 135.399 53.1743 135.752 53.1724C136.333 53.1715 136.911 53.26 137.465 53.4349C138.017 53.615 138.516 53.9274 138.918 54.3443C139.376 54.8358 139.719 55.4217 139.921 56.06C140.19 56.9298 140.314 57.8368 140.29 58.746C140.29 59.107 140.29 59.4773 140.262 59.8476C140.234 60.218 140.21 60.5836 140.177 60.9446C140.144 61.3055 140.096 61.6477 140.04 61.9852C139.983 62.3227 139.921 62.6368 139.86 62.9228H133.901V64.7416C133.896 65.396 133.927 66.0502 133.996 66.701C134.033 67.142 134.136 67.575 134.303 67.9855C134.419 68.2757 134.624 68.522 134.89 68.6886C135.182 68.8392 135.508 68.9119 135.837 68.8996C136.039 68.9008 136.239 68.8592 136.424 68.7777C136.625 68.6866 136.799 68.5462 136.93 68.3699C137.091 68.1398 137.208 67.8824 137.276 67.6105C137.37 67.2271 137.415 66.8332 137.408 66.4385V65.8807H140.167V66.5417C140.167 68.2386 139.76 69.473 138.946 70.2449C138.132 71.0168 136.949 71.4106 135.397 71.4262ZM137.228 60.7149C137.228 60.6211 137.228 60.4945 137.228 60.3352C137.228 60.1758 137.228 60.007 137.228 59.8336C137.228 59.6601 137.228 59.4914 137.228 59.3226V58.8867C137.284 58.0191 137.14 57.1503 136.807 56.3459C136.699 56.1108 136.524 55.9119 136.304 55.7736C136.084 55.6354 135.828 55.5639 135.567 55.5678C135.299 55.5623 135.035 55.6322 134.805 55.7694C134.562 55.9355 134.375 56.1709 134.27 56.4444C134.106 56.845 134 57.2662 133.953 57.696C133.878 58.337 133.843 58.982 133.849 59.6273V60.7149H137.228Z" fill="#272A31"/>
<path d="M141.9 67.4794C141.898 67.1 141.937 66.7214 142.013 66.3497C142.069 66.0572 142.14 65.7678 142.226 65.4824H144.545C144.539 66.0263 144.572 66.57 144.645 67.1091C144.685 67.4723 144.792 67.8251 144.962 68.1497C145.095 68.3941 145.304 68.5896 145.558 68.7076C145.845 68.8272 146.155 68.8847 146.467 68.8763C146.668 68.8943 146.871 68.8665 147.059 68.795C147.248 68.7235 147.418 68.6102 147.555 68.4638C147.775 68.1998 147.896 67.8685 147.896 67.5263C147.896 67.3421 147.869 67.159 147.816 66.9825C147.759 66.8007 147.684 66.6249 147.593 66.4575C147.491 66.268 147.372 66.0877 147.238 65.9184C147.101 65.7356 146.945 65.5387 146.765 65.3231L144.342 62.5104C144.029 62.1214 143.726 61.7276 143.433 61.3245C143.144 60.9289 142.886 60.5121 142.662 60.0775C142.438 59.6491 142.257 59.2001 142.122 58.7369C141.987 58.2561 141.92 57.7592 141.923 57.2602C141.907 56.6412 142.03 56.0264 142.283 55.4602C142.499 54.9722 142.822 54.5382 143.229 54.1898C143.647 53.846 144.13 53.5893 144.649 53.4351C145.195 53.2696 145.763 53.1874 146.334 53.1913C146.932 53.1828 147.529 53.2601 148.104 53.421C148.597 53.5634 149.056 53.8025 149.453 54.1242C149.829 54.4368 150.124 54.8337 150.315 55.282C150.527 55.7948 150.63 56.3453 150.617 56.8993C150.618 57.3035 150.58 57.7069 150.504 58.104C150.433 58.4931 150.357 58.8259 150.291 59.1025H148C148 58.5118 147.962 58.0009 147.92 57.5602C147.892 57.1851 147.811 56.8158 147.678 56.4633C147.585 56.2053 147.421 55.9781 147.205 55.807C146.967 55.6518 146.685 55.5747 146.4 55.5867C146.152 55.5796 145.905 55.626 145.676 55.7227C145.501 55.8016 145.346 55.9191 145.223 56.066C145.1 56.213 145.012 56.3857 144.966 56.5711C144.918 56.7532 144.892 56.9406 144.891 57.129C144.89 57.5328 144.994 57.93 145.194 58.2821C145.429 58.6885 145.696 59.0756 145.993 59.44L148.634 62.5104C148.828 62.7448 149.051 63.0261 149.302 63.3589C149.568 63.7095 149.81 64.0775 150.026 64.4605C150.257 64.8812 150.449 65.3222 150.599 65.7778C150.757 66.2591 150.837 66.7623 150.835 67.2684C150.844 67.8542 150.742 68.4363 150.532 68.9841C150.343 69.4856 150.038 69.9365 149.642 70.3014C149.227 70.6801 148.735 70.9677 148.199 71.1452C147.567 71.3529 146.905 71.4543 146.24 71.4452C145.668 71.4421 145.099 71.3697 144.545 71.2295C144.041 71.1078 143.569 70.8826 143.159 70.5686C142.748 70.2464 142.423 69.8296 142.212 69.3545C141.975 68.7584 141.868 68.1193 141.9 67.4794V67.4794Z" fill="#272A31"/>
<path d="M152.241 67.4793C152.24 67.0999 152.278 66.7214 152.354 66.3496C152.412 66.057 152.484 65.7675 152.572 65.4824H154.901C154.894 66.0263 154.927 66.5699 155 67.109C155.04 67.4723 155.148 67.825 155.317 68.1497C155.451 68.394 155.66 68.5895 155.913 68.7075C156.201 68.8271 156.511 68.8847 156.822 68.8763C157.023 68.8949 157.226 68.8674 157.415 68.7959C157.604 68.7244 157.773 68.6107 157.911 68.4638C158.131 68.1998 158.251 67.8684 158.251 67.5262C158.251 67.3421 158.224 67.1589 158.171 66.9824C158.116 66.7999 158.042 66.6239 157.949 66.4574C157.846 66.2691 157.729 66.0889 157.598 65.9183L157.125 65.323L154.702 62.5104C154.389 62.1213 154.087 61.7275 153.793 61.3244C153.504 60.9289 153.246 60.512 153.022 60.0775C152.798 59.6498 152.619 59.2006 152.487 58.7368C152.348 58.2568 152.28 57.7595 152.283 57.2602C152.267 56.6412 152.39 56.0264 152.643 55.4601C152.866 54.97 153.198 54.5359 153.613 54.1897C154.029 53.8446 154.513 53.5877 155.033 53.435C155.581 53.2692 156.15 53.187 156.723 53.1913C157.319 53.183 157.914 53.2604 158.488 53.421C158.982 53.5612 159.441 53.8006 159.837 54.1241C160.213 54.4367 160.508 54.8336 160.698 55.282C160.91 55.7947 161.014 56.3452 161.001 56.8992C161.002 57.3035 160.964 57.7069 160.888 58.104C160.818 58.4915 160.747 58.8243 160.675 59.1024H158.384C158.384 58.5118 158.346 58.0008 158.304 57.5602C158.276 57.1851 158.194 56.8158 158.062 56.4633C157.969 56.2053 157.805 55.978 157.589 55.807C157.351 55.6517 157.069 55.5746 156.784 55.5867C156.537 55.579 156.292 55.6255 156.065 55.7226C155.882 55.8049 155.721 55.9266 155.592 56.0789C155.476 56.2244 155.392 56.392 155.346 56.5711C155.298 56.7534 155.274 56.9408 155.275 57.1289C155.272 57.5323 155.375 57.9295 155.573 58.2821C155.81 58.6874 156.077 59.0744 156.373 59.44L159.018 62.5104C159.207 62.7448 159.43 63.026 159.685 63.3589C159.949 63.7107 160.189 64.0786 160.405 64.4605C160.638 64.8802 160.83 65.3214 160.978 65.7777C161.138 66.2585 161.218 66.762 161.214 67.2684C161.223 67.8536 161.122 68.4353 160.916 68.9841C160.725 69.4847 160.42 69.9353 160.026 70.3013C159.609 70.6811 159.116 70.9687 158.578 71.1451C157.946 71.3529 157.284 71.4543 156.619 71.4451C156.046 71.4471 155.475 71.3794 154.92 71.2436C154.416 71.1218 153.943 70.8966 153.533 70.5826C153.122 70.2604 152.797 69.8436 152.586 69.3685C152.336 68.7705 152.218 68.1263 152.241 67.4793V67.4793Z" fill="#272A31"/>
<path d="M168.148 69.2606L173.084 59.8477C173.557 58.9899 173.908 58.2445 174.187 57.6023C174.466 56.9601 174.693 56.4069 174.859 55.9241C175.001 55.5157 175.112 55.0973 175.19 54.6725C175.247 54.363 175.277 54.0494 175.28 53.735C175.29 53.3531 175.248 52.9717 175.157 52.6005C175.094 52.3293 174.97 52.076 174.793 51.8599C174.633 51.6737 174.423 51.537 174.187 51.4661C173.919 51.3828 173.639 51.3433 173.359 51.3489C173.019 51.3294 172.68 51.4075 172.384 51.5738C172.087 51.7401 171.846 51.9875 171.688 52.2865C171.298 53.1334 171.121 54.0616 171.172 54.9913V56.2288H168.555C168.46 55.76 168.375 55.2913 168.304 54.9022C168.233 54.4666 168.199 54.0261 168.2 53.585C168.202 53.0133 168.302 52.446 168.493 51.9068C168.694 51.3466 169.008 50.833 169.416 50.3973C169.868 49.9258 170.414 49.5536 171.021 49.3051C171.764 49.0125 172.559 48.8721 173.359 48.8926C174.206 48.8744 175.051 48.9883 175.862 49.2301C176.501 49.4224 177.086 49.7595 177.571 50.2145C178.021 50.6545 178.356 51.1969 178.546 51.7943C178.763 52.478 178.868 53.1917 178.858 53.9084C178.859 54.3552 178.816 54.801 178.73 55.2397C178.638 55.7203 178.5 56.1911 178.319 56.646C178.102 57.2022 177.852 57.7454 177.571 58.2726C177.255 58.8633 176.881 59.5383 176.449 60.2977L172.038 68.5949H178.57V71.2294H168.157L168.148 69.2606Z" fill="#272A31"/>
<path d="M180.661 55.4132C180.647 54.5694 180.738 53.7271 180.931 52.9052C181.079 52.2825 181.316 51.6842 181.636 51.1286C181.901 50.683 182.246 50.289 182.654 49.9661C183.015 49.6864 183.413 49.4576 183.837 49.2863C184.228 49.1329 184.637 49.0258 185.054 48.9676C185.425 48.9191 185.8 48.894 186.175 48.8926C186.536 48.8951 186.896 48.9185 187.254 48.9629C187.666 49.0124 188.07 49.1132 188.456 49.2629C188.881 49.4226 189.278 49.6455 189.635 49.9239C190.04 50.2417 190.381 50.6311 190.643 51.0724C190.966 51.6321 191.205 52.2353 191.353 52.8631C191.543 53.6966 191.632 54.5495 191.618 55.4038V64.7792C191.631 65.6226 191.542 66.4645 191.353 67.2871C191.202 67.916 190.961 68.5205 190.638 69.0825C190.371 69.5383 190.025 69.9444 189.616 70.2825C188.936 70.837 188.119 71.2012 187.25 71.3372C186.897 71.3951 186.541 71.4264 186.185 71.431C185.803 71.4276 185.421 71.3963 185.044 71.3372C184.621 71.2737 184.208 71.1587 183.814 70.995C183.386 70.8177 182.988 70.5792 182.63 70.2872C182.224 69.9551 181.884 69.5514 181.627 69.0965C181.311 68.5306 181.078 67.9229 180.936 67.2918C180.747 66.4676 180.658 65.6241 180.671 64.7792L180.661 55.4132ZM184.131 66.1948C184.071 66.8977 184.249 67.6001 184.637 68.1918C184.826 68.4076 185.064 68.5764 185.331 68.6847C185.598 68.793 185.887 68.8377 186.175 68.8153C186.458 68.8366 186.742 68.7912 187.003 68.6828C187.265 68.5744 187.497 68.4062 187.68 68.1918C188.062 67.5978 188.236 66.8964 188.177 66.1948V54.1944C188.236 53.4557 188.062 52.7172 187.68 52.0802C187.503 51.8566 187.273 51.6794 187.011 51.5642C186.748 51.449 186.461 51.3992 186.175 51.4192C185.884 51.3978 185.592 51.4467 185.324 51.5619C185.056 51.677 184.82 51.8549 184.637 52.0802C184.249 52.715 184.072 53.4545 184.131 54.1944V66.1948Z" fill="#272A31"/>
<path d="M193.819 69.2607L198.755 59.8478C199.228 58.9899 199.578 58.2446 199.858 57.6024C200.137 56.9602 200.364 56.407 200.53 55.9242C200.672 55.5158 200.782 55.0974 200.861 54.6726C200.917 54.3631 200.948 54.0495 200.951 53.735C200.96 53.3532 200.919 52.9718 200.828 52.6006C200.765 52.3294 200.64 52.0761 200.463 51.8599C200.304 51.6738 200.094 51.537 199.858 51.4662C199.59 51.3829 199.31 51.3433 199.029 51.349C198.689 51.3295 198.351 51.4076 198.055 51.5739C197.758 51.7402 197.517 51.9876 197.359 52.2865C196.968 53.1335 196.791 54.0617 196.843 54.9913V56.2289H194.24C194.145 55.7601 194.06 55.2913 193.989 54.9023C193.916 54.467 193.881 54.0263 193.885 53.585C193.887 53.0133 193.987 52.4461 194.178 51.9068C194.386 51.3447 194.708 50.8309 195.125 50.3974C195.576 49.9259 196.123 49.5537 196.729 49.3052C197.472 49.0122 198.268 48.8718 199.067 48.8926C199.915 48.8745 200.759 48.9884 201.571 49.2302C202.21 49.4225 202.795 49.7595 203.28 50.2146C203.73 50.6546 204.064 51.1969 204.254 51.7943C204.47 52.4783 204.574 53.192 204.562 53.9085C204.564 54.3551 204.523 54.8009 204.439 55.2398C204.345 55.7198 204.207 56.1905 204.027 56.6461C203.808 57.2015 203.559 57.7445 203.28 58.2727C202.977 58.8634 202.598 59.5384 202.158 60.2978L197.747 68.595H204.273V71.2295H193.861L193.819 69.2607Z" fill="#272A31"/>
<path d="M206.294 69.2607L211.231 59.8478C211.704 58.9899 212.049 58.2446 212.333 57.6024C212.617 56.9602 212.84 56.407 213.001 55.9242C213.146 55.5165 213.258 55.0979 213.337 54.6726C213.393 54.3631 213.423 54.0495 213.427 53.735C213.436 53.3532 213.395 52.9718 213.304 52.6006C213.239 52.33 213.115 52.077 212.939 51.8599C212.78 51.6738 212.569 51.537 212.333 51.4662C212.066 51.3829 211.786 51.3433 211.505 51.349C211.165 51.3289 210.826 51.4067 210.53 51.5731C210.233 51.7395 209.992 51.9872 209.834 52.2865C209.444 53.1335 209.267 54.0617 209.319 54.9913V56.2289H206.701C206.602 55.7601 206.521 55.2913 206.45 54.9023C206.378 54.467 206.343 54.0263 206.346 53.585C206.349 53.0133 206.448 52.4461 206.64 51.9068C206.84 51.3467 207.155 50.833 207.563 50.3974C208.014 49.9259 208.561 49.5537 209.167 49.3052C209.91 49.0122 210.706 48.8718 211.505 48.8926C212.352 48.8745 213.197 48.9884 214.009 49.2302C214.648 49.4225 215.233 49.7595 215.717 50.2146C216.167 50.6546 216.502 51.1969 216.692 51.7943C216.908 52.4783 217.012 53.192 217 53.9085C217.002 54.3551 216.961 54.8009 216.877 55.2398C216.782 55.7198 216.645 56.1905 216.465 56.6461C216.246 57.2015 215.997 57.7445 215.717 58.2727C215.414 58.8634 215.036 59.5384 214.591 60.2978L210.18 68.595H216.711V71.2295H206.299L206.294 69.2607Z" fill="#272A31"/>
<path d="M78.7258 14.4802H73.4487V10.6082H88.9487V14.4802H83.6906V43.0751H78.7258V14.4802Z" fill="#272A31"/>
<path d="M90.8135 10.6082H102.953V14.4802H95.7971V24.1884H101.344V28.0651H95.7971V39.1796H103.166V43.0563H90.8135V10.6082Z" fill="#272A31"/>
<path d="M112.296 43.3377C111.741 43.3362 111.188 43.2955 110.639 43.2158C110.023 43.1252 109.422 42.9501 108.855 42.6955C108.228 42.4094 107.652 42.0265 107.146 41.5611C106.56 41.0086 106.079 40.3559 105.727 39.6344C105.263 38.6988 104.928 37.7054 104.733 36.6812C104.461 35.3009 104.334 33.8965 104.354 32.4904V20.9962C104.331 19.591 104.461 18.1876 104.742 16.8101C104.941 15.7956 105.275 14.8119 105.736 13.8849C106.102 13.1766 106.596 12.541 107.194 12.0099C107.705 11.5686 108.281 11.2067 108.902 10.9364C109.464 10.7032 110.054 10.5456 110.658 10.4676C111.195 10.3957 111.735 10.3581 112.277 10.3551C113.392 10.3209 114.503 10.5041 115.547 10.8942C116.361 11.2124 117.085 11.7206 117.658 12.3755C118.194 13.015 118.58 13.7643 118.789 14.5693C119.016 15.4389 119.129 16.3338 119.125 17.232C119.129 17.8756 119.094 18.519 119.021 19.1586C118.95 19.7492 118.846 20.3961 118.704 21.1087H114.676V19.4211C114.676 17.6367 114.478 16.3007 114.08 15.4131C113.682 14.5272 113.105 14.0818 112.334 14.0818C111.915 14.0726 111.501 14.1643 111.127 14.349C110.753 14.5547 110.453 14.8688 110.265 15.2491C110.001 15.7791 109.822 16.347 109.735 16.9319C109.604 17.7929 109.544 18.663 109.555 19.5336V34.3514C109.545 35.1974 109.593 36.0431 109.697 36.8828C109.76 37.4433 109.92 37.9888 110.171 38.4953C110.351 38.8679 110.65 39.1712 111.023 39.3579C111.421 39.5401 111.857 39.6284 112.296 39.6157C112.617 39.6173 112.933 39.5417 113.219 39.3954C113.531 39.2373 113.798 39.0035 113.995 38.7156C114.24 38.3553 114.421 37.9557 114.53 37.5343C114.675 36.9869 114.744 36.4222 114.733 35.8561V32.6826H119.281V35.6827C119.281 38.2937 118.676 40.2157 117.478 41.4579C116.281 42.7002 114.548 43.3283 112.296 43.3377Z" fill="#272A31"/>
<path d="M121.7 10.6082H126.669V24.2025H132.557V10.6082H137.522V43.0563H132.557V28.0557H126.669V43.0563H121.7V10.6082Z" fill="#272A31"/>
<path d="M148.578 10.6082H155.062L158.209 23.1618C158.524 24.5587 158.786 25.8869 158.995 27.1463C159.184 28.4026 159.373 29.5933 159.548 30.7043H159.69C159.87 29.5933 160.055 28.4026 160.244 27.1463C160.433 25.89 160.717 24.5587 161.034 23.1618L164.272 10.6082H170.623V43.0564H165.98V32.3215C165.98 30.6746 165.996 29.0917 166.028 27.5729C166.061 26.0494 166.103 24.6572 166.155 23.3821C166.207 22.1071 166.264 20.9867 166.326 20.0117C166.387 19.0366 166.449 18.2632 166.501 17.6678H166.136L161.2 38.8843H158.053L153.064 17.6913H152.7C152.747 18.2632 152.804 19.0444 152.87 20.0351C152.937 21.0101 152.993 22.1305 153.041 23.4056C153.088 24.6806 153.135 26.0728 153.168 27.5963C153.202 29.1198 153.216 30.6996 153.216 32.345V43.0798H148.573L148.578 10.6082Z" fill="#272A31"/>
<path d="M174.745 10.6082H186.885V14.4802H179.715V24.1884H185.248V28.0651H179.715V39.1796H187.079V43.0563H174.745V10.6082Z" fill="#272A31"/>
<path d="M189.171 10.6082H201.339V14.4802H194.14V24.1884H199.683V28.0651H194.14V39.1796H201.505V43.0563H189.171V10.6082Z" fill="#272A31"/>
<path d="M206.63 14.4802H201.339V10.6082H216.834V14.4802H211.581V43.0751H206.611L206.63 14.4802Z" fill="#272A31"/>
<path d="M50.6175 31.1965H33.1061C32.7207 31.1965 32.3511 31.0449 32.0786 30.775C31.8062 30.5051 31.6531 30.1391 31.6531 29.7574C31.6531 29.3757 31.8062 29.0097 32.0786 28.7398C32.3511 28.4699 32.7207 28.3183 33.1061 28.3183H49.1503V13.0083C49.1715 12.6402 49.3341 12.2941 49.6047 12.0409C49.8753 11.7878 50.2334 11.6467 50.6057 11.6467C50.9779 11.6467 51.336 11.7878 51.6066 12.0409C51.8772 12.2941 52.0398 12.6402 52.061 13.0083V29.7574C52.0616 29.9458 52.0248 30.1324 51.9526 30.3067C51.8804 30.481 51.7742 30.6395 51.6402 30.7731C51.5061 30.9067 51.3468 31.0129 51.1714 31.0856C50.9959 31.1582 50.8077 31.1959 50.6175 31.1965V31.1965Z" fill="#272A31"/>
<path d="M67.599 37.8766H27.7723C27.4006 37.8556 27.0512 37.6945 26.7956 37.4265C26.54 37.1585 26.3976 36.8038 26.3976 36.4351C26.3976 36.0664 26.54 35.7117 26.7956 35.4437C27.0512 35.1756 27.4006 35.0146 27.7723 34.9936H66.146V29.6028C66.1672 29.2347 66.3298 28.8886 66.6004 28.6354C66.871 28.3823 67.2291 28.2412 67.6014 28.2412C67.9736 28.2412 68.3317 28.3823 68.6023 28.6354C68.8729 28.8886 69.0355 29.2347 69.0567 29.6028V36.4374C69.0567 36.6268 69.019 36.8143 68.9456 36.9893C68.8723 37.1642 68.7649 37.323 68.6295 37.4567C68.494 37.5904 68.3333 37.6963 68.1565 37.7684C67.9796 37.8404 67.7902 37.8772 67.599 37.8766Z" fill="#272A31"/>
<path d="M66.5246 44.5565H26.9819C26.6102 44.5355 26.2608 44.3745 26.0052 44.1065C25.7496 43.8385 25.6072 43.4837 25.6072 43.115C25.6072 42.7464 25.7496 42.3916 26.0052 42.1236C26.2608 41.8556 26.6102 41.6946 26.9819 41.6736H66.5246C66.8962 41.6946 67.2457 41.8556 67.5013 42.1236C67.7569 42.3916 67.8993 42.7464 67.8993 43.115C67.8993 43.4837 67.7569 43.8385 67.5013 44.1065C67.2457 44.3745 66.8962 44.5355 66.5246 44.5565V44.5565Z" fill="#272A31"/>
<path d="M58.4882 60.9165H52.5438C52.1584 60.9165 51.7889 60.7648 51.5164 60.495C51.2439 60.2251 51.0908 59.859 51.0908 59.4773V51.5411H32.718C32.3326 51.5411 31.9631 51.3895 31.6906 51.1196C31.4181 50.8497 31.265 50.4836 31.265 50.102C31.265 49.7203 31.4181 49.3542 31.6906 49.0844C31.9631 48.8145 32.3326 48.6628 32.718 48.6628H52.5438C52.735 48.6622 52.9244 48.699 53.1013 48.771C53.2781 48.8431 53.4388 48.949 53.5743 49.0827C53.7097 49.2164 53.8171 49.3752 53.8904 49.5502C53.9638 49.7251 54.0015 49.9126 54.0015 50.102V58.071H58.4882C58.6863 58.0598 58.8846 58.0888 59.071 58.1562C59.2574 58.2236 59.428 58.328 59.5722 58.4629C59.7165 58.5979 59.8314 58.7606 59.9099 58.941C59.9884 59.1215 60.029 59.316 60.029 59.5125C60.029 59.709 59.9884 59.9035 59.9099 60.084C59.8314 60.2645 59.7165 60.4272 59.5722 60.5621C59.428 60.6971 59.2574 60.8014 59.071 60.8688C58.8846 60.9362 58.6863 60.9652 58.4882 60.954V60.9165Z" fill="#272A31"/>
<path d="M38.776 55.6709C37.7869 55.0943 36.58 54.9959 35.4157 54.9068C34.5427 54.8771 33.6773 54.7353 32.8411 54.485C30.8202 53.7584 29.3151 51.9067 27.9899 50.266C26.5701 48.5503 25.3916 47.0784 23.6641 47.13C21.3782 47.2143 20.531 49.4738 19.8542 51.3114C19.5896 52.187 19.1906 53.0171 18.671 53.7724C18.1518 54.3056 17.5722 54.7775 16.9435 55.1787C15.5237 56.1819 13.7063 57.4288 12.542 60.1524C12.3462 60.6124 12.2064 61.094 12.1255 61.5868C8.64849 57.9354 6.0445 53.5566 4.50603 48.7743C2.96756 43.9919 2.53395 38.9282 3.23725 33.9576C3.42657 34.0185 3.62061 34.0747 3.80992 34.1263C5.76931 34.6888 6.5313 35.0029 6.72534 36.1233C7.23649 39.0531 11.6901 44.8236 16.2147 46.3987C16.9334 46.6612 17.692 46.8007 18.458 46.8112C19.697 46.8196 20.8942 46.3681 21.8136 45.5455C23.9718 43.6704 21.8609 40.7688 19.8211 37.9702C19.0118 36.8545 17.5257 34.8201 17.4547 34.0513L17.5493 34.0138C18.4695 33.6899 19.4498 33.5683 20.4221 33.6575C22.4336 33.7888 23.4464 33.306 25.4626 30.1886C26.7736 28.1589 29.4997 27.5542 31.904 27.0151C34.3082 26.476 36.9397 25.8947 36.9397 23.4149C36.9397 21.5961 35.6382 19.6367 33.5463 18.296C31.1467 16.7631 28.397 16.4209 26.182 17.4288C24.729 18.0757 23.7824 17.7522 23.5221 17.6397C23.3655 17.5755 23.2261 17.476 23.1151 17.3491C23.1867 17.2148 23.2928 17.1016 23.4228 17.0209C25.2307 15.6756 27.2421 12.6989 26.3003 10.6129C25.9548 9.84876 24.9704 8.64871 22.2632 9.20655C21.4732 9.35945 20.6683 9.42392 19.8637 9.39874C24.9661 6.42167 30.7673 4.82155 36.6889 4.75793L36.6605 1.85156C29.3825 1.92662 22.2882 4.12354 16.2632 8.168C10.2383 12.2125 5.54978 17.9252 2.78308 24.593C0.0163818 31.2608 -0.705881 38.588 0.706478 45.6599C2.11884 52.7318 5.60323 59.2349 10.7246 64.3572C11.8747 65.5076 13.1 66.5819 14.3925 67.573C14.5672 67.7404 14.7521 67.8969 14.9463 68.0418C15.0407 68.1115 15.1441 68.1682 15.2539 68.2105C21.4728 72.7217 28.9665 75.1816 36.6747 75.242L36.7031 72.3638C29.2341 72.2833 22.0006 69.7639 16.1247 65.1963C15.4479 64.451 14.4966 62.9978 15.235 61.2634C16.0727 59.3039 17.3127 58.4507 18.6284 57.5132C19.4547 56.9828 20.2114 56.353 20.8812 55.6381C21.6953 54.7006 22.1544 53.4771 22.5992 52.2817C22.8501 51.5973 23.4464 49.9988 23.7398 49.9801C24.1421 50.0832 25.0982 51.2645 25.7371 52.0474C27.2232 53.8802 29.0501 56.1631 31.8614 57.1663C32.9421 57.5088 34.0643 57.7059 35.198 57.7523C36.0357 57.8179 36.9018 57.8835 37.3136 58.1273C37.6446 58.2961 38.0283 58.3331 38.386 58.2306C38.7437 58.1281 39.0482 57.8939 39.2371 57.5761C39.426 57.2583 39.485 56.8809 39.4019 56.5214C39.3188 56.1619 39.0999 55.8476 38.7902 55.6428L38.776 55.6709ZM16.3614 11.7192C18.4607 12.3516 20.6862 12.4547 22.8359 12.0192C23.0952 11.9622 23.3607 11.937 23.6263 11.9442C23.3033 13.0583 22.6178 14.0355 21.6763 14.724C20.0009 15.9662 19.9394 17.6772 20.6209 18.8163C21.5959 20.4523 24.2983 21.4461 27.3794 20.0632C28.9223 19.3741 30.7634 19.9554 31.9655 20.7242C33.1676 21.493 33.9911 22.5571 34.029 23.3634C33.6693 23.6681 32.2353 23.9915 31.2698 24.2025C28.6147 24.7978 24.9751 25.6088 23.0157 28.6323C21.5959 30.8449 21.3782 30.8309 20.6162 30.784C19.2787 30.6615 17.9302 30.8213 16.6595 31.2528C16.2063 31.3685 15.7889 31.5933 15.4446 31.9074C15.1003 32.2214 14.8397 32.6149 14.686 33.0528C14.0565 34.9607 15.6325 37.1264 17.4641 39.6156C18.3113 40.7781 19.7075 42.6907 19.7832 43.4314C19.3099 43.7876 18.5858 44.1298 17.1802 43.6423C13.6447 42.4095 9.92473 37.4874 9.60763 35.5936C9.08229 32.5888 6.50763 31.8434 4.6287 31.3137L3.77679 31.0652C5.57176 23.3629 10.0221 16.5215 16.3614 11.7192V11.7192Z" fill="#272A31"/>
<path d="M29.8073 14.799C29.4216 14.7977 29.052 14.6451 28.7796 14.3744C28.5073 14.1038 28.3544 13.7373 28.3544 13.3552V8.66748C28.3756 8.29939 28.5381 7.95328 28.8087 7.70012C29.0793 7.44695 29.4375 7.30591 29.8097 7.30591C30.1819 7.30591 30.5401 7.44695 30.8107 7.70012C31.0813 7.95328 31.2439 8.29939 31.2651 8.66748V13.3552C31.2651 13.7381 31.1115 14.1053 30.8381 14.3761C30.5647 14.6469 30.194 14.799 29.8073 14.799V14.799Z" fill="#272A31"/>
<path d="M33.9344 16.9553C33.7432 16.9559 33.5537 16.9192 33.3769 16.8471C33.2001 16.7751 33.0393 16.6692 32.9039 16.5355C32.7685 16.4018 32.6611 16.2429 32.5877 16.068C32.5144 15.8931 32.4767 15.7056 32.4767 15.5162V8.64405C32.4979 8.27596 32.6605 7.92985 32.9311 7.67668C33.2017 7.42351 33.5598 7.28247 33.932 7.28247C34.3043 7.28247 34.6624 7.42351 34.933 7.67668C35.2036 7.92985 35.3662 8.27596 35.3874 8.64405V15.5162C35.388 15.7054 35.3508 15.8928 35.278 16.0677C35.2052 16.2425 35.0982 16.4014 34.9632 16.5352C34.8282 16.669 34.6677 16.7749 34.4912 16.847C34.3146 16.9191 34.1254 16.9559 33.9344 16.9553V16.9553Z" fill="#272A31"/>
<path d="M38.2555 20.6541C38.0631 20.6541 37.8726 20.6162 37.695 20.5427C37.5175 20.4693 37.3565 20.3616 37.2213 20.2259C37.0861 20.0903 36.9795 19.9295 36.9076 19.7527C36.8357 19.5759 36.8 19.3868 36.8025 19.1962V8.6442C36.8025 8.45521 36.8401 8.26807 36.9131 8.09347C36.9861 7.91887 37.0931 7.76022 37.2281 7.62659C37.363 7.49295 37.5232 7.38695 37.6994 7.31463C37.8757 7.2423 38.0647 7.20508 38.2555 7.20508C38.4463 7.20508 38.6352 7.2423 38.8115 7.31463C38.9878 7.38695 39.148 7.49295 39.2829 7.62659C39.4178 7.76022 39.5248 7.91887 39.5978 8.09347C39.6709 8.26807 39.7084 8.45521 39.7084 8.6442V19.1962C39.711 19.3868 39.6752 19.5759 39.6033 19.7527C39.5314 19.9295 39.4248 20.0903 39.2896 20.2259C39.1545 20.3616 38.9934 20.4693 38.8159 20.5427C38.6384 20.6162 38.4479 20.6541 38.2555 20.6541V20.6541Z" fill="#272A31"/>
<path d="M35.6192 62.6651H28.7093C28.5112 62.6762 28.3129 62.6473 28.1265 62.5799C27.9401 62.5125 27.7696 62.4081 27.6253 62.2732C27.4811 62.1382 27.3662 61.9755 27.2876 61.7951C27.2091 61.6146 27.1686 61.4201 27.1686 61.2236C27.1686 61.0271 27.2091 60.8326 27.2876 60.6521C27.3662 60.4716 27.4811 60.3089 27.6253 60.174C27.7696 60.039 27.9401 59.9347 28.1265 59.8673C28.3129 59.7999 28.5112 59.7709 28.7093 59.7821H35.6192C35.9909 59.8031 36.3403 59.9641 36.5959 60.2322C36.8515 60.5002 36.9939 60.8549 36.9939 61.2236C36.9939 61.5923 36.8515 61.947 36.5959 62.215C36.3403 62.483 35.9909 62.6441 35.6192 62.6651Z" fill="#272A31"/>
<path d="M39.0884 66.4901H33.3238C32.9521 66.4691 32.6027 66.3081 32.3471 66.0401C32.0915 65.772 31.9491 65.4173 31.9491 65.0486C31.9491 64.68 32.0915 64.3252 32.3471 64.0572C32.6027 63.7892 32.9521 63.6282 33.3238 63.6072H39.0978C39.4695 63.6282 39.8189 63.7892 40.0745 64.0572C40.3301 64.3252 40.4725 64.68 40.4725 65.0486C40.4725 65.4173 40.3301 65.772 40.0745 66.0401C39.8189 66.3081 39.4695 66.4691 39.0978 66.4901H39.0884Z" fill="#272A31"/>
<path d="M35.2169 70.3153H29.4334C29.0618 70.2943 28.7123 70.1333 28.4567 69.8653C28.2011 69.5972 28.0587 69.2425 28.0587 68.8738C28.0587 68.5052 28.2011 68.1504 28.4567 67.8824C28.7123 67.6144 29.0618 67.4534 29.4334 67.4324H35.2169C35.5885 67.4534 35.938 67.6144 36.1936 67.8824C36.4492 68.1504 36.5916 68.5052 36.5916 68.8738C36.5916 69.2425 36.4492 69.5972 36.1936 69.8653C35.938 70.1333 35.5885 70.2943 35.2169 70.3153V70.3153Z" fill="#272A31"/>
<path d="M50.6696 13.3694C49.8857 13.3713 49.1189 13.1427 48.4662 12.7127C47.8135 12.2827 47.3043 11.6706 47.003 10.9538C46.7017 10.237 46.6219 9.44783 46.7737 8.68611C46.9255 7.92439 47.302 7.2244 47.8556 6.67473C48.4093 6.12507 49.1151 5.75045 49.8838 5.5983C50.6525 5.44614 51.4495 5.52329 52.1739 5.81998C52.8983 6.11668 53.5175 6.61957 53.9532 7.265C54.3889 7.91043 54.6215 8.66939 54.6215 9.4458C54.6202 10.4844 54.2038 11.4803 53.4632 12.2155C52.7226 12.9508 51.7182 13.3657 50.6696 13.3694V13.3694ZM50.6696 8.01137C50.3831 8.01137 50.1031 8.0955 49.865 8.25312C49.6268 8.41073 49.4412 8.63476 49.3316 8.89687C49.222 9.15898 49.1933 9.4474 49.2492 9.72565C49.305 10.0039 49.443 10.2595 49.6455 10.4601C49.848 10.6607 50.1061 10.7973 50.387 10.8527C50.668 10.908 50.9592 10.8796 51.2238 10.771C51.4884 10.6625 51.7146 10.4786 51.8737 10.2427C52.0329 10.0068 52.1178 9.72951 52.1178 9.4458C52.1178 9.06537 51.9652 8.70052 51.6936 8.43151C51.422 8.1625 51.0537 8.01137 50.6696 8.01137Z" fill="#272A31"/>
<path d="M67.6463 29.5841C66.8616 29.585 66.0944 29.3554 65.4415 28.9244C64.7887 28.4933 64.2796 27.8801 63.9787 27.1624C63.6778 26.4446 63.5985 25.6547 63.751 24.8923C63.9035 24.13 64.2809 23.4296 64.8354 22.8798C65.3899 22.3299 66.0966 21.9553 66.866 21.8034C67.6355 21.6514 68.4332 21.7289 69.1582 22.0261C69.8832 22.3233 70.5029 22.8268 70.9389 23.4729C71.3749 24.119 71.6076 24.8787 71.6076 25.6558C71.6076 26.6969 71.1904 27.6953 70.4477 28.4319C69.7049 29.1684 68.6973 29.5829 67.6463 29.5841V29.5841ZM67.6463 24.2261C67.3586 24.2261 67.0775 24.311 66.8388 24.4699C66.6 24.6288 66.4145 24.8545 66.3058 25.1183C66.197 25.382 66.17 25.6719 66.2283 25.9509C66.2865 26.2299 66.4273 26.4854 66.6327 26.6848C66.8381 26.8842 67.0988 27.0186 67.3815 27.0707C67.6643 27.1229 67.9564 27.0904 68.2204 26.9775C68.4845 26.8646 68.7087 26.6764 68.8644 26.4368C69.02 26.1973 69.1001 25.9172 69.0945 25.6324C69.0871 25.2568 68.9312 24.8992 68.6604 24.6362C68.3896 24.3733 68.0255 24.226 67.6463 24.2261V24.2261Z" fill="#272A31"/>
<path d="M69.4968 47.1721C68.7133 47.1721 67.9474 46.942 67.296 46.5109C66.6445 46.0798 66.1368 45.467 65.8369 44.75C65.5371 44.0331 65.4587 43.2442 65.6115 42.4831C65.7644 41.722 66.1417 41.0229 66.6957 40.4741C67.2497 39.9254 67.9555 39.5517 68.7239 39.4003C69.4924 39.249 70.2889 39.3266 71.0127 39.6236C71.7366 39.9206 72.3553 40.4235 72.7905 41.0687C73.2258 41.7139 73.4582 42.4725 73.4582 43.2485C73.4569 44.2888 73.0391 45.286 72.2965 46.0216C71.5539 46.7571 70.547 47.1709 69.4968 47.1721V47.1721ZM69.4968 41.8188C69.208 41.8132 68.9241 41.8933 68.6817 42.0488C68.4392 42.2043 68.2492 42.428 68.1361 42.6912C68.023 42.9544 67.9919 43.2451 68.0469 43.526C68.1019 43.8068 68.2404 44.065 68.4446 44.2673C68.6488 44.4696 68.9095 44.6067 69.193 44.6612C69.4766 44.7156 69.7701 44.6849 70.0358 44.5728C70.3016 44.4608 70.5275 44.2726 70.6844 44.0324C70.8414 43.7923 70.9222 43.5111 70.9166 43.2251C70.9094 42.8544 70.7574 42.5009 70.4927 42.2387C70.228 41.9765 69.8711 41.826 69.4968 41.8188Z" fill="#272A31"/>
<path d="M61.5315 63.1853C60.7482 63.1844 59.9828 62.9535 59.3319 62.5218C58.6811 62.0901 58.1741 61.477 57.875 60.76C57.5759 60.043 57.4981 59.2542 57.6515 58.4934C57.8049 57.7326 58.1826 57.0339 58.7368 56.4857C59.291 55.9374 59.9968 55.5642 60.7651 55.4132C61.5334 55.2622 62.3297 55.3401 63.0532 55.6372C63.7768 55.9344 64.3952 56.4373 64.8303 57.0824C65.2654 57.7275 65.4976 58.4859 65.4976 59.2617C65.4963 60.3028 65.0779 61.3007 64.3343 62.0364C63.5906 62.7721 62.5825 63.1853 61.5315 63.1853V63.1853ZM61.5315 57.8273C61.245 57.8273 60.965 57.9114 60.7269 58.069C60.4887 58.2267 60.3031 58.4507 60.1935 58.7128C60.0839 58.9749 60.0552 59.2633 60.1111 59.5416C60.1669 59.8198 60.3049 60.0754 60.5074 60.276C60.7099 60.4766 60.968 60.6133 61.2489 60.6686C61.5299 60.724 61.8211 60.6955 62.0857 60.587C62.3503 60.4784 62.5765 60.2946 62.7356 60.0587C62.8948 59.8228 62.9797 59.5454 62.9797 59.2617C62.9797 58.8813 62.8271 58.5164 62.5555 58.2474C62.2839 57.9784 61.9156 57.8273 61.5315 57.8273Z" fill="#272A31"/>
<path d="M40.1344 73.6295C40.1344 73.9781 40.03 74.3189 39.8345 74.6087C39.639 74.8986 39.361 75.1245 39.0359 75.2579C38.7107 75.3913 38.3529 75.4262 38.0077 75.3582C37.6625 75.2902 37.3454 75.1223 37.0965 74.8758C36.8477 74.6293 36.6782 74.3153 36.6095 73.9734C36.5408 73.6315 36.5761 73.2771 36.7108 72.955C36.8455 72.6329 37.0736 72.3577 37.3662 72.164C37.6588 71.9703 38.0029 71.8669 38.3549 71.8669C38.8268 71.8669 39.2795 72.0526 39.6132 72.3832C39.9469 72.7137 40.1344 73.162 40.1344 73.6295V73.6295Z" fill="#272A31"/>
<path d="M38.3548 76.8547C37.7141 76.8556 37.0876 76.6682 36.5545 76.3162C36.0214 75.9643 35.6057 75.4636 35.3601 74.8775C35.1145 74.2914 35.05 73.6463 35.1748 73.0239C35.2995 72.4015 35.6079 71.8297 36.061 71.381C36.514 70.9323 37.0912 70.6268 37.7197 70.5033C38.3481 70.3797 38.9994 70.4436 39.5911 70.6869C40.1828 70.9301 40.6883 71.3418 41.0437 71.8698C41.399 72.3978 41.5882 73.0184 41.5873 73.653C41.5873 74.5021 41.2467 75.3165 40.6405 75.9169C40.0343 76.5173 39.2121 76.8547 38.3548 76.8547V76.8547ZM38.3548 73.3295C38.2902 73.3295 38.2271 73.3485 38.1733 73.384C38.1196 73.4196 38.0778 73.4701 38.0531 73.5292C38.0284 73.5883 38.0219 73.6533 38.0345 73.7161C38.0471 73.7788 38.0782 73.8364 38.1239 73.8817C38.1695 73.9269 38.2277 73.9577 38.2911 73.9702C38.3544 73.9827 38.4201 73.9763 38.4797 73.9518C38.5394 73.9273 38.5904 73.8859 38.6263 73.8327C38.6622 73.7795 38.6813 73.7169 38.6813 73.653C38.6846 73.6086 38.6786 73.564 38.6636 73.522C38.6487 73.48 38.6251 73.4415 38.5945 73.4089C38.5638 73.3764 38.5267 73.3504 38.4855 73.3327C38.4442 73.315 38.3997 73.306 38.3548 73.3061V73.3295Z" fill="#272A31"/>
<path d="M40.1344 3.20178C40.1344 3.55038 40.03 3.89116 39.8345 4.18101C39.639 4.47087 39.361 4.69678 39.0359 4.83018C38.7107 4.96359 38.3529 4.99849 38.0077 4.93049C37.6625 4.86248 37.3454 4.69461 37.0965 4.44811C36.8477 4.20161 36.6782 3.88755 36.6095 3.54564C36.5408 3.20374 36.5761 2.84934 36.7108 2.52727C36.8455 2.20521 37.0736 1.92993 37.3662 1.73626C37.6588 1.54258 38.0029 1.43921 38.3549 1.43921C38.8268 1.43921 39.2795 1.62491 39.6132 1.95545C39.9469 2.286 40.1344 2.73432 40.1344 3.20178V3.20178Z" fill="#272A31"/>
<path d="M38.3548 6.40812C37.7143 6.40905 37.088 6.22179 36.555 5.87003C36.022 5.51827 35.6063 5.01783 35.3606 4.43202C35.1148 3.84621 35.05 3.20137 35.1744 2.57908C35.2988 1.9568 35.6067 1.38504 36.0593 0.936149C36.5118 0.48726 37.0887 0.181415 37.7167 0.0573161C38.3448 -0.0667832 38.996 -0.00355991 39.5878 0.238985C40.1796 0.48153 40.6855 0.892497 41.0414 1.41988C41.3973 1.94727 41.5873 2.56738 41.5873 3.20174C41.5873 4.05131 41.2469 4.86616 40.6408 5.46734C40.0347 6.06852 39.2125 6.40688 38.3548 6.40812V6.40812ZM38.3548 2.87829C38.2902 2.87829 38.2271 2.89726 38.1734 2.9328C38.1196 2.96834 38.0778 3.01886 38.0531 3.07796C38.0284 3.13706 38.0219 3.2021 38.0345 3.26484C38.0471 3.32759 38.0782 3.38522 38.1239 3.43045C38.1695 3.47569 38.2277 3.50649 38.2911 3.51898C38.3544 3.53146 38.4201 3.52505 38.4798 3.50057C38.5394 3.47609 38.5904 3.43463 38.6263 3.38144C38.6622 3.32825 38.6813 3.26571 38.6813 3.20174C38.6813 3.11595 38.6469 3.03368 38.5857 2.97303C38.5245 2.91237 38.4414 2.87829 38.3548 2.87829V2.87829Z" fill="#272A31"/>
</g>
<defs>
<clipPath id="clip0_106_5378">
<rect width="217" height="77" fill="white"/>
</clipPath>
</defs>
</svg>
