<svg width="248" height="47" viewBox="0 0 248 47" fill="none" xmlns="http://www.w3.org/2000/svg">
<path d="M19.0257 28.877C19.1048 28.8781 19.1832 28.8926 19.2575 28.9197C19.3401 28.954 19.4149 29.0049 19.4771 29.0692L20.7703 30.4295C20.2147 31.1622 19.4793 31.739 18.6353 32.1039C17.678 32.5 16.6486 32.6921 15.6128 32.6681C14.6289 32.6839 13.6522 32.4981 12.7428 32.1222C11.927 31.7801 11.1938 31.2674 10.5925 30.6186C9.99277 29.9589 9.53219 29.185 9.23836 28.3433C8.91521 27.4245 8.75522 26.4563 8.76561 25.4824C8.75471 24.4936 8.93813 23.5122 9.30546 22.5941C9.65267 21.7411 10.1718 20.9686 10.8304 20.3249C11.4937 19.6769 12.2825 19.1714 13.1484 18.8396C14.0975 18.4773 15.1063 18.2973 16.1221 18.3089C16.6227 18.3058 17.1223 18.3528 17.6136 18.4492C18.0568 18.536 18.4908 18.6647 18.9098 18.8335C19.3021 18.9909 19.6771 19.1881 20.0291 19.4221C20.3609 19.64 20.6678 19.8936 20.9441 20.1785L19.8461 21.6638C19.7718 21.7559 19.6868 21.8388 19.593 21.9109C19.4746 21.991 19.333 22.0296 19.1904 22.0207C19.0761 22.0216 18.9633 21.9954 18.861 21.9444C18.7573 21.8926 18.6506 21.8285 18.5347 21.7553L18.1534 21.5144C17.9965 21.4191 17.8311 21.3384 17.6593 21.2734C17.4434 21.1918 17.221 21.1285 16.9944 21.0843C16.7008 21.0294 16.4025 21.0038 16.1038 21.0081C15.5488 20.9976 14.9975 21.1014 14.4843 21.3131C14.0028 21.5144 13.5725 21.8208 13.2247 22.2098C12.861 22.622 12.5822 23.1018 12.4042 23.6219C12.1974 24.2202 12.0943 24.8494 12.0992 25.4824C12.0922 26.1345 12.1953 26.7831 12.4042 27.4008C12.578 27.9198 12.8503 28.4004 13.2064 28.816C13.5306 29.1903 13.9337 29.4882 14.3867 29.6883C14.8419 29.8901 15.3345 29.994 15.8324 29.9933C16.1034 29.9942 16.3743 29.9799 16.6437 29.9506C16.8748 29.9234 17.1026 29.8733 17.3238 29.8012C17.536 29.7294 17.7404 29.6364 17.9338 29.5236C18.1378 29.4029 18.3298 29.263 18.5072 29.1058C18.5837 29.0427 18.6677 28.9895 18.7573 28.9472C18.8407 28.9047 18.9322 28.8808 19.0257 28.877Z" fill="#272A31"/>
<path d="M31.6983 28.877C31.7765 28.8778 31.8539 28.8923 31.9271 28.9197C32.0111 28.9531 32.087 29.0041 32.1497 29.0691L33.4429 30.4294C32.8867 31.1614 32.1515 31.7381 31.3079 32.1038C30.3495 32.4999 29.3191 32.6921 28.2824 32.6681C27.2995 32.6839 26.3237 32.4981 25.4154 32.1221C24.6051 31.7781 23.8773 31.2656 23.2804 30.6185C22.6808 29.9582 22.2193 29.1846 21.9232 28.3432C21.6015 27.4241 21.4416 26.4561 21.4505 25.4823C21.439 24.4932 21.6235 23.5115 21.9933 22.594C22.3319 21.7445 22.8392 20.9726 23.4848 20.3248C24.1492 19.6768 24.939 19.1713 25.8058 18.8395C26.7596 18.4753 27.7739 18.2953 28.7948 18.3088C29.2943 18.3057 29.793 18.3527 30.2832 18.4491C30.7306 18.535 31.1688 18.6636 31.5916 18.8334C31.9839 18.9908 32.3589 19.1881 32.7109 19.4221C33.0415 19.6415 33.3482 19.895 33.6259 20.1784L32.5157 21.6638C32.4433 21.7565 32.3592 21.8395 32.2656 21.9108C32.1459 21.9905 32.0035 22.0291 31.86 22.0206C31.7467 22.0218 31.6347 21.9957 31.5336 21.9444C31.4299 21.8925 31.3201 21.8285 31.2042 21.7553C31.0884 21.6821 30.9633 21.5997 30.823 21.5143C30.6671 21.419 30.5028 21.3383 30.332 21.2734C30.1159 21.1921 29.8935 21.1288 29.6671 21.0843C29.3724 21.0293 29.0731 21.0038 28.7734 21.008C28.2184 20.9978 27.6672 21.1016 27.1539 21.313C26.6738 21.5152 26.2446 21.8214 25.8973 22.2097C25.5325 22.6211 25.2536 23.1012 25.0769 23.6219C24.8701 24.2202 24.7669 24.8493 24.7719 25.4823C24.7649 26.1344 24.868 26.783 25.0769 27.4008C25.2495 27.9196 25.5209 28.4001 25.876 28.816C26.2022 29.1895 26.606 29.4872 27.0593 29.6882C27.5144 29.8906 28.007 29.9945 28.505 29.9932C28.776 29.994 29.0469 29.9798 29.3163 29.9505C29.5465 29.9236 29.7733 29.8736 29.9934 29.8011C30.2058 29.73 30.4102 29.637 30.6034 29.5235C30.8084 29.4029 31.0014 29.263 31.1799 29.1057C31.2558 29.042 31.3399 28.9887 31.4299 28.9471C31.5132 28.9044 31.6048 28.8805 31.6983 28.877Z" fill="#272A31"/>
<path d="M21.0997 46.9999C15.5057 46.9934 10.1426 44.7684 6.18708 40.8128C2.23153 36.8572 0.00645773 31.4942 0 25.9002C0.00645773 20.3062 2.23153 14.9432 6.18708 10.9876C10.1426 7.03206 15.5057 4.80699 21.0997 4.80054C26.6931 4.8078 32.0554 7.03323 36.0103 10.9887C39.9652 14.9442 42.1899 20.3067 42.1963 25.9002C42.1899 31.4937 39.9652 36.8563 36.0103 40.8117C32.0554 44.7672 26.6931 46.9926 21.0997 46.9999V46.9999ZM21.0997 7.24051C16.1526 7.24616 11.4097 9.2139 7.91152 12.7121C4.41337 16.2102 2.44562 20.9531 2.43997 25.9002C2.44562 30.8473 4.41337 35.5902 7.91152 39.0884C11.4097 42.5865 16.1526 44.5543 21.0997 44.5599C26.0463 44.5535 30.7884 42.5854 34.2859 39.0873C37.7834 35.5892 39.7507 30.8468 39.7563 25.9002C39.7507 20.9536 37.7834 16.2112 34.2859 12.7131C30.7884 9.21507 26.0463 7.24697 21.0997 7.24051Z" fill="#272A31"/>
<path d="M57.2478 10.62C57.151 10.7485 57.0382 10.8643 56.9123 10.9646C56.7703 11.0567 56.6024 11.1006 56.4335 11.0897C56.2271 11.0865 56.0259 11.024 55.854 10.9097C55.6679 10.7877 55.4422 10.6535 55.183 10.501C54.886 10.3354 54.5734 10.1995 54.2497 10.0954C53.816 9.96385 53.3639 9.90308 52.9108 9.91542C52.2961 9.90166 51.6862 10.0268 51.1265 10.2814C50.6194 10.5227 50.1802 10.8864 49.8486 11.3398C49.4907 11.8419 49.2328 12.4084 49.0892 13.0081C48.9134 13.7338 48.8294 14.4788 48.8391 15.2254C48.8286 15.9957 48.921 16.764 49.1136 17.5098C49.2669 18.1164 49.535 18.6879 49.9035 19.1934C50.2317 19.6343 50.6618 19.9891 51.157 20.2274C51.6763 20.469 52.2436 20.59 52.8162 20.5812C53.3253 20.5986 53.8331 20.521 54.3138 20.3524C54.6528 20.2246 54.9754 20.0567 55.2745 19.8522C55.5368 19.6692 55.7625 19.5015 55.9577 19.352C56.1411 19.2027 56.3708 19.1218 56.6073 19.1233C56.7461 19.1157 56.8844 19.145 57.0081 19.2082C57.1319 19.2715 57.2367 19.3663 57.3119 19.4832L58.4251 20.8923C58.0195 21.374 57.5506 21.7987 57.0313 22.1549C56.5446 22.4851 56.0217 22.7583 55.4728 22.9693C54.9361 23.1731 54.3787 23.3173 53.8105 23.3993C53.2481 23.4833 52.6803 23.5251 52.1117 23.5244C51.1495 23.5298 50.1962 23.341 49.3088 22.9693C48.4339 22.5994 47.6487 22.0461 47.006 21.3467C46.3181 20.5899 45.7882 19.7033 45.4475 18.739C45.0502 17.611 44.857 16.4212 44.8772 15.2254C44.8657 14.111 45.0378 13.0022 45.3865 11.9437C45.7001 10.9782 46.2088 10.0875 46.881 9.32678C47.5578 8.57857 48.3908 7.98821 49.321 7.59745C50.3846 7.16094 51.5264 6.94711 52.6759 6.96916C53.7565 6.94736 54.8303 7.14448 55.8326 7.54865C56.7457 7.93984 57.5744 8.50433 58.2726 9.21088L57.2478 10.62Z" fill="#272A31"/>
<path d="M63.3265 10.0099C63.755 9.13815 64.363 8.3669 65.1107 7.74682C65.8035 7.19695 66.6663 6.90575 67.5507 6.92333C68.1827 6.89211 68.8084 7.06187 69.338 7.40827L69.0879 10.3057C69.055 10.4595 68.975 10.5991 68.8591 10.7053C68.744 10.7906 68.6026 10.8327 68.4596 10.8242C68.2261 10.8154 67.9936 10.7888 67.7642 10.7449C67.4619 10.6928 67.1559 10.6663 66.8492 10.6656C66.4607 10.6595 66.0743 10.7236 65.7085 10.8547C65.3728 10.9766 65.0625 11.1597 64.7935 11.3946C64.5171 11.6423 64.2796 11.9302 64.089 12.2486C63.8692 12.6143 63.6785 12.9967 63.5186 13.3923V23.2895H59.6757V7.21917H61.9479C62.2409 7.19045 62.5347 7.26605 62.7775 7.43267C62.9621 7.64406 63.0696 7.91177 63.0825 8.19211L63.3265 10.0099Z" fill="#272A31"/>
<path d="M72.7235 15.741C72.7648 16.4703 72.9127 17.1896 73.1627 17.876C73.3646 18.4285 73.6758 18.9347 74.0777 19.3643C74.4529 19.754 74.9118 20.0533 75.4196 20.2397C75.9676 20.445 76.5485 20.5483 77.1337 20.5447C77.6817 20.5555 78.228 20.4815 78.7532 20.3251C79.1644 20.1993 79.5635 20.037 79.9458 19.8401C80.2843 19.6632 80.5802 19.5016 80.8364 19.3552C81.0608 19.2178 81.3175 19.142 81.5806 19.1356C81.7216 19.1269 81.8625 19.1555 81.9889 19.2187C82.1153 19.2819 82.2227 19.3774 82.3004 19.4955L83.4136 20.9046C82.9997 21.3952 82.5144 21.8209 81.974 22.1673C81.4506 22.501 80.8909 22.7742 80.3057 22.9816C79.7311 23.1846 79.1374 23.3287 78.5337 23.4117C77.9558 23.4946 77.3728 23.5364 76.7891 23.5367C75.7247 23.5459 74.6678 23.3577 73.672 22.9816C72.7276 22.6207 71.8724 22.0599 71.1649 21.3377C70.4264 20.5644 69.8563 19.6463 69.4905 18.6415C69.0618 17.4498 68.8551 16.1897 68.8805 14.9236C68.8729 13.8694 69.0526 12.8223 69.4112 11.8309C69.7457 10.8966 70.2642 10.0389 70.9362 9.3086C71.6218 8.57794 72.453 7.9992 73.3762 7.60976C74.3984 7.17786 75.4995 6.96388 76.6091 6.98147C77.5654 6.9709 78.5156 7.13632 79.412 7.46947C80.2423 7.77677 80.9965 8.25946 81.6233 8.88465C82.2583 9.53889 82.7505 10.3178 83.069 11.1721C83.4245 12.1592 83.5941 13.2037 83.5692 14.2526C83.6023 14.6565 83.5375 15.0625 83.3801 15.436C83.2977 15.5458 83.1877 15.6319 83.0613 15.6855C82.9348 15.7391 82.7965 15.7582 82.6603 15.741H72.7235ZM80.1013 13.4078C80.1032 12.9269 80.0312 12.4485 79.8878 11.9895C79.7569 11.5624 79.5411 11.1662 79.2534 10.8244C78.9607 10.4817 78.5935 10.2104 78.1799 10.0314C77.7036 9.82481 77.1892 9.72088 76.6701 9.72644C75.5538 9.72644 74.6724 10.0467 74.0319 10.6811C73.3914 11.3155 72.9797 12.2244 72.8119 13.3925L80.1013 13.4078Z" fill="#272A31"/>
<path d="M84.9386 9.46415C86.7503 7.78564 89.1427 6.87588 91.6119 6.92657C92.4749 6.91205 93.3321 7.06858 94.1343 7.38712C94.8452 7.67577 95.4859 8.11364 96.013 8.67115C96.5343 9.23846 96.9312 9.90856 97.1781 10.6384C97.4527 11.4453 97.5878 12.2931 97.5777 13.1455V23.2927H95.8239C95.533 23.3083 95.2428 23.2517 94.9791 23.128C94.745 22.9727 94.5775 22.7356 94.5094 22.4631L94.1647 21.3041C93.7853 21.6459 93.3883 21.9676 92.9753 22.2679C92.5934 22.5408 92.1846 22.7738 91.7553 22.9633C91.326 23.1558 90.877 23.301 90.4163 23.3964C89.898 23.498 89.3707 23.5471 88.8426 23.5428C88.2059 23.5492 87.572 23.4566 86.9638 23.2683C86.4154 23.1028 85.9081 22.8232 85.4754 22.4479C85.0518 22.0738 84.72 21.6073 84.5055 21.0845C84.2637 20.483 84.1464 19.8387 84.1609 19.1905C84.1611 18.7756 84.2291 18.3635 84.3622 17.9705C84.5109 17.5479 84.7375 17.1569 85.0301 16.8176C85.3776 16.4181 85.7802 16.0699 86.2257 15.7837C86.791 15.4259 87.3999 15.1419 88.0374 14.9388C88.8521 14.6739 89.6877 14.478 90.5353 14.3532C91.6138 14.1895 92.702 14.0978 93.7927 14.0787V13.1394C93.7927 12.0627 93.5609 11.2667 93.1034 10.7482C92.8484 10.4819 92.5383 10.2746 92.1948 10.1407C91.8513 10.0069 91.4827 9.94984 91.1148 9.97349C90.5866 9.95868 90.0598 10.0329 89.5563 10.1931C89.1827 10.3224 88.8222 10.4868 88.4796 10.6841L87.6256 11.1782C87.3655 11.3259 87.0707 11.4016 86.7716 11.3978C86.5247 11.4042 86.2824 11.3292 86.0823 11.1843C85.9003 11.0506 85.746 10.8828 85.6279 10.6902L84.9386 9.46415ZM93.8049 16.4333C92.8591 16.4674 91.9166 16.5642 90.9836 16.7231C90.353 16.8235 89.7379 17.005 89.1537 17.2629C88.7622 17.4274 88.4213 17.6926 88.1655 18.0315C87.9682 18.3109 87.8617 18.6442 87.8605 18.9861C87.8605 19.6663 88.0587 20.1512 88.4705 20.444C88.9355 20.7526 89.4867 20.9053 90.0442 20.8802C90.757 20.8965 91.4638 20.7472 92.1091 20.444C92.748 20.1113 93.3231 19.6683 93.8079 19.1356L93.8049 16.4333Z" fill="#272A31"/>
<path d="M116.265 23.2896H112.394V10.1168H104.94V18.8275C104.915 19.2504 105.046 19.6678 105.306 20.0017C105.433 20.1426 105.59 20.2535 105.765 20.3263C105.94 20.3991 106.129 20.432 106.319 20.4226C106.526 20.4293 106.732 20.4005 106.929 20.3372C107.074 20.2876 107.216 20.2275 107.353 20.1573C107.472 20.0963 107.578 20.0353 107.673 19.9773C107.758 19.9228 107.856 19.8932 107.957 19.8919C108.057 19.8874 108.156 19.9175 108.237 19.9773C108.327 20.0524 108.406 20.1397 108.472 20.2366L109.631 22.1153C109.058 22.5913 108.398 22.9527 107.688 23.1798C106.956 23.4207 106.19 23.5422 105.419 23.5397C104.018 23.5397 102.946 23.1462 102.201 22.3593C101.457 21.5724 101.083 20.4836 101.079 19.0928V10.1168H99.429C99.2326 10.1214 99.0422 10.0492 98.8983 9.91546C98.8209 9.83488 98.7614 9.73893 98.7236 9.63384C98.6857 9.52874 98.6704 9.41686 98.6787 9.30547V7.78049L101.259 7.32909L102.073 2.96154C102.115 2.7693 102.223 2.59779 102.378 2.47659C102.541 2.35527 102.74 2.29386 102.943 2.30275H104.946V7.36264H116.265V23.2896ZM116.936 2.47659C116.937 2.80255 116.869 3.12504 116.734 3.42208C116.604 3.71235 116.42 3.97524 116.192 4.19677C115.962 4.42089 115.692 4.59896 115.396 4.72137C115.086 4.85334 114.753 4.92081 114.417 4.91962C114.092 4.92135 113.771 4.85376 113.474 4.72137C113.189 4.59548 112.929 4.41759 112.709 4.19677C112.486 3.97441 112.308 3.71144 112.184 3.42208C112.053 3.12417 111.987 2.80198 111.989 2.47659C111.985 2.14518 112.052 1.81677 112.184 1.5128C112.31 1.2219 112.488 0.956312 112.709 0.728961C112.928 0.504366 113.188 0.323268 113.474 0.195217C113.771 0.0651904 114.092 -0.00129714 114.417 1.91695e-05C114.753 -0.000709964 115.085 0.0656523 115.396 0.195217C115.693 0.319808 115.963 0.501092 116.192 0.728961C116.418 0.955576 116.602 1.22108 116.734 1.5128C116.87 1.81588 116.939 2.1446 116.936 2.47659V2.47659Z" fill="#272A31"/>
<path d="M133.54 7.21935L127.165 23.2896H123.655L117.28 7.21935H120.474C120.732 7.21071 120.987 7.28208 121.203 7.4237C121.386 7.54719 121.521 7.73044 121.584 7.94219L124.686 16.5248C124.852 17.025 124.999 17.516 125.125 17.9979C125.25 18.4768 125.36 18.9556 125.454 19.4375C125.558 18.9556 125.674 18.4768 125.799 17.9979C125.924 17.5191 126.077 17.025 126.253 16.5248L129.419 7.93914C129.493 7.73008 129.629 7.54892 129.81 7.42065C130.007 7.28294 130.243 7.2114 130.484 7.2163L133.54 7.21935Z" fill="#272A31"/>
<path d="M136.529 15.7409C136.573 16.4699 136.721 17.1887 136.968 17.8759C137.17 18.4284 137.481 18.9346 137.883 19.3643C138.257 19.7539 138.715 20.0532 139.222 20.2397C139.77 20.4444 140.351 20.5478 140.936 20.5446C141.485 20.5557 142.032 20.4817 142.559 20.3251C142.969 20.1998 143.367 20.0375 143.748 19.8401C144.087 19.6632 144.385 19.5016 144.642 19.3552C144.866 19.2177 145.123 19.142 145.386 19.1356C145.527 19.1268 145.668 19.1555 145.794 19.2187C145.921 19.2819 146.028 19.3774 146.106 19.4955L147.219 20.9045C146.804 21.3954 146.318 21.8211 145.776 22.1672C145.253 22.5016 144.693 22.7748 144.108 22.9816C143.534 23.1846 142.942 23.3287 142.339 23.4116C141.76 23.4944 141.176 23.5362 140.591 23.5367C139.527 23.5456 138.47 23.3574 137.474 22.9816C136.531 22.6203 135.677 22.0595 134.97 21.3376C134.231 20.5645 133.66 19.6465 133.293 18.6415C132.866 17.4494 132.659 16.1896 132.683 14.9236C132.675 13.8691 132.856 12.8217 133.217 11.8309C133.551 10.8965 134.069 10.0388 134.741 9.30857C135.428 8.57859 136.259 7.99996 137.181 7.60973C138.205 7.1781 139.307 6.96414 140.417 6.98144C141.374 6.97107 142.324 7.13649 143.22 7.46944C144.05 7.776 144.803 8.25882 145.429 8.88462C146.065 9.53869 146.558 10.3176 146.877 11.1721C147.243 12.1615 147.421 13.2102 147.402 14.2648C147.436 14.6684 147.372 15.0743 147.216 15.4482C147.133 15.5583 147.022 15.6445 146.896 15.698C146.769 15.7516 146.63 15.7706 146.493 15.7531L136.529 15.7409ZM143.907 13.4077C143.91 12.927 143.839 12.4487 143.696 11.9895C143.564 11.5629 143.348 11.1669 143.062 10.8244C142.768 10.4824 142.401 10.2113 141.988 10.0314C141.507 9.82275 140.987 9.71879 140.463 9.72641C139.347 9.72641 138.469 10.0467 137.825 10.6811C137.136 11.4292 136.708 12.3805 136.605 13.3925L143.907 13.4077Z" fill="#272A31"/>
<path d="M57.2479 30.4325C57.151 30.561 57.0383 30.6768 56.9124 30.7771C56.7704 30.8692 56.6024 30.9131 56.4335 30.9022C56.2271 30.899 56.026 30.8365 55.854 30.7222C55.668 30.6002 55.4423 30.466 55.183 30.3135C54.8864 30.1447 54.5738 30.0058 54.2498 29.8987C53.816 29.7672 53.3639 29.7064 52.9108 29.7188C52.2961 29.705 51.6862 29.8301 51.1266 30.0848C50.6194 30.3261 50.1802 30.6898 49.8487 31.1431C49.495 31.6492 49.2423 32.2188 49.1045 32.8206C48.9288 33.5453 48.8448 34.2892 48.8544 35.0349C48.8438 35.8062 48.9361 36.5754 49.1289 37.3223C49.2822 37.9289 49.5503 38.5004 49.9188 39.0059C50.247 39.4468 50.6771 39.8016 51.1723 40.0399C51.6916 40.2815 52.2588 40.4025 52.8315 40.3937C53.3406 40.4111 53.8484 40.3335 54.3291 40.1649C54.6631 40.0341 54.9805 39.8642 55.2745 39.6586C55.5368 39.4756 55.7625 39.3079 55.9577 39.1554C56.1422 39.0082 56.3714 38.9286 56.6074 38.9297C56.7462 38.9215 56.8847 38.9505 57.0086 39.0138C57.1325 39.0771 57.2372 39.1723 57.3119 39.2896L58.4252 40.6987C58.02 41.1815 57.5523 41.6082 57.0344 41.9675C56.5477 42.2976 56.0248 42.5708 55.4758 42.7818C54.9383 42.9827 54.3812 43.1268 53.8136 43.2118C53.2511 43.2943 52.6833 43.3361 52.1148 43.3369C51.1526 43.3424 50.1993 43.1536 49.3119 42.7818C48.437 42.4119 47.6518 41.8586 47.0091 41.1592C46.3203 40.402 45.7885 39.5156 45.4445 38.5515C45.0468 37.4225 44.8537 36.2317 44.8742 35.0349C44.863 33.9214 45.035 32.8137 45.3835 31.7562C45.6965 30.7904 46.2052 29.8996 46.878 29.1393C47.554 28.3902 48.3872 27.7997 49.318 27.41C50.3816 26.9734 51.5234 26.7596 52.6729 26.7817C53.7535 26.7599 54.8273 26.957 55.8296 27.3612C56.742 27.7523 57.5704 28.3157 58.2696 29.0203L57.2479 30.4325Z" fill="#272A31"/>
<path d="M66.5046 26.7818C67.6152 26.7681 68.7184 26.9648 69.7559 27.3613C70.6979 27.7269 71.5522 28.287 72.2629 29.0053C72.9768 29.7484 73.5238 30.6354 73.8672 31.6069C74.2519 32.7081 74.4388 33.8687 74.4193 35.035C74.4359 36.2081 74.2449 37.3749 73.855 38.4815C73.5087 39.4562 72.9623 40.3476 72.2507 41.0984C71.544 41.8252 70.6889 42.3911 69.7437 42.7576C68.7066 43.1556 67.6031 43.3523 66.4924 43.3371C65.3747 43.3524 64.2642 43.1558 63.2198 42.7576C62.2718 42.393 61.4144 41.8269 60.7066 41.0984C59.9932 40.3473 59.4438 39.4562 59.0932 38.4815C58.6983 37.3761 58.5051 36.2087 58.5228 35.035C58.5063 33.8674 58.6995 32.7063 59.0932 31.6069C59.441 30.6354 59.9909 29.7487 60.7066 29.0053C61.4186 28.2856 62.2752 27.7253 63.2198 27.3613C64.2685 26.9632 65.383 26.7666 66.5046 26.7818V26.7818ZM66.5046 40.3603C67.8425 40.3603 68.8327 39.9119 69.4753 39.0152C70.1178 38.1186 70.4381 36.8081 70.436 35.0838C70.436 33.3494 70.1158 32.0278 69.4753 31.1189C68.8348 30.21 67.8446 29.7566 66.5046 29.7586C65.1464 29.7586 64.1419 30.2151 63.4912 31.128C62.8406 32.041 62.5183 33.3596 62.5244 35.0838C62.5244 36.804 62.8507 38.1165 63.5034 39.0213C64.1561 39.9262 65.1565 40.3725 66.5046 40.3603V40.3603Z" fill="#272A31"/>
<path d="M76.2308 43.1022V27.0319H78.5976C78.8182 27.0161 79.0374 27.0778 79.2173 27.2065C79.3972 27.3351 79.5264 27.5226 79.5827 27.7365L79.8328 28.929C80.1084 28.6222 80.4039 28.3339 80.7173 28.0658C81.0228 27.8079 81.3539 27.582 81.7055 27.3918C82.064 27.202 82.4425 27.0526 82.834 26.9465C83.2659 26.8329 83.7111 26.7775 84.1577 26.7818C85.0625 26.7456 85.9498 27.0381 86.6556 27.6053C87.3323 28.1872 87.8383 28.942 88.1196 29.7891C88.3522 29.2823 88.6699 28.8191 89.059 28.4196C89.4218 28.0473 89.8394 27.7326 90.2973 27.4864C90.7474 27.2445 91.2288 27.0659 91.7277 26.9557C92.2279 26.8407 92.7395 26.7824 93.2527 26.7818C94.0603 26.7681 94.8633 26.9067 95.6195 27.1905C96.2842 27.4452 96.8798 27.8526 97.358 28.38C97.8455 28.9337 98.2104 29.5844 98.4285 30.2893C98.6876 31.1265 98.8121 31.9994 98.7975 32.8756V43.1022H94.9332V32.8756C94.9332 31.8509 94.7075 31.0823 94.2592 30.5638C94.0081 30.2966 93.7009 30.0886 93.3596 29.9546C93.0184 29.8206 92.6516 29.7641 92.2859 29.7891C91.9081 29.785 91.5331 29.8544 91.1818 29.9934C90.8437 30.1243 90.5363 30.3237 90.279 30.579C90.0095 30.8533 89.8015 31.1818 89.669 31.5428C89.5156 31.9701 89.4412 32.4217 89.4494 32.8756V43.1022H85.582V32.8756C85.582 31.798 85.3655 31.0142 84.9324 30.5241C84.6881 30.27 84.3911 30.0725 84.0623 29.9455C83.7335 29.8185 83.3809 29.7651 83.0292 29.7891C82.4773 29.7868 81.9345 29.9299 81.4554 30.2039C80.9432 30.5029 80.4853 30.8865 80.1012 31.3385V43.1022H76.2308Z" fill="#272A31"/>
<path d="M101.308 43.1022V27.0319H103.671C103.892 27.0165 104.112 27.0784 104.292 27.2069C104.472 27.3355 104.602 27.5226 104.66 27.7365L104.91 28.929C105.185 28.6215 105.48 28.3331 105.794 28.0658C106.099 27.8086 106.429 27.5828 106.779 27.3918C107.138 27.202 107.516 27.0526 107.908 26.9465C108.34 26.833 108.785 26.7777 109.232 26.7818C110.136 26.7456 111.024 27.0381 111.729 27.6053C112.406 28.1872 112.912 28.942 113.193 29.7891C113.426 29.2823 113.744 28.8191 114.133 28.4196C114.497 28.0487 114.914 27.7341 115.371 27.4864C115.822 27.2445 116.305 27.0659 116.805 26.9557C117.305 26.8406 117.816 26.7822 118.33 26.7818C119.136 26.768 119.938 26.9066 120.693 27.1905C121.358 27.4452 121.954 27.8526 122.432 28.38C122.926 28.9327 123.298 29.5832 123.524 30.2893C123.78 31.127 123.904 31.9997 123.89 32.8756V43.1022H120.007V32.8756C120.007 31.8509 119.781 31.0823 119.333 30.5638C119.082 30.2966 118.775 30.0886 118.433 29.9546C118.092 29.8206 117.725 29.7641 117.36 29.7891C116.982 29.785 116.607 29.8544 116.256 29.9934C115.921 30.1262 115.617 30.3254 115.362 30.579C115.093 30.854 114.886 31.1824 114.752 31.5428C114.599 31.9701 114.524 32.4217 114.532 32.8756V43.1022H110.656V32.8756C110.656 31.798 110.439 31.0142 110.006 30.5241C109.762 30.27 109.465 30.0725 109.136 29.9455C108.807 29.8185 108.455 29.7651 108.103 29.7891C107.551 29.7868 107.008 29.9299 106.529 30.2039C106.018 30.5037 105.56 30.8872 105.175 31.3385V43.1022H101.308Z" fill="#272A31"/>
<path d="M133.491 26.7817C134.602 26.768 135.705 26.9646 136.742 27.3612C137.684 27.7267 138.539 28.2869 139.249 29.0051C139.963 29.7482 140.51 30.6352 140.854 31.6067C141.242 32.7072 141.433 33.8678 141.418 35.0349C141.434 36.208 141.243 37.3748 140.854 38.4814C140.507 39.456 139.961 40.3474 139.249 41.0982C138.543 41.8251 137.687 42.391 136.742 42.7574C135.705 43.1555 134.602 43.3522 133.491 43.3369C132.378 43.3503 131.273 43.1537 130.234 42.7574C129.286 42.3928 128.428 41.8267 127.72 41.0982C127.007 40.3472 126.458 39.456 126.107 38.4814C125.712 37.3759 125.519 36.2086 125.537 35.0349C125.52 33.8672 125.713 32.7061 126.107 31.6067C126.455 30.6352 127.005 29.7485 127.72 29.0051C128.432 28.2854 129.289 27.7251 130.234 27.3612C131.274 26.9665 132.379 26.7699 133.491 26.7817V26.7817ZM133.491 40.3601C134.829 40.3601 135.819 39.9118 136.462 39.0151C137.104 38.1184 137.424 36.8079 137.422 35.0837C137.422 33.3493 137.102 32.0276 136.462 31.1187C135.821 30.2098 134.831 29.7564 133.491 29.7584C132.133 29.7584 131.128 30.2149 130.478 31.1279C129.827 32.0408 129.501 33.3625 129.499 35.0928C129.499 36.813 129.825 38.1255 130.478 39.0303C131.13 39.9352 132.135 40.3784 133.491 40.3601V40.3601Z" fill="#272A31"/>
<path d="M146.49 29.0051C146.814 28.6842 147.157 28.3837 147.518 28.1054C147.873 27.8307 148.256 27.5945 148.662 27.4008C149.074 27.204 149.507 27.0517 149.952 26.9464C150.445 26.8329 150.949 26.7776 151.455 26.7817C152.255 26.7674 153.05 26.919 153.789 27.227C154.445 27.5082 155.027 27.9372 155.49 28.4805C155.96 29.0476 156.312 29.703 156.524 30.4081C156.766 31.2079 156.885 32.04 156.875 32.8755V43.1021H153.008V32.8755C153.008 31.8934 152.783 31.134 152.334 30.5972C151.885 30.0573 151.199 29.789 150.281 29.789C149.627 29.7861 148.983 29.9421 148.402 30.2434C147.788 30.5678 147.229 30.9856 146.743 31.4817V43.1021H142.873V27.0318H145.239C145.46 27.016 145.679 27.0777 145.859 27.2064C146.039 27.335 146.168 27.5225 146.225 27.7363L146.49 29.0051Z" fill="#272A31"/>
<path d="M169.185 30.1642C169.104 30.3028 168.993 30.4208 168.859 30.5088C168.724 30.5806 168.572 30.6153 168.419 30.6095C168.207 30.6051 167.998 30.5518 167.809 30.4539C167.596 30.3502 167.349 30.2313 167.065 30.1002C166.753 29.9599 166.431 29.8426 166.101 29.7494C165.686 29.6374 165.257 29.5841 164.826 29.5908C164.192 29.5553 163.562 29.7265 163.033 30.0788C162.83 30.2214 162.664 30.4115 162.551 30.6326C162.438 30.8537 162.38 31.0992 162.383 31.3476C162.376 31.6703 162.496 31.9829 162.719 32.2168C162.978 32.4724 163.28 32.679 163.613 32.8268C164.019 33.0203 164.44 33.1804 164.872 33.3057C165.342 33.446 165.82 33.6005 166.306 33.7693C166.791 33.934 167.269 34.1261 167.739 34.3396C168.198 34.5457 168.623 34.8202 168.999 35.154C169.372 35.4855 169.676 35.8877 169.892 36.3373C170.13 36.8573 170.245 37.425 170.228 37.9965C170.236 38.7289 170.095 39.4552 169.813 40.1315C169.541 40.7817 169.124 41.3608 168.593 41.8242C168.003 42.3245 167.318 42.702 166.58 42.9344C165.687 43.2159 164.754 43.3508 163.817 43.334C163.274 43.3354 162.731 43.2854 162.197 43.1845C161.678 43.09 161.168 42.9513 160.672 42.7697C160.207 42.607 159.757 42.4028 159.327 42.1597C158.939 41.9364 158.574 41.6737 158.239 41.3759L159.132 39.9027C159.234 39.7381 159.373 39.5992 159.538 39.4971C159.717 39.3975 159.919 39.348 160.123 39.3538C160.366 39.3544 160.603 39.4243 160.807 39.5551C161.02 39.6923 161.267 39.8387 161.551 39.9942C161.874 40.1723 162.213 40.3214 162.563 40.4395C163.031 40.5893 163.521 40.6584 164.012 40.6439C164.412 40.6525 164.81 40.5969 165.192 40.4792C165.488 40.3874 165.764 40.2416 166.007 40.0491C166.211 39.8872 166.372 39.6778 166.476 39.4392C166.576 39.209 166.627 38.9609 166.626 38.7102C166.636 38.3734 166.516 38.0456 166.29 37.7952C166.033 37.538 165.73 37.3312 165.397 37.1852C164.988 36.9908 164.563 36.8307 164.128 36.7064C163.652 36.5661 163.167 36.4116 162.673 36.2428C162.176 36.0777 161.689 35.8822 161.215 35.6572C160.751 35.4392 160.323 35.1511 159.946 34.8032C159.567 34.4441 159.263 34.0127 159.053 33.5344C158.814 32.9548 158.699 32.3312 158.717 31.7044C158.716 31.0579 158.849 30.4181 159.108 29.8257C159.373 29.2277 159.766 28.6955 160.261 28.2671C160.818 27.7947 161.461 27.4333 162.155 27.2027C163 26.9231 163.887 26.7881 164.778 26.8031C165.811 26.7896 166.837 26.976 167.8 27.3521C168.645 27.6772 169.418 28.1665 170.072 28.7917L169.185 30.1642Z" fill="#272A31"/>
<path d="M182.312 19.834V33.1623H183.032C183.24 33.1695 183.447 33.1353 183.642 33.0617C183.83 32.9636 183.992 32.82 184.111 32.6439L188.107 27.709C188.254 27.5048 188.443 27.3343 188.662 27.2088C188.906 27.0836 189.178 27.0237 189.452 27.035H192.993L187.997 33.0007C187.683 33.4314 187.29 33.798 186.838 34.0804C187.057 34.2358 187.254 34.4205 187.424 34.6294C187.602 34.8436 187.767 35.0687 187.918 35.3034L193.273 43.1022H189.781C189.512 43.1093 189.245 43.0583 188.997 42.9527C188.759 42.8363 188.566 42.6429 188.451 42.4037L184.346 36.3038C184.243 36.1069 184.085 35.9438 183.892 35.8341C183.667 35.749 183.427 35.7116 183.187 35.7243H182.312V43.0869H178.441V19.834H182.312Z" fill="#272A31"/>
<path d="M199.788 26.7818C200.899 26.7681 202.002 26.9648 203.039 27.3613C203.981 27.7262 204.834 28.2865 205.543 29.0053C206.259 29.7474 206.807 30.6346 207.151 31.6069C207.535 32.7081 207.722 33.8687 207.703 35.035C207.719 36.2081 207.528 37.3749 207.139 38.4815C206.792 39.457 206.245 40.3486 205.531 41.0984C204.826 41.8258 203.972 42.3918 203.027 42.7576C201.99 43.1556 200.887 43.3523 199.776 43.3371C198.658 43.3524 197.548 43.1558 196.503 42.7576C195.555 42.393 194.698 41.8269 193.99 41.0984C193.277 40.3473 192.727 39.4562 192.377 38.4815C191.982 37.3761 191.789 36.2087 191.806 35.035C191.79 33.8674 191.983 32.7063 192.377 31.6069C192.725 30.6354 193.275 29.7487 193.99 29.0053C194.702 28.2856 195.559 27.7253 196.503 27.3613C197.552 26.9632 198.667 26.7666 199.788 26.7818V26.7818ZM199.788 40.3603C201.124 40.3603 202.113 39.9119 202.756 39.0152C203.398 38.1186 203.72 36.8081 203.72 35.0838C203.72 33.3494 203.398 32.0278 202.756 31.1189C202.113 30.21 201.124 29.7566 199.788 29.7586C198.432 29.7586 197.427 30.2151 196.775 31.128C196.122 32.041 195.8 33.3596 195.808 35.0838C195.808 36.804 196.134 38.1165 196.787 39.0213C197.44 39.9262 198.44 40.3725 199.788 40.3603V40.3603Z" fill="#272A31"/>
<path d="M213.165 29.8195C213.595 28.9482 214.203 28.1772 214.95 27.5564C215.643 27.0088 216.506 26.7188 217.39 26.736C218.022 26.7052 218.647 26.8749 219.177 27.2209L218.924 30.1184C218.892 30.2717 218.813 30.4113 218.698 30.5179C218.582 30.6022 218.441 30.6432 218.298 30.6338C218.065 30.6265 217.833 30.601 217.603 30.5576C217.301 30.5056 216.995 30.4791 216.688 30.4783C216.299 30.4724 215.911 30.5365 215.544 30.6674C215.208 30.789 214.898 30.972 214.629 31.2072C214.353 31.4549 214.115 31.7428 213.925 32.0612C213.704 32.4266 213.514 32.8091 213.354 33.205V43.1021H209.515V27.0318H211.787C212.08 27.0004 212.375 27.0762 212.616 27.2453C212.8 27.4575 212.907 27.7247 212.921 28.0048L213.165 29.8195Z" fill="#272A31"/>
<path d="M222.562 35.5534C222.604 36.2823 222.751 37.0013 222.998 37.6883C223.202 38.2402 223.513 38.7462 223.913 39.1767C224.288 39.5656 224.746 39.8649 225.252 40.0521C225.802 40.257 226.383 40.3604 226.97 40.3571C227.517 40.3679 228.064 40.2938 228.589 40.1375C228.998 40.0095 229.396 39.8473 229.779 39.6525C230.12 39.4756 230.416 39.314 230.672 39.1676C230.897 39.0301 231.153 38.9544 231.416 38.948C231.558 38.9386 231.699 38.967 231.825 39.0303C231.952 39.0935 232.059 39.1893 232.136 39.3079L233.249 40.7169C232.831 41.2042 232.342 41.6258 231.798 41.9674C231.276 42.3018 230.717 42.575 230.132 42.7818C229.557 42.9819 228.963 43.1259 228.36 43.2118C227.782 43.2931 227.199 43.3349 226.616 43.3369C225.551 43.346 224.494 43.1578 223.499 42.7818C222.555 42.4202 221.7 41.8595 220.992 41.1378C220.253 40.3641 219.684 39.4448 219.32 38.4386C218.892 37.247 218.685 35.9869 218.71 34.7207C218.704 33.6654 218.885 32.6173 219.244 31.625C219.578 30.6914 220.097 29.8346 220.769 29.1057C221.453 28.3735 222.285 27.7945 223.209 27.4069C224.231 26.975 225.332 26.761 226.442 26.7786C227.398 26.7685 228.348 26.9328 229.245 27.2635C230.07 27.5711 230.82 28.0539 231.441 28.6787C232.078 29.332 232.571 30.1111 232.89 30.9662C233.255 31.9556 233.433 33.0043 233.414 34.0589C233.448 34.4625 233.384 34.8684 233.228 35.2423C233.145 35.3516 233.035 35.4374 232.909 35.4909C232.783 35.5444 232.644 35.5638 232.508 35.5472L222.562 35.5534ZM229.937 33.2201C229.941 32.7394 229.87 32.261 229.727 31.8019C229.595 31.3744 229.379 30.9774 229.092 30.6338C228.799 30.292 228.432 30.0218 228.019 29.8438C227.537 29.6403 227.017 29.5415 226.494 29.5541C225.374 29.5541 224.496 29.8591 223.852 30.5087C223.209 31.1583 222.803 32.0337 222.632 33.2201H229.937Z" fill="#272A31"/>
<path d="M234.777 29.2889C236.589 27.6103 238.981 26.7006 241.451 26.7513C242.313 26.7364 243.169 26.893 243.97 27.2118C244.682 27.5004 245.323 27.9383 245.852 28.4959C246.373 29.0632 246.77 29.7333 247.017 30.4631C247.289 31.2632 247.424 32.1036 247.416 32.9488V43.0991H245.663C245.372 43.1147 245.082 43.0581 244.818 42.9344C244.584 42.7785 244.417 42.5416 244.348 42.2695L243.997 41.1136C243.618 41.4562 243.22 41.7779 242.805 42.0774C242.423 42.3499 242.014 42.5829 241.585 42.7728C241.156 42.9656 240.707 43.1098 240.246 43.2028C239.728 43.307 239.201 43.3571 238.672 43.3523C238.035 43.3586 237.402 43.266 236.793 43.0778C236.245 42.911 235.739 42.6315 235.305 42.2573C234.881 41.8826 234.549 41.4164 234.332 40.894C234.092 40.292 233.974 39.648 233.987 38.9999C233.988 38.5848 234.057 38.1727 234.192 37.78C234.339 37.3575 234.565 36.9664 234.857 36.6271C235.209 36.2278 235.616 35.8816 236.067 35.5992C236.639 35.2403 237.254 34.9564 237.897 34.7544C238.709 34.4922 239.54 34.2963 240.383 34.1688C241.463 34.0079 242.552 33.9172 243.644 33.8974V32.9488C243.644 31.8752 243.412 31.0792 242.954 30.5607C242.699 30.2944 242.389 30.0871 242.046 29.9533C241.702 29.8194 241.334 29.7623 240.966 29.786C240.438 29.7712 239.911 29.8454 239.407 30.0056C239.029 30.1381 238.664 30.3066 238.318 30.5088C238.013 30.6918 237.708 30.8565 237.464 30.9999C237.204 31.1475 236.909 31.2233 236.61 31.2195C236.364 31.227 236.121 31.153 235.921 31.009C235.735 30.8744 235.578 30.7044 235.458 30.5088L234.777 29.2889ZM243.644 36.2428C242.698 36.2819 241.755 36.3838 240.822 36.5478C240.192 36.649 239.577 36.8304 238.992 37.0876C238.604 37.2448 238.264 37.5002 238.004 37.8288C237.807 38.108 237.7 38.4414 237.699 38.7834C237.699 39.4605 237.901 39.9485 238.309 40.2382C238.773 40.549 239.325 40.703 239.883 40.6774C240.592 40.7019 241.296 40.562 241.942 40.2687C242.582 39.9361 243.158 39.4932 243.644 38.9603V36.2428Z" fill="#272A31"/>
</svg>
