<svg width="40" height="40" viewBox="0 0 40 40" fill="none" xmlns="http://www.w3.org/2000/svg">
<rect width="40" height="40" fill="#36383F"/>
<path d="M32.6438 33.8808L33.875 32.6782C34.1729 32.3873 34.1729 31.9157 33.875 31.6248L25.6542 23.5951C25.3564 23.3042 24.8735 23.3042 24.5757 23.5951L23.3444 24.7977C23.0466 25.0886 23.0466 25.5603 23.3444 25.8512L31.5653 33.8808C31.8631 34.1717 32.346 34.1717 32.6438 33.8808Z" fill="#272A31"/>
<path d="M15.4253 17.0612L16.6565 15.8586C16.9544 15.5677 16.9544 15.096 16.6565 14.8051L8.43568 6.77545C8.13785 6.48455 7.65498 6.48455 7.35715 6.77545L6.1259 7.97807C5.82807 8.26897 5.82807 8.74061 6.1259 9.03151L14.3468 17.0612C14.6446 17.3521 15.1275 17.3521 15.4253 17.0612Z" fill="#272A31"/>
<path d="M33.8751 7.97873L32.6439 6.77611C32.346 6.48521 31.8632 6.48521 31.5654 6.77611L23.3445 14.8058C23.0467 15.0967 23.0467 15.5683 23.3445 15.8592L24.5757 17.0619C24.8736 17.3528 25.3564 17.3528 25.6543 17.0619L33.8751 9.03217C34.173 8.74127 34.173 8.26963 33.8751 7.97873Z" fill="#272A31"/>
<path d="M16.6547 24.797L15.4234 23.5944C15.1256 23.3035 14.6427 23.3035 14.3449 23.5944L6.12403 31.6241C5.8262 31.915 5.82621 32.3866 6.12403 32.6775L7.35529 33.8801C7.65311 34.171 8.13598 34.171 8.43381 33.8801L16.6547 25.8504C16.9525 25.5595 16.9525 25.0879 16.6547 24.797Z" fill="#272A31"/>
</svg>
