<svg width="160" height="58" viewBox="0 0 160 58" fill="none" xmlns="http://www.w3.org/2000/svg">
<g clip-path="url(#clip0_105_6091)">
<path d="M56.9963 53.1716C56.4828 53.1907 55.9737 53.0711 55.5224 52.8255C55.0711 52.5799 54.6942 52.2173 54.4314 51.7758C53.8451 50.8545 53.5485 49.4552 53.5485 47.5673V45.0582C53.5389 44.3316 53.6009 43.6057 53.7335 42.8912C53.8299 42.3677 53.9929 41.8587 54.2185 41.3767C54.3888 41.0127 54.6255 40.6837 54.9165 40.4065C55.1536 40.1839 55.4245 40.0001 55.7191 39.8622C55.9801 39.7415 56.2577 39.6603 56.5426 39.6214C56.7879 39.5881 57.035 39.5707 57.2824 39.569C57.701 39.5639 58.1177 39.6239 58.5178 39.747C58.8754 39.855 59.2053 40.0395 59.4844 40.2879C59.7607 40.5395 59.9756 40.8511 60.1125 41.1987C60.2671 41.6124 60.3417 42.0518 60.3324 42.4934C60.3346 42.7592 60.3207 43.0249 60.2905 43.289C60.2626 43.5124 60.2206 43.7339 60.1649 43.952H58.2177V43.4984C58.239 42.9657 58.1585 42.4339 57.9804 41.9315C57.9291 41.7659 57.8256 41.6213 57.6853 41.5194C57.545 41.4175 57.3755 41.3637 57.2022 41.3662C57.0192 41.3629 56.839 41.4113 56.6822 41.5058C56.5146 41.6253 56.3859 41.7916 56.3123 41.9839C56.1952 42.2742 56.12 42.5797 56.089 42.8912C56.035 43.365 56.0105 43.8416 56.0157 44.3184V48.0942C56.0157 48.6735 56.0366 49.1655 56.075 49.5703C56.0982 49.9071 56.1662 50.2392 56.2774 50.5579C56.3493 50.7769 56.4825 50.9707 56.6613 51.1163C56.8384 51.2348 57.0484 51.2947 57.2615 51.2872C57.3836 51.2867 57.5036 51.2555 57.6105 51.1965C57.7362 51.1233 57.8408 51.0187 57.9141 50.8929C58.0151 50.7172 58.087 50.5263 58.1269 50.3276C58.1881 50.0409 58.2162 49.7482 58.2107 49.4552V49.0399H60.3045V49.5354C60.3045 50.7987 60.0253 51.7176 59.4669 52.2923C58.9086 52.8669 58.085 53.16 56.9963 53.1716Z" fill="#272A31"/>
<path d="M65.2772 53.1716C64.9873 53.1707 64.698 53.1473 64.4118 53.1018C64.1155 53.0566 63.8289 52.9622 63.5638 52.8227C63.2731 52.667 63.0121 52.4615 62.7926 52.2155C62.5217 51.906 62.3068 51.5517 62.1574 51.1686C61.9563 50.6561 61.8146 50.1221 61.7352 49.5773C61.6221 48.8302 61.5696 48.0751 61.5782 47.3195V45.2257C61.5703 44.4839 61.624 43.7427 61.7387 43.0098C61.82 42.4785 61.9665 41.9593 62.1749 41.4639C62.3245 41.0937 62.541 40.7542 62.8135 40.4624C63.2467 40.013 63.818 39.7219 64.4362 39.6353C64.717 39.5941 65.0004 39.5731 65.2842 39.5725C65.5585 39.5726 65.8324 39.5912 66.1042 39.6283C66.3921 39.668 66.6722 39.7516 66.9348 39.8761C67.223 40.0131 67.4833 40.2024 67.7025 40.4345C67.9719 40.7274 68.188 41.0652 68.3411 41.4325C68.5469 41.9334 68.6922 42.457 68.7738 42.9924C68.8903 43.7309 68.944 44.4781 68.9343 45.2257V47.3195C68.9428 48.0649 68.8879 48.8097 68.7703 49.5459C68.6828 50.089 68.5341 50.6205 68.3271 51.1302C68.1702 51.5127 67.9509 51.8665 67.6781 52.1771C67.4573 52.4266 67.1967 52.6377 66.9068 52.8017C66.6502 52.9438 66.372 53.0428 66.0833 53.0949C65.8173 53.1434 65.5476 53.1691 65.2772 53.1716ZM65.2772 51.2872C65.4755 51.2938 65.6705 51.235 65.832 51.1197C66.0075 50.9761 66.1353 50.7826 66.1984 50.5649C66.307 50.2347 66.375 49.8925 66.4008 49.5459C66.4427 49.1237 66.4637 48.6037 66.4637 47.9791V44.7058C66.4637 44.0811 66.4427 43.5577 66.4008 43.1319C66.3749 42.7831 66.3069 42.4386 66.1984 42.106C66.1352 41.8853 66.0076 41.6885 65.832 41.5407C65.672 41.4218 65.4765 41.3603 65.2772 41.3662C65.0692 41.3599 64.8647 41.4211 64.6944 41.5407C64.5131 41.6882 64.3776 41.8843 64.3036 42.106C64.1836 42.4365 64.1085 42.7815 64.0802 43.1319C64.0311 43.6551 64.009 44.1804 64.0139 44.7058V47.9791C64.0089 48.5021 64.031 49.0251 64.0802 49.5459C64.1084 49.8941 64.1835 50.2369 64.3036 50.5649C64.3774 50.7838 64.5132 50.9765 64.6944 51.1197C64.8719 51.2366 65.0825 51.293 65.2946 51.2803L65.2772 51.2872Z" fill="#272A31"/>
<path d="M70.7211 39.7365H72.602L72.8253 41.1533C72.9971 40.874 73.2061 40.6192 73.4465 40.3961C73.6561 40.2025 73.8908 40.0382 74.1444 39.9075C74.3742 39.7877 74.6197 39.7007 74.8737 39.6493C75.1158 39.5979 75.3626 39.5721 75.6101 39.5725C75.9534 39.5536 76.2963 39.6176 76.6097 39.7591C76.9231 39.9007 77.1978 40.1155 77.4107 40.3856C77.8341 40.93 78.0447 41.7442 78.0423 42.8284V53.0251H75.5996V42.9296C75.6405 42.5043 75.5465 42.077 75.3309 41.7082C75.2358 41.5916 75.1144 41.4992 74.9767 41.4385C74.839 41.3779 74.689 41.3507 74.5387 41.3592C74.277 41.3647 74.023 41.4486 73.8094 41.6C73.5533 41.7775 73.3351 42.004 73.1673 42.2665V53.0251H70.7246L70.7211 39.7365Z" fill="#272A31"/>
<path d="M82.1775 53.9324C82.1359 54.362 82.2484 54.7925 82.4951 55.1468C82.6241 55.2727 82.7789 55.3691 82.9488 55.4293C83.1187 55.4896 83.2997 55.5122 83.4792 55.4957C83.6559 55.4966 83.8316 55.4683 83.9991 55.412C84.1704 55.3559 84.3227 55.2532 84.4388 55.1154C84.5811 54.9376 84.6845 54.7319 84.7424 54.5117C84.8305 54.1877 84.8704 53.8527 84.8611 53.5171V51.4233C84.6281 51.7175 84.3415 51.965 84.0166 52.1527C83.6245 52.3667 83.1823 52.4715 82.7359 52.4563C82.5616 52.4546 82.3878 52.4394 82.2159 52.4109C82.0013 52.3775 81.793 52.3116 81.5983 52.2155C81.3639 52.0949 81.1515 51.9356 80.9701 51.7444C80.7373 51.4981 80.5506 51.2121 80.4188 50.8999C80.2372 50.4746 80.1061 50.0296 80.0279 49.5738C79.9217 48.9374 79.8727 48.2927 79.8814 47.6475V44.1579C79.8727 43.5417 79.9218 42.926 80.0279 42.3189C80.1072 41.8825 80.2384 41.4573 80.4188 41.0521C80.5513 40.7519 80.7396 40.4796 80.9736 40.2495C81.1629 40.0713 81.3782 39.9231 81.6122 39.8098C81.8125 39.7167 82.0253 39.6532 82.2438 39.6214C82.4267 39.598 82.6108 39.5851 82.7952 39.583C83.084 39.5782 83.3716 39.6206 83.6467 39.7086C84.0932 39.8537 84.4835 40.1342 84.7634 40.5112C84.8863 40.6756 84.996 40.8495 85.0914 41.0312L85.3147 39.7191H87.2131V52.4772C87.2203 53.1507 87.1501 53.8228 87.0037 54.4803C86.8817 55.0267 86.6554 55.5445 86.3372 56.0052C86.0404 56.421 85.643 56.7548 85.1821 56.9754C84.6578 57.2181 84.0848 57.3375 83.5071 57.3243C83.0925 57.3264 82.6788 57.2878 82.2718 57.2092C81.9108 57.1391 81.5671 56.9992 81.2598 56.7974C80.9599 56.5966 80.719 56.3195 80.5618 55.9948C80.3801 55.5906 80.2941 55.1499 80.3106 54.7071C80.3126 54.5903 80.3219 54.4737 80.3385 54.3581C80.3616 54.2119 80.3943 54.0674 80.4362 53.9254L82.1775 53.9324ZM83.5734 50.5753C83.7208 50.578 83.867 50.5494 84.0026 50.4916C84.1299 50.4388 84.2477 50.3658 84.3516 50.2752C84.4515 50.1831 84.5394 50.0787 84.6133 49.9647C84.6855 49.8542 84.7474 49.7374 84.7983 49.6157V42.3433C84.686 42.0799 84.5209 41.8424 84.3132 41.6454C84.1137 41.4566 83.848 41.3539 83.5734 41.3592C83.4043 41.3569 83.2367 41.3902 83.0814 41.4569C82.9206 41.5311 82.7866 41.6529 82.6975 41.8059C82.568 42.0326 82.4805 42.2809 82.4393 42.5387C82.3722 42.9387 82.3419 43.3441 82.3485 43.7496V48.1396C82.342 48.5463 82.3724 48.9527 82.4393 49.354C82.4807 49.6151 82.5681 49.8667 82.6975 50.0973C82.7857 50.2594 82.9224 50.3899 83.0883 50.4707C83.2384 50.5401 83.4011 50.5781 83.5664 50.5823L83.5734 50.5753Z" fill="#272A31"/>
<path d="M89.3976 39.7365H91.1808L91.3937 41.087C91.6153 40.6449 91.9338 40.2584 92.3254 39.9564C92.6347 39.7206 93.0113 39.5897 93.4002 39.583C93.6922 39.5594 93.9857 39.6056 94.2564 39.7178C94.527 39.8301 94.767 40.0052 94.9566 40.2286C95.3315 40.8031 95.508 41.4845 95.4591 42.1688C95.4591 42.277 95.4591 42.4061 95.4347 42.5596C95.4102 42.7132 95.3963 42.8667 95.3649 43.0307C95.3335 43.1948 95.3021 43.3588 95.2602 43.5228C95.2183 43.6868 95.1729 43.8368 95.1311 43.9729H93.4316V42.7376C93.4355 42.5143 93.418 42.2911 93.3793 42.0711C93.3521 41.9253 93.3039 41.7843 93.2362 41.6523C93.1937 41.5586 93.123 41.4804 93.0338 41.429C92.9567 41.3871 92.8703 41.3654 92.7825 41.3662C92.5884 41.3668 92.4002 41.4332 92.2486 41.5546C92.0723 41.6959 91.9313 41.8763 91.8369 42.0816V53.0251H89.3941L89.3976 39.7365Z" fill="#272A31"/>
<path d="M99.8317 53.1716C99.3067 53.1819 98.7863 53.0721 98.3102 52.8506C97.8557 52.6263 97.4709 52.2825 97.197 51.856C96.8555 51.3241 96.6186 50.7319 96.4991 50.1112C96.3329 49.2737 96.2557 48.421 96.2687 47.5673V45.0582C96.2593 44.336 96.3224 43.6147 96.4572 42.9051C96.5573 42.3817 96.7226 41.8729 96.9492 41.3906C97.1176 41.0256 97.3546 40.6962 97.6472 40.4205C97.8916 40.1972 98.1695 40.0135 98.4707 39.8761C98.7388 39.7548 99.0234 39.6737 99.3152 39.6353C99.5733 39.6019 99.8332 39.5844 100.093 39.583C100.522 39.5823 100.948 39.6482 101.357 39.7784C101.764 39.9125 102.132 40.145 102.428 40.4554C102.766 40.8213 103.019 41.2574 103.168 41.7326C103.366 42.3801 103.458 43.0553 103.44 43.7322C103.44 44.0009 103.44 44.2766 103.419 44.5522C103.398 44.8279 103.381 45.1001 103.356 45.3688C103.332 45.6375 103.297 45.8923 103.255 46.1435C103.213 46.3948 103.168 46.6286 103.122 46.8414H98.7289V48.1954C98.725 48.6826 98.7483 49.1695 98.7987 49.6541C98.826 49.9824 98.9025 50.3047 99.0256 50.6102C99.1105 50.8263 99.2621 51.0096 99.4583 51.1337C99.6733 51.2458 99.9139 51.2999 100.156 51.2907C100.305 51.2916 100.453 51.2607 100.589 51.2C100.737 51.1322 100.866 51.0277 100.962 50.8964C101.081 50.7251 101.167 50.5335 101.217 50.3311C101.287 50.0457 101.32 49.7525 101.315 49.4587V49.0434H103.349V49.5354C103.349 50.7987 103.049 51.7176 102.449 52.2923C101.849 52.8669 100.976 53.16 99.8317 53.1716ZM101.182 45.1978C101.182 45.128 101.182 45.0338 101.182 44.9152C101.182 44.7965 101.182 44.6709 101.182 44.5418C101.182 44.4126 101.182 44.287 101.182 44.1614V43.8369C101.223 43.191 101.117 42.5443 100.872 41.9455C100.792 41.7704 100.663 41.6223 100.501 41.5194C100.338 41.4165 100.15 41.3633 99.9573 41.3662C99.7596 41.3621 99.5648 41.4142 99.3955 41.5162C99.2161 41.6399 99.0786 41.8152 99.0011 42.0188C98.8804 42.317 98.8017 42.6306 98.7673 42.9505C98.7121 43.4277 98.6865 43.9078 98.6906 44.3882V45.1978H101.182Z" fill="#272A31"/>
<path d="M104.626 50.2334C104.626 49.9509 104.654 49.6691 104.71 49.3924C104.752 49.1746 104.804 48.9592 104.867 48.7468H106.577C106.572 49.1517 106.597 49.5564 106.65 49.9577C106.68 50.2281 106.759 50.4907 106.884 50.7324C106.983 50.9143 107.137 51.0598 107.324 51.1476C107.536 51.2367 107.764 51.2795 107.994 51.2733C108.142 51.2866 108.292 51.2659 108.431 51.2127C108.57 51.1595 108.695 51.0752 108.797 50.9662C108.959 50.7697 109.047 50.523 109.048 50.2683C109.048 50.1312 109.028 49.9948 108.988 49.8635C108.947 49.7282 108.892 49.5973 108.824 49.4726C108.749 49.3316 108.661 49.1973 108.563 49.0713C108.462 48.9352 108.346 48.7886 108.214 48.6281L106.427 46.5343C106.197 46.2447 105.973 45.9516 105.757 45.6515C105.544 45.357 105.354 45.0467 105.188 44.7232C105.023 44.4043 104.89 44.07 104.79 43.7252C104.691 43.3673 104.642 42.9974 104.644 42.6259C104.632 42.1651 104.723 41.7075 104.909 41.2859C105.068 40.9227 105.307 40.5996 105.607 40.3402C105.915 40.0843 106.271 39.8932 106.654 39.7784C107.056 39.6552 107.475 39.594 107.896 39.5969C108.337 39.5906 108.777 39.6482 109.201 39.7679C109.565 39.8739 109.903 40.0519 110.196 40.2914C110.473 40.5241 110.691 40.8196 110.831 41.1533C110.987 41.535 111.063 41.9448 111.054 42.3572C111.055 42.6582 111.027 42.9585 110.971 43.2541C110.918 43.5437 110.862 43.7915 110.814 43.9974H109.125C109.125 43.5577 109.097 43.1773 109.065 42.8493C109.045 42.5701 108.985 42.2951 108.887 42.0327C108.819 41.8406 108.698 41.6715 108.538 41.5442C108.363 41.4286 108.155 41.3712 107.945 41.3801C107.762 41.3749 107.58 41.4094 107.411 41.4813C107.282 41.5401 107.167 41.6275 107.077 41.737C106.986 41.8464 106.921 41.9749 106.888 42.113C106.852 42.2485 106.833 42.388 106.832 42.5282C106.831 42.8288 106.908 43.1246 107.055 43.3867C107.229 43.6892 107.426 43.9774 107.645 44.2486L109.592 46.5343C109.735 46.7088 109.899 46.9182 110.084 47.166C110.28 47.4269 110.459 47.7009 110.618 47.986C110.789 48.2992 110.93 48.6275 111.04 48.9666C111.157 49.3249 111.216 49.6995 111.215 50.0763C111.222 50.5123 111.146 50.9457 110.991 51.3535C110.852 51.7268 110.627 52.0625 110.335 52.3341C110.029 52.6161 109.666 52.8301 109.271 52.9623C108.805 53.1169 108.317 53.1924 107.826 53.1856C107.405 53.1833 106.985 53.1294 106.577 53.0251C106.206 52.9344 105.857 52.7668 105.555 52.533C105.252 52.2932 105.012 51.9829 104.857 51.6292C104.682 51.1855 104.603 50.7097 104.626 50.2334Z" fill="#272A31"/>
<path d="M112.251 50.2334C112.25 49.9509 112.278 49.6691 112.335 49.3924C112.377 49.1745 112.431 48.959 112.495 48.7468H114.212C114.208 49.1517 114.232 49.5563 114.286 49.9577C114.315 50.2281 114.395 50.4907 114.519 50.7324C114.618 50.9143 114.772 51.0598 114.959 51.1476C115.171 51.2367 115.399 51.2795 115.629 51.2733C115.778 51.2872 115.927 51.2667 116.066 51.2134C116.206 51.1602 116.331 51.0756 116.432 50.9662C116.594 50.7697 116.683 50.523 116.683 50.2683C116.683 50.1312 116.663 49.9948 116.624 49.8635C116.583 49.7276 116.528 49.5965 116.46 49.4726C116.384 49.3324 116.298 49.1982 116.201 49.0713L115.853 48.6281L114.066 46.5343C113.836 46.2447 113.612 45.9516 113.396 45.6515C113.183 45.357 112.993 45.0467 112.827 44.7232C112.662 44.4049 112.53 44.0704 112.433 43.7252C112.33 43.3678 112.28 42.9976 112.283 42.6259C112.271 42.1651 112.361 41.7074 112.548 41.2859C112.712 40.9211 112.957 40.5979 113.263 40.3402C113.57 40.0833 113.926 39.8921 114.31 39.7784C114.714 39.6549 115.134 39.5938 115.556 39.5969C115.996 39.5908 116.434 39.6484 116.858 39.7679C117.221 39.8724 117.56 40.0505 117.852 40.2914C118.129 40.5241 118.347 40.8196 118.487 41.1533C118.644 41.535 118.72 41.9448 118.711 42.3572C118.711 42.6582 118.683 42.9585 118.627 43.2541C118.576 43.5426 118.523 43.7903 118.47 43.9974H116.781C116.781 43.5577 116.753 43.1773 116.721 42.8493C116.701 42.5701 116.641 42.2951 116.543 42.0327C116.475 41.8406 116.354 41.6715 116.195 41.5442C116.019 41.4286 115.811 41.3712 115.601 41.3801C115.419 41.3745 115.238 41.409 115.071 41.4813C114.936 41.5426 114.817 41.6332 114.722 41.7466C114.637 41.8549 114.575 41.9796 114.54 42.113C114.506 42.2486 114.488 42.3882 114.488 42.5282C114.486 42.8285 114.562 43.1242 114.708 43.3867C114.883 43.6884 115.08 43.9765 115.298 44.2486L117.248 46.5343C117.388 46.7088 117.552 46.9182 117.74 47.166C117.934 47.4279 118.112 47.7018 118.271 47.986C118.443 48.2985 118.584 48.6269 118.693 48.9666C118.811 49.3245 118.87 49.6994 118.868 50.0763C118.874 50.512 118.799 50.945 118.648 51.3535C118.507 51.7262 118.282 52.0616 117.992 52.3341C117.684 52.6168 117.32 52.831 116.924 52.9623C116.458 53.1169 115.97 53.1924 115.479 53.1856C115.057 53.187 114.636 53.1366 114.226 53.0355C113.855 52.9449 113.507 52.7773 113.204 52.5435C112.901 52.3036 112.661 51.9933 112.506 51.6397C112.321 51.1945 112.235 50.715 112.251 50.2334Z" fill="#272A31"/>
<path d="M123.98 51.5594L127.62 44.5522C127.969 43.9136 128.227 43.3588 128.433 42.8807C128.639 42.4026 128.806 41.9909 128.928 41.6314C129.033 41.3274 129.115 41.0159 129.173 40.6997C129.214 40.4693 129.236 40.2358 129.239 40.0018C129.246 39.7175 129.215 39.4336 129.148 39.1573C129.102 38.9554 129.01 38.7668 128.879 38.6059C128.762 38.4673 128.607 38.3655 128.433 38.3128C128.235 38.2508 128.029 38.2213 127.822 38.2255C127.571 38.211 127.322 38.2691 127.103 38.3929C126.885 38.5167 126.707 38.7009 126.59 38.9235C126.302 39.554 126.172 40.2449 126.21 40.937V41.8582H124.28C124.21 41.5093 124.147 41.1603 124.095 40.8707C124.043 40.5464 124.017 40.2185 124.018 39.8901C124.02 39.4645 124.093 39.0422 124.235 38.6408C124.383 38.2238 124.614 37.8414 124.915 37.5171C125.248 37.1661 125.651 36.8891 126.098 36.704C126.646 36.4862 127.233 36.3818 127.822 36.397C128.447 36.3834 129.07 36.4682 129.668 36.6482C130.139 36.7914 130.57 37.0423 130.928 37.381C131.26 37.7086 131.506 38.1123 131.647 38.557C131.807 39.066 131.885 39.5973 131.877 40.1309C131.877 40.4635 131.846 40.7953 131.783 41.1219C131.715 41.4797 131.613 41.8302 131.479 42.1688C131.319 42.5829 131.135 42.9872 130.928 43.3797C130.695 43.8194 130.419 44.3219 130.101 44.8873L126.848 51.0639H131.664V53.0251H123.987L123.98 51.5594Z" fill="#272A31"/>
<path d="M133.207 41.251C133.196 40.6229 133.263 39.9959 133.405 39.3841C133.514 38.9205 133.689 38.4751 133.925 38.0615C134.121 37.7298 134.375 37.4365 134.676 37.1961C134.942 36.9878 135.235 36.8176 135.548 36.6901C135.837 36.5758 136.138 36.4962 136.445 36.4528C136.719 36.4167 136.995 36.398 137.272 36.3969C137.538 36.3988 137.804 36.4163 138.068 36.4493C138.371 36.4861 138.669 36.5612 138.954 36.6726C139.267 36.7915 139.56 36.9575 139.823 37.1647C140.121 37.4013 140.373 37.6911 140.566 38.0196C140.804 38.4363 140.981 38.8853 141.09 39.3527C141.229 39.9732 141.295 40.6081 141.285 41.2441V48.2233C141.295 48.8512 141.229 49.478 141.09 50.0903C140.978 50.5585 140.801 51.0085 140.563 51.4268C140.365 51.7662 140.11 52.0685 139.809 52.3202C139.308 52.733 138.705 53.0041 138.064 53.1053C137.805 53.1484 137.542 53.1717 137.279 53.1751C136.997 53.1726 136.716 53.1493 136.438 53.1053C136.126 53.058 135.821 52.9725 135.531 52.8506C135.216 52.7186 134.922 52.5411 134.658 52.3237C134.359 52.0765 134.108 51.7759 133.918 51.4373C133.685 51.016 133.514 50.5636 133.409 50.0938C133.27 49.4802 133.204 48.8524 133.214 48.2233L133.207 41.251ZM135.764 49.2772C135.721 49.8004 135.852 50.3233 136.138 50.7638C136.277 50.9244 136.453 51.0501 136.65 51.1307C136.847 51.2113 137.06 51.2446 137.272 51.2279C137.48 51.2438 137.69 51.21 137.883 51.1293C138.076 51.0486 138.247 50.9234 138.382 50.7638C138.663 50.3216 138.792 49.7995 138.748 49.2772V40.3437C138.791 39.7939 138.663 39.2441 138.382 38.7699C138.251 38.6034 138.082 38.4715 137.888 38.3858C137.695 38.3 137.483 38.2629 137.272 38.2779C137.057 38.2619 136.842 38.2983 136.644 38.384C136.447 38.4698 136.273 38.6022 136.138 38.7699C135.852 39.2425 135.721 39.793 135.764 40.3437V49.2772Z" fill="#272A31"/>
<path d="M142.908 51.5594L146.547 44.5522C146.896 43.9136 147.155 43.3588 147.36 42.8807C147.566 42.4026 147.734 41.9908 147.856 41.6314C147.961 41.3274 148.042 41.0159 148.1 40.6997C148.142 40.4693 148.164 40.2358 148.167 40.0017C148.174 39.7175 148.143 39.4335 148.076 39.1573C148.03 38.9554 147.938 38.7668 147.807 38.6059C147.69 38.4673 147.534 38.3655 147.36 38.3128C147.163 38.2508 146.957 38.2213 146.75 38.2255C146.499 38.211 146.25 38.2691 146.031 38.3929C145.813 38.5167 145.634 38.7009 145.518 38.9234C145.23 39.5539 145.1 40.2449 145.138 40.937V41.8582H143.218C143.149 41.5093 143.086 41.1603 143.033 40.8707C142.98 40.5466 142.954 40.2185 142.957 39.8901C142.958 39.4645 143.032 39.0422 143.173 38.6408C143.326 38.2223 143.564 37.8399 143.871 37.5171C144.204 37.1661 144.607 36.8891 145.054 36.704C145.602 36.4859 146.188 36.3815 146.778 36.397C147.402 36.3834 148.025 36.4682 148.624 36.6482C149.095 36.7914 149.526 37.0423 149.884 37.381C150.215 37.7086 150.462 38.1123 150.602 38.557C150.761 39.0662 150.838 39.5975 150.829 40.1309C150.831 40.4634 150.8 40.7952 150.738 41.1219C150.669 41.4793 150.567 41.8296 150.435 42.1688C150.273 42.5823 150.089 42.9865 149.884 43.3797C149.66 43.8194 149.381 44.3219 149.056 44.8872L145.804 51.0639H150.616V53.0251H142.939L142.908 51.5594Z" fill="#272A31"/>
<path d="M152.106 51.5594L155.746 44.5522C156.095 43.9136 156.35 43.3588 156.559 42.8807C156.769 42.4026 156.933 41.9908 157.051 41.6314C157.158 41.3279 157.241 41.0163 157.299 40.6997C157.341 40.4693 157.363 40.2358 157.365 40.0017C157.372 39.7175 157.342 39.4335 157.275 39.1573C157.227 38.9558 157.135 38.7675 157.006 38.6059C156.888 38.4673 156.733 38.3655 156.559 38.3128C156.362 38.2508 156.155 38.2213 155.949 38.2255C155.698 38.2106 155.448 38.2685 155.229 38.3924C155.011 38.5162 154.833 38.7006 154.717 38.9234C154.429 39.5539 154.298 40.2449 154.336 40.937V41.8582H152.407C152.333 41.5093 152.274 41.1603 152.222 40.8707C152.168 40.5466 152.142 40.2185 152.145 39.8901C152.147 39.4645 152.22 39.0422 152.361 38.6408C152.509 38.2238 152.741 37.8414 153.042 37.5171C153.375 37.1661 153.778 36.8891 154.225 36.704C154.773 36.4859 155.359 36.3815 155.949 36.397C156.573 36.3834 157.196 36.4682 157.795 36.6482C158.266 36.7914 158.697 37.0423 159.054 37.381C159.386 37.7086 159.633 38.1123 159.773 38.557C159.932 39.0662 160.009 39.5975 160 40.1309C160.001 40.4634 159.971 40.7952 159.909 41.1219C159.84 41.4793 159.738 41.8296 159.606 42.1688C159.444 42.5823 159.26 42.9865 159.054 43.3797C158.831 43.8194 158.552 44.3219 158.224 44.8872L154.971 51.0639H159.787V53.0251H152.11L152.106 51.5594Z" fill="#272A31"/>
<path d="M58.0466 10.7795H54.1557V7.89706H65.5843V10.7795H61.7073V32.0663H58.0466V10.7795Z" fill="#272A31"/>
<path d="M66.9592 7.89706H75.9102V10.7795H70.6338V18.0066H74.7237V20.8925H70.6338V29.1664H76.0672V32.0524H66.9592V7.89706Z" fill="#272A31"/>
<path d="M82.7987 32.2617C82.3899 32.2606 81.9817 32.2303 81.5773 32.171C81.1229 32.1035 80.6801 31.9732 80.2617 31.7837C79.7997 31.5707 79.3745 31.2856 79.0019 30.9392C78.5696 30.5279 78.215 30.042 77.955 29.5049C77.613 28.8084 77.3665 28.0689 77.2222 27.3065C77.0222 26.2789 76.9286 25.2335 76.943 24.1867V15.6301C76.9262 14.5841 77.0222 13.5393 77.2292 12.5139C77.3757 11.7587 77.6221 11.0264 77.962 10.3363C78.2316 9.80904 78.596 9.33587 79.0368 8.94047C79.414 8.61201 79.8387 8.34258 80.2966 8.14135C80.7106 7.96779 81.1461 7.85043 81.5912 7.79238C81.9869 7.73886 82.3855 7.71088 82.7847 7.70863C83.607 7.6832 84.4263 7.81955 85.196 8.10994C85.7961 8.34684 86.33 8.72514 86.7524 9.21267C87.1477 9.68874 87.4325 10.2465 87.5864 10.8458C87.754 11.4931 87.8373 12.1593 87.8342 12.8279C87.837 13.3071 87.8114 13.786 87.7574 14.2622C87.7051 14.7019 87.6283 15.1834 87.5236 15.7139H84.554V14.4576C84.554 13.1292 84.4074 12.1347 84.1143 11.474C83.8211 10.8144 83.3954 10.4829 82.8266 10.4829C82.5182 10.4761 82.2128 10.5443 81.9367 10.6818C81.6614 10.8349 81.4398 11.0687 81.3016 11.3518C81.1067 11.7464 80.9748 12.1691 80.9108 12.6046C80.8142 13.2455 80.7699 13.8932 80.7782 14.5413V25.5721C80.7708 26.2019 80.8057 26.8314 80.8828 27.4565C80.9291 27.8738 81.0472 28.2799 81.2318 28.6569C81.3647 28.9343 81.5855 29.1601 81.8599 29.299C82.1538 29.4347 82.4751 29.5004 82.7987 29.491C83.0354 29.4922 83.2689 29.4359 83.4791 29.327C83.7096 29.2093 83.9065 29.0352 84.0514 28.821C84.2325 28.5527 84.3659 28.2552 84.4458 27.9416C84.5531 27.534 84.6036 27.1136 84.5958 26.6923V24.3298H87.9494V26.5632C87.9494 28.5069 87.5027 29.9376 86.6198 30.8624C85.7369 31.7871 84.4597 32.2548 82.7987 32.2617Z" fill="#272A31"/>
<path d="M89.7326 7.89706H93.3967V18.017H97.7378V7.89706H101.398V32.0524H97.7378V20.8855H93.3967V32.0524H89.7326V7.89706Z" fill="#272A31"/>
<path d="M109.55 7.89706H114.331L116.652 17.2423C116.884 18.2822 117.077 19.271 117.231 20.2085C117.371 21.1437 117.51 22.0301 117.639 22.8572H117.744C117.877 22.0301 118.013 21.1437 118.152 20.2085C118.292 19.2733 118.501 18.2822 118.735 17.2423L121.122 7.89706H125.805V32.0524H122.382V24.0611C122.382 22.8351 122.393 21.6567 122.417 20.5261C122.441 19.3919 122.472 18.3555 122.511 17.4063C122.549 16.4572 122.591 15.6231 122.636 14.8973C122.682 14.1714 122.727 13.5956 122.766 13.1525H122.497L118.857 28.9466H116.537L112.858 13.1699H112.59C112.625 13.5956 112.666 14.1773 112.715 14.9147C112.764 15.6406 112.806 16.4746 112.841 17.4238C112.876 18.373 112.911 19.4094 112.935 20.5435C112.96 21.6777 112.97 22.8537 112.97 24.0785V32.0698H109.547L109.55 7.89706Z" fill="#272A31"/>
<path d="M128.844 7.89706H137.795V10.7795H132.509V18.0066H136.588V20.8925H132.509V29.1664H137.938V32.0524H128.844V7.89706Z" fill="#272A31"/>
<path d="M139.481 7.89706H148.453V10.7795H143.145V18.0066H147.231V20.8925H143.145V29.1664H148.575V32.0524H139.481V7.89706Z" fill="#272A31"/>
<path d="M152.354 10.7795H148.453V7.89706H159.878V10.7795H156.004V32.0663H152.34L152.354 10.7795Z" fill="#272A31"/>
<path d="M37.3217 23.2236H24.4101C24.1259 23.2236 23.8534 23.1107 23.6525 22.9098C23.4516 22.7089 23.3387 22.4364 23.3387 22.1522C23.3387 21.8681 23.4516 21.5956 23.6525 21.3947C23.8534 21.1938 24.1259 21.0809 24.4101 21.0809H36.2399V9.68376C36.2556 9.40974 36.3754 9.15209 36.575 8.96363C36.7745 8.77516 37.0385 8.67017 37.313 8.67017C37.5875 8.67017 37.8515 8.77516 38.0511 8.96363C38.2506 9.15209 38.3704 9.40974 38.3861 9.68376V22.1522C38.3865 22.2925 38.3594 22.4314 38.3061 22.5611C38.2529 22.6909 38.1746 22.8089 38.0758 22.9083C37.9769 23.0078 37.8595 23.0869 37.7301 23.1409C37.6007 23.195 37.462 23.2231 37.3217 23.2236Z" fill="#272A31"/>
<path d="M49.8425 28.1963H20.4772C20.2032 28.1807 19.9455 28.0608 19.7571 27.8613C19.5686 27.6618 19.4636 27.3977 19.4636 27.1232C19.4636 26.8488 19.5686 26.5847 19.7571 26.3852C19.9455 26.1857 20.2032 26.0658 20.4772 26.0502H48.7712V22.0371C48.7869 21.7631 48.9067 21.5054 49.1062 21.317C49.3058 21.1285 49.5698 21.0235 49.8443 21.0235C50.1187 21.0235 50.3828 21.1285 50.5823 21.317C50.7818 21.5054 50.9017 21.7631 50.9173 22.0371V27.125C50.9173 27.266 50.8895 27.4056 50.8355 27.5358C50.7814 27.666 50.7022 27.7842 50.6023 27.8838C50.5025 27.9833 50.384 28.0621 50.2536 28.1158C50.1232 28.1694 49.9835 28.1968 49.8425 28.1963Z" fill="#D3D3D3"/>
<path d="M49.0504 33.169H19.8945C19.6204 33.1534 19.3628 33.0335 19.1743 32.834C18.9859 32.6345 18.8809 32.3704 18.8809 32.096C18.8809 31.8215 18.9859 31.5574 19.1743 31.3579C19.3628 31.1584 19.6204 31.0385 19.8945 31.0229H49.0504C49.3244 31.0385 49.5821 31.1584 49.7705 31.3579C49.959 31.5574 50.064 31.8215 50.064 32.096C50.064 32.3704 49.959 32.6345 49.7705 32.834C49.5821 33.0335 49.3244 33.1534 49.0504 33.169Z" fill="#272A31"/>
<path d="M43.125 45.3479H38.742C38.4578 45.3479 38.1853 45.235 37.9844 45.0341C37.7835 44.8332 37.6707 44.5607 37.6707 44.2766V38.3686H24.1239C23.8397 38.3686 23.5672 38.2557 23.3663 38.0548C23.1654 37.8539 23.0526 37.5814 23.0526 37.2973C23.0526 37.0131 23.1654 36.7407 23.3663 36.5397C23.5672 36.3388 23.8397 36.226 24.1239 36.226H38.742C38.883 36.2255 39.0226 36.2529 39.153 36.3065C39.2834 36.3601 39.4019 36.439 39.5018 36.5385C39.6016 36.638 39.6808 36.7563 39.7349 36.8865C39.789 37.0167 39.8168 37.1563 39.8168 37.2973V43.2297H43.125C43.271 43.2213 43.4173 43.2429 43.5547 43.2931C43.6921 43.3432 43.8179 43.4209 43.9242 43.5214C44.0306 43.6218 44.1153 43.743 44.1732 43.8773C44.2311 44.0117 44.261 44.1564 44.261 44.3027C44.261 44.449 44.2311 44.5938 44.1732 44.7281C44.1153 44.8625 44.0306 44.9836 43.9242 45.0841C43.8179 45.1845 43.6921 45.2622 43.5547 45.3124C43.4173 45.3626 43.271 45.3841 43.125 45.3758V45.3479Z" fill="#D3D3D3"/>
<path d="M28.5906 41.443C27.8613 41.0137 26.9714 40.9405 26.113 40.8742C25.4693 40.852 24.8312 40.7464 24.2146 40.5601C22.7245 40.0192 21.6148 38.6408 20.6377 37.4194C19.5908 36.1422 18.7219 35.0465 17.4482 35.0849C15.7627 35.1477 15.1381 36.8297 14.639 38.1976C14.444 38.8494 14.1497 39.4674 13.7666 40.0297C13.3838 40.4266 12.9564 40.7779 12.4929 41.0766C11.446 41.8233 10.106 42.7516 9.24755 44.7791C9.10317 45.1216 9.00008 45.48 8.94046 45.8469C6.37677 43.1287 4.45677 39.869 3.32242 36.3089C2.18806 32.7488 1.86835 28.9793 2.38691 25.279C2.5265 25.3243 2.66957 25.3662 2.80916 25.4046C4.25387 25.8233 4.8157 26.0572 4.95878 26.8912C5.33566 29.0722 8.61941 33.3679 11.9555 34.5405C12.4855 34.7359 13.0448 34.8397 13.6096 34.8476C14.5231 34.8538 15.4058 34.5177 16.0838 33.9054C17.675 32.5095 16.1186 30.3494 14.6146 28.2661C14.0179 27.4356 12.9221 25.9211 12.8698 25.3488L12.9396 25.3208C13.618 25.0797 14.3408 24.9892 15.0578 25.0556C16.5409 25.1533 17.2877 24.7939 18.7743 22.4733C19.7409 20.9623 21.7509 20.5121 23.5237 20.1108C25.2964 19.7095 27.2366 19.2768 27.2366 17.4308C27.2366 16.0768 26.277 14.6181 24.7346 13.6201C22.9653 12.479 20.9378 12.2242 19.3047 12.9745C18.2334 13.4561 17.5354 13.2153 17.3435 13.1315C17.228 13.0838 17.1252 13.0097 17.0434 12.9152C17.0962 12.8152 17.1744 12.7309 17.2702 12.6709C18.6033 11.6694 20.0864 9.45344 19.3919 7.90055C19.1372 7.33174 18.4113 6.4384 16.4153 6.85366C15.8327 6.96749 15.2393 7.01548 14.646 6.99674C18.4082 4.78053 22.6856 3.58935 27.0517 3.542L27.0308 1.37842C21.6645 1.43429 16.4337 3.06974 11.9913 6.08054C7.54899 9.09134 4.092 13.3441 2.05204 18.3077C0.0120776 23.2714 -0.520466 28.726 0.520904 33.9905C1.56227 39.255 4.13141 44.0961 7.90752 47.9093C8.75557 48.7657 9.65901 49.5653 10.612 50.3032C10.7408 50.4278 10.8771 50.5443 11.0203 50.6521C11.0899 50.704 11.1662 50.7463 11.2471 50.7778C15.8325 54.136 21.3578 55.9672 27.0412 56.0122L27.0622 53.8696C21.5551 53.8096 16.2217 51.9341 11.8892 48.5339C11.3902 47.9791 10.6888 46.8973 11.2332 45.6061C11.8508 44.1474 12.7651 43.5123 13.7352 42.8144C14.3445 42.4196 14.9024 41.9507 15.3963 41.4185C15.9965 40.7206 16.335 39.8098 16.663 38.92C16.848 38.4105 17.2877 37.2205 17.504 37.2066C17.8007 37.2833 18.5056 38.1627 18.9767 38.7455C20.0724 40.1099 21.4194 41.8094 23.4923 42.5562C24.2891 42.8112 25.1165 42.9579 25.9525 42.9924C26.5701 43.0412 27.2087 43.0901 27.5123 43.2715C27.7564 43.3972 28.0393 43.4247 28.3031 43.3484C28.5668 43.2722 28.7913 43.0978 28.9306 42.8612C29.0699 42.6246 29.1133 42.3437 29.0521 42.0761C28.9908 41.8085 28.8294 41.5745 28.6011 41.422L28.5906 41.443ZM12.0637 8.72411C13.6115 9.19489 15.2525 9.27166 16.8375 8.94745C17.0287 8.90503 17.2245 8.88628 17.4203 8.89161C17.1822 9.72098 16.6767 10.4485 15.9826 10.961C14.7472 11.8857 14.7019 13.1594 15.2044 14.0074C15.9232 15.2253 17.9158 15.9651 20.1876 14.9357C21.3252 14.4227 22.6827 14.8554 23.569 15.4277C24.4554 16 25.0626 16.7922 25.0905 17.3924C24.8253 17.6192 23.7679 17.86 23.0561 18.017C21.0984 18.4602 18.4148 19.0639 16.9701 21.3147C15.9232 22.9618 15.7627 22.9514 15.2009 22.9165C14.2147 22.8253 13.2204 22.9443 12.2835 23.2654C11.9493 23.3516 11.6416 23.519 11.3877 23.7528C11.1338 23.9865 10.9417 24.2795 10.8284 24.6055C10.3642 26.0257 11.5263 27.638 12.8768 29.491C13.5014 30.3564 14.5309 31.7802 14.5867 32.3315C14.2377 32.5967 13.7038 32.8515 12.6674 32.4886C10.0606 31.5708 7.31777 27.9067 7.08397 26.4968C6.69662 24.26 4.79825 23.7051 3.41287 23.3108L2.78473 23.1259C4.10821 17.392 7.38954 12.2991 12.0637 8.72411Z" fill="#272A31"/>
<path d="M21.9778 11.0168C21.6933 11.0159 21.4208 10.9022 21.22 10.7008C21.0192 10.4993 20.9064 10.2264 20.9064 9.94198V6.45234C20.9221 6.17833 21.0419 5.92068 21.2415 5.73221C21.441 5.54375 21.705 5.43875 21.9795 5.43875C22.254 5.43875 22.518 5.54375 22.7175 5.73221C22.9171 5.92068 23.0369 6.17833 23.0526 6.45234V9.94198C23.0526 10.227 22.9393 10.5004 22.7378 10.702C22.5362 10.9036 22.2628 11.0168 21.9778 11.0168Z" fill="#272A31"/>
<path d="M25.0207 12.622C24.8798 12.6225 24.7401 12.5951 24.6097 12.5415C24.4793 12.4878 24.3608 12.409 24.2609 12.3095C24.1611 12.2099 24.0819 12.0917 24.0278 11.9615C23.9737 11.8313 23.9459 11.6917 23.9459 11.5507V6.43489C23.9616 6.16087 24.0814 5.90322 24.2809 5.71476C24.4805 5.52629 24.7445 5.4213 25.019 5.4213C25.2934 5.4213 25.5575 5.52629 25.757 5.71476C25.9566 5.90322 26.0764 6.16087 26.0921 6.43489V11.5507C26.0925 11.6915 26.0651 11.831 26.0114 11.9612C25.9578 12.0914 25.8789 12.2097 25.7793 12.3093C25.6797 12.4088 25.5614 12.4877 25.4313 12.5414C25.3011 12.5951 25.1615 12.6225 25.0207 12.622Z" fill="#272A31"/>
<path d="M28.2068 15.3754C28.0649 15.3754 27.9245 15.3472 27.7936 15.2925C27.6627 15.2378 27.5439 15.1576 27.4443 15.0567C27.3446 14.9557 27.266 14.8359 27.213 14.7044C27.16 14.5728 27.1336 14.4319 27.1355 14.2901V6.43491C27.1355 6.29422 27.1632 6.15491 27.217 6.02493C27.2709 5.89495 27.3498 5.77685 27.4493 5.67737C27.5487 5.57789 27.6668 5.49898 27.7968 5.44514C27.9268 5.3913 28.0661 5.36359 28.2068 5.36359C28.3475 5.36359 28.4868 5.3913 28.6168 5.44514C28.7467 5.49898 28.8648 5.57789 28.9643 5.67737C29.0638 5.77685 29.1427 5.89495 29.1966 6.02493C29.2504 6.15491 29.2781 6.29422 29.2781 6.43491V14.2901C29.28 14.4319 29.2536 14.5728 29.2006 14.7044C29.1476 14.8359 29.069 14.9557 28.9693 15.0567C28.8696 15.1576 28.7509 15.2378 28.62 15.2925C28.4891 15.3472 28.3487 15.3754 28.2068 15.3754Z" fill="#272A31"/>
<path d="M26.263 46.6495H21.1681C21.0221 46.6579 20.8758 46.6363 20.7384 46.5861C20.601 46.536 20.4752 46.4583 20.3689 46.3578C20.2625 46.2573 20.1778 46.1362 20.1199 46.0019C20.062 45.8675 20.0321 45.7228 20.0321 45.5765C20.0321 45.4302 20.062 45.2854 20.1199 45.151C20.1778 45.0167 20.2625 44.8956 20.3689 44.7951C20.4752 44.6946 20.601 44.617 20.7384 44.5668C20.8758 44.5166 21.0221 44.4951 21.1681 44.5034H26.263C26.537 44.519 26.7947 44.6389 26.9831 44.8384C27.1716 45.0379 27.2766 45.302 27.2766 45.5765C27.2766 45.8509 27.1716 46.115 26.9831 46.3145C26.7947 46.514 26.537 46.6339 26.263 46.6495Z" fill="#272A31"/>
<path d="M28.8209 49.497H24.5705C24.2965 49.4814 24.0389 49.3616 23.8504 49.162C23.6619 48.9625 23.5569 48.6984 23.5569 48.424C23.5569 48.1495 23.6619 47.8855 23.8504 47.6859C24.0389 47.4864 24.2965 47.3666 24.5705 47.3509H28.8279C29.1019 47.3666 29.3596 47.4864 29.548 47.6859C29.7365 47.8855 29.8415 48.1495 29.8415 48.424C29.8415 48.6984 29.7365 48.9625 29.548 49.162C29.3596 49.3616 29.1019 49.4814 28.8279 49.497H28.8209Z" fill="#272A31"/>
<path d="M25.9664 52.3446H21.7021C21.4281 52.329 21.1704 52.2091 20.9819 52.0096C20.7935 51.8101 20.6885 51.546 20.6885 51.2716C20.6885 50.9971 20.7935 50.733 20.9819 50.5335C21.1704 50.334 21.4281 50.2141 21.7021 50.1985H25.9664C26.2404 50.2141 26.4981 50.334 26.6865 50.5335C26.875 50.733 26.98 50.9971 26.98 51.2716C26.98 51.546 26.875 51.8101 26.6865 52.0096C26.4981 52.2091 26.2404 52.329 25.9664 52.3446Z" fill="#272A31"/>
<path d="M37.3601 9.95246C36.7821 9.95384 36.2167 9.78371 35.7354 9.46361C35.2542 9.1435 34.8787 8.68782 34.6566 8.15423C34.4345 7.62064 34.3756 7.03314 34.4875 6.4661C34.5994 5.89905 34.8771 5.37796 35.2853 4.96877C35.6935 4.55959 36.2139 4.28071 36.7807 4.16745C37.3475 4.05418 37.9351 4.11161 38.4692 4.33248C39.0033 4.55334 39.4599 4.9277 39.7812 5.40818C40.1024 5.88866 40.2739 6.45365 40.2739 7.03163C40.273 7.80479 39.9659 8.54613 39.4199 9.09349C38.8738 9.64085 38.1332 9.94969 37.3601 9.95246ZM37.3601 5.9638C37.1489 5.9638 36.9424 6.02643 36.7668 6.14376C36.5912 6.2611 36.4543 6.42787 36.3735 6.62299C36.2927 6.81811 36.2715 7.03282 36.3127 7.23996C36.354 7.44709 36.4557 7.63736 36.605 7.7867C36.7543 7.93604 36.9446 8.03774 37.1517 8.07894C37.3589 8.12015 37.5736 8.099 37.7687 8.01818C37.9638 7.93736 38.1306 7.80049 38.2479 7.62489C38.3653 7.44928 38.4279 7.24283 38.4279 7.03163C38.4279 6.74843 38.3154 6.47682 38.1151 6.27656C37.9149 6.07631 37.6433 5.9638 37.3601 5.9638Z" fill="#EC5242"/>
<path d="M49.8774 22.0231C49.2989 22.0238 48.7331 21.8529 48.2518 21.532C47.7704 21.2111 47.3951 20.7546 47.1732 20.2203C46.9513 19.686 46.8929 19.0979 47.0054 18.5305C47.1178 17.963 47.396 17.4416 47.8049 17.0322C48.2137 16.6229 48.7348 16.3441 49.3021 16.2309C49.8695 16.1178 50.4576 16.1755 50.9922 16.3968C51.5267 16.618 51.9837 16.9928 52.3051 17.4738C52.6266 17.9548 52.7982 18.5203 52.7982 19.0988C52.7982 19.8738 52.4906 20.6171 51.9429 21.1654C51.3953 21.7137 50.6524 22.0222 49.8774 22.0231ZM49.8774 18.0345C49.6653 18.0345 49.4581 18.0977 49.282 18.216C49.106 18.3343 48.9692 18.5023 48.889 18.6986C48.8088 18.895 48.7889 19.1108 48.8319 19.3185C48.8748 19.5261 48.9786 19.7163 49.13 19.8648C49.2815 20.0133 49.4737 20.1133 49.6822 20.1521C49.8907 20.1909 50.106 20.1668 50.3008 20.0827C50.4955 19.9987 50.6608 19.8586 50.7755 19.6802C50.8903 19.5019 50.9494 19.2934 50.9452 19.0814C50.9397 18.8018 50.8248 18.5355 50.6252 18.3398C50.4255 18.144 50.157 18.0344 49.8774 18.0345Z" fill="#EC5242"/>
<path d="M51.2419 35.1163C50.6642 35.1163 50.0995 34.945 49.6191 34.624C49.1388 34.3031 48.7645 33.8469 48.5434 33.3132C48.3223 32.7795 48.2645 32.1922 48.3772 31.6256C48.4899 31.059 48.7681 30.5386 49.1765 30.1301C49.585 29.7216 50.1055 29.4434 50.672 29.3307C51.2386 29.218 51.8259 29.2759 52.3596 29.4969C52.8933 29.718 53.3495 30.0924 53.6705 30.5727C53.9914 31.053 54.1627 31.6177 54.1627 32.1954C54.1618 32.9698 53.8538 33.7122 53.3062 34.2597C52.7586 34.8073 52.0162 35.1153 51.2419 35.1163ZM51.2419 31.1311C51.0289 31.127 50.8197 31.1866 50.6409 31.3023C50.4621 31.418 50.322 31.5846 50.2386 31.7805C50.1552 31.9765 50.1323 32.1929 50.1728 32.402C50.2134 32.611 50.3155 32.8032 50.4661 32.9538C50.6167 33.1044 50.8088 33.2065 51.0179 33.247C51.227 33.2876 51.4434 33.2646 51.6393 33.1812C51.8353 33.0978 52.0018 32.9578 52.1176 32.779C52.2333 32.6002 52.2929 32.3909 52.2888 32.178C52.2834 31.902 52.1714 31.6388 51.9762 31.4436C51.781 31.2485 51.5178 31.1364 51.2419 31.1311Z" fill="#EC5242"/>
<path d="M45.3688 47.0368C44.7913 47.0362 44.2269 46.8643 43.747 46.5429C43.2672 46.2215 42.8933 45.7651 42.6728 45.2314C42.4523 44.6976 42.3949 44.1104 42.508 43.5441C42.6211 42.9777 42.8996 42.4576 43.3082 42.0495C43.7168 41.6413 44.2373 41.3635 44.8038 41.2511C45.3703 41.1386 45.9574 41.1967 46.4909 41.4179C47.0244 41.639 47.4803 42.0134 47.8011 42.4937C48.1219 42.9739 48.2931 43.5385 48.2931 44.116C48.2922 44.891 47.9837 45.6339 47.4354 46.1816C46.8871 46.7292 46.1438 47.0368 45.3688 47.0368ZM45.3688 43.0482C45.1576 43.0482 44.9512 43.1108 44.7756 43.2282C44.6 43.3455 44.4631 43.5123 44.3823 43.7074C44.3014 43.9025 44.2803 44.1172 44.3215 44.3243C44.3627 44.5315 44.4644 44.7217 44.6137 44.8711C44.7631 45.0204 44.9534 45.1221 45.1605 45.1633C45.3676 45.2045 45.5823 45.1834 45.7775 45.1026C45.9726 45.0217 46.1394 44.8849 46.2567 44.7093C46.374 44.5337 46.4366 44.3272 46.4366 44.116C46.4366 43.8328 46.3241 43.5612 46.1239 43.361C45.9236 43.1607 45.652 43.0482 45.3688 43.0482Z" fill="#EC5242"/>
<path d="M29.5922 54.8118C29.5922 55.0713 29.5152 55.325 29.371 55.5407C29.2269 55.7565 29.0219 55.9247 28.7822 56.024C28.5424 56.1233 28.2786 56.1493 28.0241 56.0987C27.7696 56.048 27.5358 55.9231 27.3523 55.7396C27.1688 55.5561 27.0438 55.3223 26.9932 55.0678C26.9425 54.8132 26.9685 54.5494 27.0678 54.3096C27.1671 54.0699 27.3353 53.865 27.5511 53.7208C27.7669 53.5766 28.0206 53.4997 28.2801 53.4997C28.6281 53.4997 28.9618 53.6379 29.2079 53.884C29.4539 54.13 29.5922 54.4638 29.5922 54.8118Z" fill="#EC5242"/>
<path d="M28.28 57.2126C27.8077 57.2133 27.3457 57.0738 26.9526 56.8118C26.5596 56.5498 26.2531 56.1771 26.072 55.7408C25.8909 55.3045 25.8434 54.8243 25.9353 54.3609C26.0273 53.8976 26.2547 53.472 26.5888 53.1379C26.9228 52.8039 27.3484 52.5765 27.8118 52.4845C28.2751 52.3925 28.7553 52.4401 29.1916 52.6212C29.6279 52.8023 30.0006 53.1087 30.2627 53.5018C30.5247 53.8949 30.6642 54.3568 30.6635 54.8292C30.6635 55.4613 30.4124 56.0676 29.9654 56.5146C29.5184 56.9615 28.9122 57.2126 28.28 57.2126ZM28.28 54.5884C28.2324 54.5884 28.1859 54.6026 28.1463 54.629C28.1067 54.6555 28.0758 54.6931 28.0576 54.7371C28.0394 54.7811 28.0346 54.8295 28.0439 54.8762C28.0532 54.9229 28.0761 54.9658 28.1098 54.9995C28.1435 55.0331 28.1864 55.0561 28.2331 55.0654C28.2798 55.0747 28.3282 55.0699 28.3722 55.0517C28.4162 55.0334 28.4538 55.0026 28.4803 54.963C28.5067 54.9234 28.5208 54.8768 28.5208 54.8292C28.5232 54.7962 28.5188 54.763 28.5078 54.7317C28.4967 54.7004 28.4794 54.6718 28.4568 54.6476C28.4342 54.6233 28.4068 54.604 28.3764 54.5908C28.346 54.5777 28.3132 54.5709 28.28 54.571V54.5884Z" fill="#EC5242"/>
<path d="M29.5922 2.38342C29.5922 2.64293 29.5152 2.89662 29.371 3.11239C29.2269 3.32817 29.0219 3.49634 28.7822 3.59565C28.5424 3.69496 28.2786 3.72095 28.0241 3.67032C27.7696 3.61969 27.5358 3.49472 27.3523 3.31122C27.1688 3.12772 27.0438 2.89393 26.9932 2.6394C26.9425 2.38488 26.9685 2.12106 27.0678 1.8813C27.1671 1.64155 27.3353 1.43662 27.5511 1.29245C27.7669 1.14827 28.0206 1.07132 28.2801 1.07132C28.6281 1.07132 28.9618 1.20956 29.2079 1.45563C29.4539 1.70169 29.5922 2.03543 29.5922 2.38342Z" fill="#EC5242"/>
<path d="M28.2801 4.77035C27.8078 4.77104 27.346 4.63164 26.953 4.36978C26.56 4.10792 26.2535 3.73538 26.0723 3.29929C25.8912 2.8632 25.8434 2.38316 25.9351 1.91991C26.0268 1.45667 26.2539 1.03103 26.5875 0.696868C26.9212 0.362703 27.3465 0.135025 27.8096 0.0426418C28.2727 -0.049741 28.7528 -0.00267594 29.1892 0.177881C29.6255 0.358438 29.9985 0.664372 30.261 1.05697C30.5234 1.44957 30.6635 1.9112 30.6635 2.38343C30.6635 3.01588 30.4125 3.62247 29.9656 4.07C29.5187 4.51754 28.9125 4.76942 28.2801 4.77035ZM28.2801 2.14265C28.2324 2.14265 28.1859 2.15677 28.1463 2.18323C28.1067 2.20969 28.0758 2.24729 28.0576 2.29129C28.0394 2.33529 28.0346 2.3837 28.0439 2.43041C28.0532 2.47712 28.0761 2.52002 28.1098 2.55369C28.1435 2.58737 28.1864 2.6103 28.2331 2.61959C28.2798 2.62888 28.3282 2.62411 28.3722 2.60589C28.4162 2.58767 28.4538 2.5568 28.4803 2.51721C28.5067 2.47761 28.5208 2.43106 28.5208 2.38343C28.5208 2.31957 28.4955 2.25833 28.4503 2.21317C28.4052 2.16802 28.3439 2.14265 28.2801 2.14265Z" fill="#EC5242"/>
</g>
<defs>
<clipPath id="clip0_105_6091">
<rect width="160" height="57.3208" fill="white"/>
</clipPath>
</defs>
</svg>
