<svg width="160" height="59" viewBox="0 0 160 59" fill="none" xmlns="http://www.w3.org/2000/svg">
<path d="M20.5515 38.9114C20.6362 38.9123 20.72 38.928 20.7993 38.9576C20.8878 38.9948 20.9677 39.0498 21.0339 39.1193L22.4314 40.5676C21.8401 41.3457 21.0585 41.9592 20.1616 42.3492C19.1394 42.772 18.0398 42.9766 16.9337 42.9496C15.8851 42.9672 14.844 42.7707 13.8742 42.3723C13.0041 42.0056 12.2215 41.4592 11.578 40.7689C10.9378 40.0661 10.4467 39.2412 10.1342 38.3439C9.79003 37.3647 9.61898 36.3332 9.62867 35.2955C9.61702 34.2418 9.81234 33.196 10.2036 32.2173C10.5688 31.3059 11.1189 30.4798 11.8195 29.7911C12.52 29.1023 13.3557 28.5658 14.274 28.2154C15.2885 27.8294 16.3668 27.638 17.4524 27.6512C17.9868 27.6484 18.5202 27.6982 19.0449 27.7997C19.5249 27.8928 19.995 28.0309 20.4491 28.2121C20.8671 28.3797 21.2667 28.5898 21.6418 28.8389C21.9934 29.0706 22.3181 29.3406 22.6099 29.6439L21.4403 31.2177C21.362 31.315 21.2721 31.4026 21.1726 31.4783C21.0455 31.5647 20.8933 31.6065 20.7398 31.5971C20.6183 31.5967 20.4985 31.5685 20.3896 31.5146C20.2696 31.4534 20.1527 31.3862 20.0394 31.3133L19.6198 31.0461C19.4528 30.9447 19.277 30.8586 19.0945 30.7888C18.8636 30.7031 18.626 30.6369 18.3841 30.5908C18.0705 30.5314 17.7517 30.5038 17.4326 30.5083C16.8402 30.5004 16.2523 30.6126 15.7046 30.8382C15.1913 31.0544 14.7321 31.3811 14.3599 31.795C13.9715 32.2333 13.6749 32.7448 13.4877 33.2995C13.2643 33.9354 13.1525 34.6051 13.1573 35.279C13.15 35.9746 13.2617 36.6664 13.4877 37.3245C13.6703 37.8769 13.9599 38.3881 14.3401 38.8289C14.6867 39.2285 15.1178 39.5462 15.6022 39.7593C16.0876 39.9764 16.6133 40.0888 17.1451 40.0892C17.4343 40.0901 17.7233 40.0747 18.0108 40.043C18.2568 40.0136 18.4992 39.9594 18.7343 39.8814C18.957 39.8084 19.1708 39.711 19.372 39.591C19.5887 39.4585 19.7943 39.3084 19.9865 39.1424C20.0669 39.0734 20.1571 39.0167 20.2541 38.9741C20.347 38.9304 20.4488 38.909 20.5515 38.9114Z" fill="#272A31"/>
<path d="M34.0746 38.9114C34.1582 38.9127 34.2409 38.9283 34.3191 38.9576C34.4086 38.9947 34.4896 39.0498 34.557 39.1193L35.9348 40.5676C35.3449 41.3472 34.5629 41.961 33.6649 42.3492C32.644 42.7725 31.5454 42.977 30.4403 42.9497C29.394 42.9662 28.3552 42.7698 27.3875 42.3723C26.5112 42.0081 25.7227 41.4614 25.0747 40.7689C24.4346 40.0655 23.9425 39.2409 23.6276 38.344C23.2862 37.3641 23.1163 36.3329 23.1254 35.2955C23.1137 34.2418 23.309 33.196 23.7003 32.2173C24.0684 31.3033 24.6226 30.4757 25.3279 29.7868C26.0331 29.0979 26.874 28.5628 27.7971 28.2154C28.8116 27.8292 29.89 27.6378 30.9755 27.6512C31.5089 27.6484 32.0412 27.6982 32.5647 27.7997C33.0415 27.893 33.5083 28.031 33.959 28.2121C34.3781 28.3797 34.7788 28.5897 35.155 28.8389C35.5056 29.0706 35.8292 29.3406 36.1198 29.644L34.9469 31.2177C34.8686 31.3151 34.7787 31.4026 34.6793 31.4783C34.5524 31.5652 34.4 31.607 34.2464 31.5971C34.126 31.5964 34.0074 31.5682 33.8995 31.5146C33.7791 31.4541 33.6622 31.3869 33.5493 31.3134L33.1429 31.056C32.9759 30.9546 32.8001 30.8685 32.6176 30.7987C32.3867 30.7131 32.1491 30.6468 31.9072 30.6007C31.5937 30.5413 31.2749 30.5137 30.9557 30.5182C30.3633 30.5101 29.7754 30.6223 29.2278 30.8482C28.714 31.0635 28.2546 31.3903 27.883 31.8049C27.4947 32.2439 27.1971 32.7551 27.0075 33.3094C26.7913 33.9467 26.6852 34.6161 26.6936 35.2889C26.6827 35.9835 26.7888 36.675 27.0075 37.3344C27.1925 37.8865 27.4831 38.3974 27.8632 38.8389C28.2092 39.2376 28.639 39.5553 29.122 39.7692C29.6086 39.9863 30.1354 40.0987 30.6683 40.0991C30.9564 40.1 31.2443 40.0846 31.5306 40.053C31.7777 40.0235 32.0212 39.9693 32.2575 39.8913C32.4798 39.8177 32.6936 39.7203 32.8951 39.601C33.1113 39.4691 33.3158 39.319 33.5064 39.1523C33.5873 39.084 33.6774 39.0274 33.774 38.984C33.8673 38.9371 33.9702 38.9123 34.0746 38.9114V38.9114Z" fill="#272A31"/>
<path d="M22.7619 12.9896C22.2994 12.9896 21.8435 12.9896 21.3908 13.0325C21.404 13.2414 21.4106 13.4493 21.4106 13.656C21.4098 14.4538 21.3223 15.2492 21.1496 16.0281C21.6816 15.9852 22.2168 15.9589 22.7619 15.9589C27.2199 15.9547 31.5492 17.4511 35.0506 20.2065C38.552 22.9619 41.0212 26.8153 42.0593 31.1446C43.0973 35.4738 42.6438 40.0261 40.7719 44.0662C38.8999 48.1063 35.7189 51.3985 31.7425 53.411C27.766 55.4235 23.2264 56.0388 18.8566 55.1577C14.4868 54.2765 10.542 51.9503 7.65925 48.5546C4.77651 45.159 3.12411 40.8922 2.96891 36.4432C2.81371 31.9943 4.16477 27.623 6.80391 24.0353C5.85421 23.7051 4.95475 23.2455 4.13102 22.6694C1.20189 26.8383 -0.241202 31.8682 0.0329426 36.9535C0.307088 42.0387 2.2826 46.8849 5.64299 50.7156C9.00338 54.5464 13.5542 57.14 18.5662 58.0809C23.5783 59.0218 28.7617 58.2557 33.2858 55.9051C37.81 53.5545 41.4131 49.7556 43.518 45.117C45.6228 40.4784 46.1076 35.2685 44.8946 30.3221C43.6816 25.3756 40.8411 20.9789 36.8281 17.8362C32.8151 14.6935 27.8618 12.9869 22.7619 12.9896V12.9896Z" fill="#272A31"/>
<path d="M10.4118 5.64221C8.82386 5.64221 7.27162 6.11241 5.95132 6.99333C4.63103 7.87426 3.60199 9.12636 2.99432 10.5913C2.38666 12.0562 2.22766 13.6682 2.53745 15.2233C2.84723 16.7785 3.61188 18.207 4.7347 19.3282C5.85752 20.4494 7.28807 21.213 8.84546 21.5223C10.4029 21.8317 12.0171 21.6729 13.4842 21.0661C14.9512 20.4593 16.2051 19.4317 17.0873 18.1133C17.9695 16.7949 18.4403 15.2449 18.4403 13.6593C18.4377 11.5338 17.591 9.49618 16.0859 7.99325C14.5808 6.49033 12.5403 5.64483 10.4118 5.64221V5.64221Z" fill="#EC5242"/>
<path d="M38.4589 10.8088C37.6694 10.8094 36.8975 10.5762 36.2407 10.1387C35.5839 9.70119 35.0718 9.07897 34.7692 8.35079C34.4666 7.6226 34.3871 6.82116 34.5408 6.04784C34.6944 5.27452 35.0743 4.56407 35.6323 4.00637C36.1903 3.44867 36.9015 3.06876 37.6758 2.91471C38.4501 2.76067 39.2527 2.8394 39.9822 3.14095C40.7117 3.4425 41.3352 3.95332 41.7739 4.6088C42.2126 5.26427 42.4468 6.03495 42.4468 6.82334C42.4459 7.8795 42.0256 8.89221 41.278 9.63934C40.5304 10.3865 39.5166 10.807 38.4589 10.8088V10.8088Z" fill="#272A31"/>
<path d="M20.6772 9.71013C21.3677 9.65405 22.0615 9.62105 22.7652 9.62105C24.117 9.62058 25.4668 9.72427 26.8027 9.93118C27.1117 8.11658 26.8228 6.25085 25.9795 4.61414C25.1362 2.97742 23.7839 1.65805 22.1258 0.85413C20.4676 0.050211 18.593 -0.194869 16.7834 0.15569C14.9739 0.506248 13.3271 1.43352 12.0902 2.79829C14.0031 3.09636 15.8038 3.89204 17.3111 5.10533C18.8184 6.31862 19.9794 7.90677 20.6772 9.71013V9.71013Z" fill="#D3D3D4"/>
<path d="M59.6405 37.0705C59.2225 37.0687 58.8052 37.0379 58.3916 36.9781C57.4026 36.8408 56.4798 36.4031 55.7484 35.7244C55.301 35.3059 54.9338 34.8095 54.6647 34.2595C54.3147 33.55 54.0624 32.7965 53.9147 32.0194C53.7112 30.9729 53.616 29.9082 53.6306 28.8422V20.1191C53.6134 19.0527 53.7108 17.9876 53.9214 16.942C54.0748 16.171 54.3315 15.4242 54.6846 14.7216C54.9634 14.1775 55.3422 13.6907 55.8013 13.2865C56.1851 12.9503 56.6186 12.6755 57.0865 12.4716C57.5082 12.2896 57.9529 12.1664 58.4081 12.1053C58.812 12.0485 59.2193 12.0187 59.6273 12.0163C60.4635 11.9931 61.2963 12.1332 62.0788 12.4287C62.6951 12.6704 63.2429 13.0589 63.6746 13.5603C64.0773 14.0405 64.3684 14.6039 64.527 15.2099C64.6978 15.8693 64.7822 16.548 64.7781 17.229C64.7802 17.7184 64.7538 18.2075 64.6988 18.6939C64.6459 19.1393 64.5667 19.6308 64.4609 20.1719H61.418V18.9215C61.418 17.5688 61.266 16.5527 60.9687 15.8796C60.6713 15.2066 60.2319 14.8734 59.6471 14.8734C59.3324 14.8662 59.0207 14.9353 58.7385 15.0746C58.4536 15.2296 58.223 15.4679 58.0777 15.7576C57.8779 16.1595 57.743 16.5904 57.6779 17.0344C57.5789 17.6894 57.5336 18.3515 57.5425 19.0139V30.2543C57.5347 30.895 57.5712 31.5354 57.6515 32.1711C57.6983 32.5963 57.8179 33.0104 58.005 33.3951C58.1405 33.6793 58.3657 33.9112 58.646 34.055C58.9475 34.1921 59.2763 34.2586 59.6074 34.2496C59.8473 34.2488 60.0837 34.1923 60.298 34.0847C60.5329 33.9616 60.7337 33.7826 60.8828 33.5634C61.0685 33.292 61.2059 32.9907 61.2891 32.6726C61.3963 32.2556 61.4474 31.8263 61.4411 31.3958V28.9874H64.8607V31.2671C64.8607 33.2467 64.4081 34.7071 63.5028 35.6485C62.6339 36.5855 61.3321 37.0639 59.6405 37.0705Z" fill="#272A31"/>
<path d="M74.6338 37.0705C74.2159 37.0687 73.7986 37.0379 73.3849 36.9781C72.9211 36.911 72.4694 36.7777 72.0435 36.5822C71.5728 36.3651 71.1391 36.0757 70.7583 35.7244C70.3119 35.3051 69.9448 34.8089 69.6746 34.2595C69.3261 33.5494 69.0739 32.796 68.9246 32.0194C68.7223 30.9727 68.6282 29.9081 68.6438 28.8422V20.1191C68.6273 19.0529 68.7236 17.988 68.9312 16.942C69.0842 16.1704 69.3421 15.4234 69.6977 14.7216C69.9695 14.1785 70.3417 13.6915 70.7946 13.2865C71.5264 12.6444 72.4325 12.2333 73.3981 12.1054C73.8032 12.0484 74.2116 12.0186 74.6206 12.0163C75.4602 11.9921 76.2964 12.1322 77.082 12.4287C77.6933 12.6728 78.2363 13.061 78.6646 13.5603C79.0673 14.0405 79.3584 14.6039 79.5171 15.2099C79.6878 15.8693 79.7722 16.548 79.7682 17.229C79.7703 17.7184 79.7438 18.2075 79.6889 18.6939C79.636 19.1393 79.5567 19.6309 79.451 20.1719H76.4213V18.9215C76.4213 17.5688 76.2726 16.5527 75.9719 15.8796C75.6713 15.2066 75.2351 14.8734 74.6503 14.8734C74.3346 14.8658 74.0216 14.9349 73.7385 15.0746C73.4535 15.2296 73.223 15.4679 73.0777 15.7576C72.8776 16.1591 72.7437 16.5903 72.6812 17.0344C72.5792 17.6891 72.5328 18.3513 72.5424 19.0139V30.2543C72.5347 30.895 72.5711 31.5355 72.6515 32.1711C72.6982 32.5964 72.8178 33.0104 73.005 33.3952C73.1404 33.6793 73.3656 33.9112 73.6459 34.055C73.9474 34.1921 74.2763 34.2586 74.6074 34.2496C74.8484 34.2492 75.0859 34.1927 75.3012 34.0847C75.5361 33.9616 75.737 33.7826 75.886 33.5634C76.0706 33.2918 76.207 32.9905 76.2891 32.6726C76.3978 32.2559 76.449 31.8264 76.4411 31.3958V28.9874H79.8607V31.2672C79.8607 33.2467 79.4091 34.7071 78.506 35.6485C77.6239 36.5855 76.3254 37.0639 74.6338 37.0705Z" fill="#272A31"/>
<path d="M96.2019 37.087C95.8695 37.081 95.5381 37.049 95.2108 36.9913C94.7957 36.9191 94.3938 36.7857 94.018 36.5954C93.5761 36.37 93.1698 36.081 92.8121 35.7376C92.3775 35.312 92.0189 34.8155 91.7515 34.2694C91.4031 33.5552 91.1488 32.7989 90.9949 32.0194C90.7856 30.9736 90.6881 29.9086 90.7042 28.8423V20.1191C90.6874 19.0521 90.7893 17.9865 91.0081 16.942C91.1701 16.1675 91.4415 15.4199 91.8143 14.7216C92.1074 14.1749 92.5008 13.6881 92.974 13.2865C93.3851 12.9477 93.8451 12.673 94.3385 12.4716C94.7876 12.2894 95.2585 12.1663 95.7394 12.1054C96.1655 12.0485 96.5947 12.0187 97.0246 12.0163C97.8878 11.9933 98.7475 12.1332 99.5587 12.4287C100.192 12.6734 100.761 13.0606 101.221 13.5603C101.648 14.034 101.963 14.5979 102.142 15.2099C102.334 15.8658 102.43 16.5458 102.427 17.229C102.429 17.7189 102.397 18.2084 102.331 18.6939C102.268 19.1393 102.185 19.6309 102.08 20.1719H99.083V19.0106C99.083 16.3097 98.3561 14.9592 96.9024 14.9592C96.5503 14.9505 96.2007 15.0192 95.8781 15.1604C95.5731 15.3098 95.3216 15.5494 95.1579 15.8467C94.9377 16.241 94.7932 16.6729 94.7317 17.1202C94.6297 17.7749 94.5833 18.4371 94.5929 19.0997V30.2543C94.5831 30.8961 94.6296 31.5375 94.7317 32.1712C94.7945 32.6016 94.9368 33.0166 95.1513 33.3952C95.3124 33.6833 95.5596 33.914 95.8583 34.055C96.1797 34.1918 96.5267 34.2582 96.8759 34.2497C97.2579 34.2571 97.6321 34.1414 97.9431 33.9197C98.2588 33.6852 98.5137 33.3787 98.6865 33.0256C98.8915 32.6086 99.0351 32.1641 99.1127 31.706C99.2053 31.161 99.2506 30.6091 99.2482 30.0564V26.8363H97.3286V24.385H102.886V36.856H100.405L100.001 34.5202C99.6392 35.3087 99.0793 35.9905 98.3759 36.4997C97.7247 36.9044 96.9686 37.1087 96.2019 37.087V37.087Z" fill="#272A31"/>
<path d="M106.163 10.6339H109.817V36.856H106.163V10.6339Z" fill="#272A31"/>
<path d="M118.636 37.0705C118.203 37.0697 117.771 37.0366 117.344 36.9715C116.901 36.9006 116.473 36.7591 116.075 36.5525C115.64 36.3198 115.248 36.0128 114.919 35.6452C114.517 35.1836 114.198 34.6569 113.974 34.088C113.67 33.3227 113.457 32.5243 113.339 31.7093C113.172 30.5933 113.095 29.4658 113.108 28.3375V25.223C113.095 24.1186 113.175 23.015 113.346 21.9238C113.473 21.1304 113.695 20.3551 114.007 19.6143C114.232 19.0627 114.557 18.5572 114.965 18.1231C115.3 17.7733 115.693 17.4852 116.128 17.2719C116.522 17.0709 116.944 16.9318 117.38 16.8595C118.208 16.7364 119.05 16.7364 119.878 16.8595C120.308 16.9175 120.727 17.041 121.12 17.2257C121.55 17.4321 121.938 17.715 122.267 18.0604C122.672 18.4972 122.996 19.0035 123.222 19.555C123.533 20.2957 123.755 21.071 123.882 21.8644C124.054 22.9688 124.134 24.0856 124.12 25.2032V28.3177C124.134 29.4322 124.053 30.546 123.876 31.6466C123.75 32.4573 123.528 33.2502 123.215 34.0088C122.983 34.5817 122.655 35.1115 122.247 35.5759C121.917 35.9466 121.527 36.2599 121.094 36.503C120.709 36.7173 120.292 36.8667 119.858 36.9451C119.455 37.0225 119.046 37.0645 118.636 37.0705ZM118.665 34.2595C118.962 34.2696 119.254 34.1815 119.495 34.0088C119.755 33.7924 119.946 33.5044 120.043 33.1807C120.206 32.688 120.308 32.1773 120.347 31.6598C120.409 31.0307 120.441 30.2499 120.443 29.3173V24.4477C120.443 23.514 120.41 22.7321 120.347 22.0954C120.308 21.5736 120.206 21.0584 120.043 20.5612C119.945 20.233 119.755 19.9398 119.495 19.7166C119.255 19.54 118.963 19.4493 118.665 19.4593C118.354 19.4485 118.048 19.5388 117.793 19.7166C117.522 19.9373 117.319 20.2302 117.208 20.5612C117.032 21.056 116.921 21.5718 116.878 22.0954C116.805 22.8773 116.772 23.6624 116.779 24.4477V29.3173C116.772 30.0993 116.805 30.8811 116.878 31.6598C116.92 32.1791 117.031 32.6905 117.208 33.1807C117.319 33.5073 117.522 33.7948 117.793 34.0088C118.05 34.183 118.355 34.2708 118.665 34.2595Z" fill="#272A31"/>
<path d="M127.193 10.6339H130.847V15.9126L130.731 18.552C130.902 18.3153 131.093 18.0945 131.303 17.8922C131.526 17.6758 131.774 17.4854 132.04 17.3247C132.324 17.1522 132.629 17.018 132.948 16.9255C133.303 16.8271 133.67 16.7793 134.039 16.7836C134.282 16.7938 134.525 16.8191 134.766 16.8595C135.074 16.9064 135.372 17.0045 135.648 17.1498C135.985 17.3274 136.292 17.558 136.556 17.8328C136.9 18.1957 137.174 18.6184 137.366 19.0799C137.633 19.7156 137.827 20.3797 137.944 21.0594C138.105 22.0064 138.179 22.966 138.165 23.9264V29.9211C138.179 30.8826 138.105 31.8433 137.944 32.7914C137.827 33.4717 137.631 34.1361 137.359 34.7709C137.162 35.2365 136.884 35.6633 136.536 36.0312C136.263 36.3114 135.946 36.5454 135.598 36.7241C135.306 36.868 134.995 36.967 134.673 37.0177C134.415 37.0579 134.154 37.0799 133.893 37.0837C133.471 37.0888 133.049 37.0298 132.644 36.9088C132.292 36.8048 131.957 36.6468 131.653 36.4403C131.376 36.2539 131.123 36.0321 130.903 35.7805C130.694 35.5413 130.503 35.2865 130.332 35.0184L130.031 36.8626H127.17L127.193 10.6339ZM130.847 32.8343C130.928 33.0152 131.023 33.1895 131.131 33.3556C131.237 33.5234 131.366 33.6755 131.514 33.8076C131.662 33.9467 131.833 34.0584 132.02 34.1375C132.229 34.2236 132.454 34.2652 132.681 34.2595C132.934 34.263 133.185 34.2124 133.418 34.1111C133.661 33.989 133.862 33.7972 133.996 33.5601C134.187 33.2178 134.316 32.8449 134.379 32.4582C134.479 31.8587 134.524 31.2513 134.514 30.6436V23.0554C134.525 22.4499 134.479 21.8447 134.379 21.2475C134.315 20.861 134.188 20.4876 134.002 20.1422C133.873 19.9061 133.675 19.715 133.434 19.5946C133.201 19.4973 132.95 19.4491 132.697 19.4527C132.284 19.4277 131.877 19.5624 131.561 19.8288C131.265 20.0949 131.022 20.4152 130.847 20.7724V32.8343Z" fill="#272A31"/>
<path d="M144.215 37.0704C143.666 37.0843 143.121 36.9674 142.627 36.7293C142.132 36.4912 141.701 36.1388 141.37 35.7013C141.029 35.2513 140.777 34.7408 140.627 34.1968C140.454 33.5795 140.369 32.9408 140.376 32.2998C140.364 31.5629 140.465 30.8286 140.676 30.1223C140.872 29.504 141.173 28.9238 141.565 28.4067C141.982 27.8752 142.473 27.4072 143.025 27.0178C143.661 26.5657 144.333 26.1673 145.034 25.8267C145.398 25.6453 145.811 25.4605 146.267 25.2725C146.723 25.0844 147.132 24.9425 147.486 24.7908V22.1514C147.486 21.7687 147.486 21.4091 147.443 21.0792C147.423 20.7814 147.352 20.4891 147.235 20.2148C147.129 19.9775 146.955 19.7767 146.736 19.6374C146.458 19.4852 146.143 19.4132 145.827 19.4296C145.568 19.4288 145.312 19.4769 145.071 19.5714C144.811 19.6747 144.583 19.8442 144.41 20.063C144.2 20.338 144.047 20.6521 143.96 20.9868C143.841 21.4522 143.785 21.9317 143.795 22.4121V23.2764H141.01C140.924 22.9036 140.858 22.5605 140.815 22.2471C140.772 21.9388 140.75 21.628 140.749 21.3167C140.736 20.6437 140.867 19.9758 141.132 19.357C141.375 18.806 141.74 18.3174 142.199 17.9284C142.686 17.5311 143.248 17.235 143.851 17.0574C144.531 16.8534 145.237 16.7533 145.946 16.7605C146.781 16.74 147.614 16.8514 148.414 17.0904C149.015 17.2758 149.555 17.6174 149.98 18.0802C150.387 18.5447 150.67 19.1041 150.803 19.7067C150.973 20.4644 151.053 21.2396 151.041 22.0161V36.8791H148.312L148.051 35.1767C147.642 35.7571 147.1 36.2321 146.471 36.5624C145.774 36.9177 144.998 37.0924 144.215 37.0704V37.0704ZM145.83 34.2595C146.146 34.2573 146.457 34.1756 146.732 34.022C147.013 33.8735 147.265 33.6757 147.476 33.438V27.2256C147.284 27.3048 147.069 27.3939 146.815 27.4994C146.545 27.6196 146.284 27.7596 146.035 27.9184C145.762 28.0907 145.505 28.2885 145.269 28.509C145.014 28.753 144.792 29.0292 144.608 29.3305C144.402 29.666 144.242 30.0278 144.132 30.406C144.007 30.8346 143.946 31.2793 143.951 31.7257C143.919 32.3667 144.075 33.0031 144.4 33.5568C144.554 33.7904 144.768 33.9786 145.02 34.1021C145.271 34.2256 145.551 34.28 145.83 34.2595Z" fill="#272A31"/>
<path d="M154.87 10.6339H158.504V36.856H154.87V10.6339Z" fill="#272A31"/>
<path d="M53.4159 54.7542C53.4141 54.3912 53.4373 54.0286 53.4853 53.6688C53.5316 53.3389 53.6009 52.9792 53.6935 52.5932H55.8509V53.4807C55.8464 53.9223 55.8762 54.3635 55.9401 54.8004C55.9879 55.1345 56.0895 55.4587 56.2408 55.7605C56.3664 56.0058 56.5603 56.2097 56.7992 56.3477C57.061 56.4871 57.355 56.5553 57.6516 56.5457C57.8725 56.5603 58.0942 56.5295 58.3027 56.4551C58.5113 56.3808 58.7024 56.2645 58.8641 56.1135C59.1639 55.7608 59.3134 55.3048 59.2804 54.8433C59.2821 54.5804 59.2622 54.3178 59.221 54.0581C59.1808 53.8137 59.1132 53.5747 59.0194 53.3454C58.9097 53.0862 58.7782 52.8368 58.6262 52.5998C58.4324 52.2979 58.2217 52.0071 57.9952 51.7288L55.1009 48.2911C54.6171 47.6871 54.216 47.0214 53.9082 46.3115C53.6287 45.6347 53.4872 44.909 53.4919 44.1769C53.4845 43.6068 53.5808 43.0401 53.7761 42.5042C53.9531 42.0117 54.2323 41.562 54.5954 41.1846C54.9678 40.8055 55.4189 40.5127 55.917 40.3268C56.488 40.1171 57.0928 40.0142 57.7011 40.0232C58.3905 39.9971 59.078 40.1093 59.7231 40.3532C60.217 40.5493 60.6591 40.8564 61.015 41.2505C61.3298 41.612 61.5621 42.0375 61.6956 42.4977C61.8261 42.948 61.8928 43.4145 61.8938 43.8833C61.8969 44.2483 61.866 44.6128 61.8013 44.9721C61.7419 45.302 61.6725 45.6682 61.5932 46.0674H59.4489V45.203C59.4902 44.436 59.3475 43.6702 59.0326 42.9694C58.9053 42.7217 58.7084 42.5164 58.4661 42.3787C58.2237 42.241 57.9464 42.1769 57.6681 42.1941C57.4539 42.1776 57.2388 42.2076 57.0374 42.2822C56.836 42.3569 56.6533 42.4743 56.5018 42.6263C56.2318 42.9514 56.0939 43.3658 56.1152 43.7876C56.113 44.021 56.133 44.2541 56.1747 44.4838C56.2106 44.6809 56.2682 44.8734 56.3465 45.0578C56.4217 45.2348 56.5124 45.4048 56.6174 45.5659C56.7276 45.7309 56.8498 45.9024 56.9842 46.0806L60.2088 49.977C60.7437 50.6553 61.1972 51.3939 61.5601 52.1775C61.876 52.8797 62.0371 53.6414 62.0326 54.4111C62.0407 55.0099 61.9376 55.605 61.7286 56.1663C61.537 56.6648 61.2381 57.1153 60.8531 57.486C60.4596 57.8586 59.9926 58.1451 59.482 58.3273C58.8991 58.5301 58.2852 58.6295 57.6681 58.6209C56.9661 58.6429 56.2664 58.5309 55.6064 58.291C55.1032 58.1041 54.6507 57.8025 54.2849 57.4101C53.9625 57.0554 53.7273 56.6307 53.5976 56.1696C53.4722 55.7084 53.411 55.2321 53.4159 54.7542V54.7542Z" fill="#272A31"/>
<path d="M64.5535 43.7184H67.266V54.8004C67.266 55.4603 67.3651 55.9024 67.5667 56.1564C67.6724 56.2849 67.8073 56.3863 67.9601 56.4523C68.113 56.5182 68.2794 56.5469 68.4455 56.5358C68.7251 56.5329 68.9989 56.4555 69.2385 56.3115C69.512 56.1463 69.7492 55.9275 69.9356 55.6681V43.7184H72.6514V58.4592H70.5832L70.3155 56.8855C70.1251 57.1935 69.8964 57.4762 69.6349 57.7268C69.2051 58.1388 68.6683 58.4222 68.0854 58.545C67.8181 58.6013 67.5458 58.63 67.2726 58.6308C66.8911 58.6513 66.5102 58.5802 66.1619 58.4234C65.8136 58.2667 65.5079 58.029 65.2704 57.7301C64.8035 57.1319 64.57 56.2257 64.57 55.0116L64.5535 43.7184Z" fill="#272A31"/>
<path d="M75.8067 43.7184H77.908L78.1459 45.2921C78.3375 44.9831 78.5685 44.7003 78.8331 44.4508C79.0597 44.2381 79.3142 44.0572 79.5897 43.913C79.8436 43.7801 80.115 43.6835 80.3959 43.626C80.6651 43.5683 80.9398 43.5395 81.2152 43.5402C81.742 43.5108 82.2633 43.6596 82.6949 43.9625C83.1265 44.2654 83.4433 44.7048 83.5941 45.2096C83.7864 44.9149 84.015 44.6456 84.2747 44.4079C84.4997 44.2042 84.7508 44.0311 85.0214 43.8932C85.269 43.7675 85.5324 43.6754 85.8044 43.6194C86.0688 43.5666 86.3377 43.5401 86.6073 43.5402C86.9861 43.5212 87.3639 43.5934 87.7089 43.7507C88.0539 43.908 88.356 44.1459 88.5896 44.4442C89.0588 45.049 89.2934 45.9541 89.2934 47.1594V58.4526H86.5808V47.2617C86.5851 46.9881 86.5596 46.7149 86.5048 46.4468C86.4673 46.2552 86.3909 46.0733 86.2802 45.9123C86.1834 45.7783 86.0488 45.676 85.8936 45.6187C85.7117 45.5525 85.5189 45.5212 85.3253 45.5263C85.0524 45.5349 84.7894 45.6309 84.5753 45.8002C84.3002 46.0057 84.066 46.2608 83.8848 46.5524C83.8882 46.6161 83.8882 46.68 83.8848 46.7437V58.4559H81.169V47.2617C81.1742 46.9883 81.1498 46.715 81.0963 46.4468C81.0588 46.2552 80.9823 46.0733 80.8716 45.9123C80.7733 45.7798 80.6393 45.6779 80.4851 45.6187C80.3031 45.5525 80.1104 45.5212 79.9168 45.5263C79.648 45.5351 79.3889 45.6286 79.1767 45.7936C78.9058 45.9945 78.6759 46.2453 78.4994 46.5326V58.4592H75.7869L75.8067 43.7184Z" fill="#272A31"/>
<path d="M92.4354 43.7183H94.5367L94.7713 45.2921C94.9629 44.9831 95.1939 44.7003 95.4585 44.4508C95.6851 44.2371 95.9396 44.0551 96.2151 43.9097C96.4681 43.7773 96.7383 43.6807 97.018 43.6227C97.2873 43.565 97.562 43.5362 97.8374 43.5369C98.3588 43.5196 98.8727 43.6649 99.3076 43.9526C99.7335 44.2669 100.052 44.7047 100.22 45.2063C100.411 44.9108 100.64 44.6414 100.9 44.4046C101.123 44.2002 101.374 44.027 101.644 43.8899C101.891 43.7642 102.154 43.6721 102.427 43.6161C102.692 43.5631 102.962 43.5366 103.233 43.5369C103.611 43.5184 103.989 43.5908 104.334 43.7481C104.679 43.9054 104.981 44.143 105.215 44.4409C105.682 45.0457 105.916 45.9508 105.916 47.1561V58.4493H103.203V47.2617C103.209 46.988 103.183 46.7146 103.127 46.4468C103.091 46.2547 103.014 46.0725 102.902 45.9123C102.806 45.7792 102.673 45.6771 102.519 45.6187C102.337 45.5525 102.144 45.5211 101.951 45.5263C101.677 45.5348 101.413 45.6308 101.197 45.8001C100.924 46.0071 100.692 46.2633 100.514 46.5557C100.517 46.6194 100.517 46.6833 100.514 46.747V58.4592H97.801V47.2617C97.8053 46.9881 97.7798 46.7149 97.7251 46.4468C97.6875 46.2552 97.6111 46.0733 97.5004 45.9123C97.4036 45.7782 97.269 45.676 97.1138 45.6187C96.932 45.5523 96.7391 45.5209 96.5455 45.5263C96.2769 45.5357 96.018 45.6292 95.8055 45.7935C95.5404 45.996 95.3162 46.2468 95.1447 46.5326V58.4592H92.4321L92.4354 43.7183Z" fill="#272A31"/>
<path d="M110.508 41.6036C110.29 41.6153 110.073 41.5814 109.869 41.5041C109.665 41.4269 109.48 41.3079 109.325 41.1549C109.011 40.7899 108.854 40.3154 108.889 39.8352C108.883 39.5615 108.921 39.2886 109.001 39.0269C109.061 38.8323 109.168 38.6557 109.314 38.5133C109.459 38.3709 109.638 38.2673 109.834 38.212C110.057 38.1496 110.287 38.1196 110.518 38.1229C110.738 38.1068 110.96 38.1344 111.17 38.204C111.38 38.2737 111.573 38.384 111.74 38.5287C111.896 38.7087 112.014 38.9185 112.086 39.1454C112.158 39.3723 112.184 39.6115 112.16 39.8484C112.189 40.3195 112.038 40.7839 111.737 41.1483C111.577 41.3078 111.384 41.4311 111.172 41.5096C110.96 41.5882 110.734 41.6202 110.508 41.6036V41.6036ZM109.104 43.7151H111.816V58.456H109.104V43.7151Z" fill="#272A31"/>
<path d="M115.289 45.6451H114.139V43.7184H115.523L116.072 39.8946H118.001V43.7184H120.36V45.6451H118.001V55.0215C117.994 55.2839 118.024 55.5461 118.091 55.8001C118.138 55.97 118.224 56.1268 118.342 56.2587C118.444 56.3663 118.574 56.4429 118.718 56.4797C118.865 56.5159 119.016 56.5336 119.168 56.5325C119.406 56.5356 119.643 56.5034 119.871 56.4368C120.076 56.3702 120.272 56.2806 120.456 56.1696V57.6674C120.31 57.8482 120.139 58.0071 119.947 58.1392C119.77 58.257 119.581 58.3554 119.382 58.4328C119.193 58.5068 118.996 58.5588 118.794 58.5879C118.231 58.67 117.658 58.6341 117.109 58.4823C116.753 58.3779 116.431 58.1796 116.178 57.9083C115.871 57.5734 115.644 57.1728 115.517 56.737C115.338 56.1031 115.257 55.4456 115.276 54.7872L115.289 45.6451Z" fill="#272A31"/>
<path d="M126.37 57.0901L129.777 50.5379C130.092 49.944 130.346 49.4238 130.54 48.9773C130.738 48.5319 130.89 48.1426 131.002 47.8094C131.101 47.5253 131.179 47.2341 131.234 46.9384C131.272 46.7204 131.293 46.4998 131.296 46.2786C131.301 46.0132 131.272 45.7482 131.211 45.4901C131.165 45.3017 131.078 45.1258 130.956 44.9754C130.846 44.8473 130.701 44.7525 130.54 44.7016C130.355 44.6432 130.162 44.6153 129.968 44.6191C129.733 44.6055 129.498 44.6606 129.293 44.7778C129.089 44.8949 128.922 45.0691 128.815 45.2789C128.546 45.8677 128.423 46.513 128.458 47.1595V48.0371H126.651C126.585 47.7071 126.529 47.3772 126.479 47.11C126.43 46.8078 126.406 46.5022 126.407 46.1961C126.408 45.798 126.477 45.4031 126.611 45.0282C126.748 44.6368 126.965 44.2783 127.249 43.9757C127.56 43.6474 127.937 43.3888 128.356 43.2169C128.868 43.0133 129.417 42.9157 129.968 42.9299C130.553 42.9177 131.136 42.9967 131.696 43.1641C132.137 43.2984 132.541 43.5334 132.876 43.8504C133.182 44.1578 133.408 44.5348 133.536 44.949C133.684 45.4253 133.756 45.9219 133.748 46.4204C133.749 46.7304 133.721 47.0398 133.662 47.3442C133.598 47.6821 133.503 48.0134 133.378 48.334C133.227 48.7205 133.055 49.0983 132.862 49.4656C132.642 49.8747 132.383 50.3432 132.086 50.8711L129.043 56.6447H133.55V58.4857H126.37V57.0901Z" fill="#272A31"/>
<path d="M134.974 47.4531C134.963 46.866 135.025 46.2798 135.159 45.7078C135.259 45.2748 135.422 44.859 135.644 44.4739C135.825 44.163 136.063 43.8888 136.345 43.6656C136.594 43.4699 136.87 43.31 137.164 43.1905C137.434 43.0828 137.716 43.0085 138.003 42.9695C138.26 42.9354 138.518 42.9177 138.777 42.9167C139.025 42.9185 139.273 42.935 139.52 42.9662C139.805 43.0018 140.084 43.0716 140.352 43.174C140.645 43.2855 140.919 43.4401 141.165 43.6326C141.445 43.857 141.682 44.131 141.862 44.4409C142.084 44.8296 142.248 45.2486 142.348 45.6847C142.482 46.2644 142.544 46.8583 142.533 47.4531V53.9657C142.544 54.554 142.482 55.1413 142.348 55.7143C142.246 56.1517 142.08 56.5718 141.856 56.9614C141.673 57.2795 141.435 57.5622 141.152 57.7961C140.906 57.9991 140.632 58.1668 140.339 58.2943C140.074 58.4063 139.797 58.486 139.513 58.5318C139.27 58.5716 139.023 58.5925 138.777 58.5945C138.513 58.5933 138.25 58.5723 137.99 58.5318C137.699 58.487 137.414 58.4073 137.141 58.2943C136.847 58.1683 136.571 58.0029 136.322 57.8027C136.043 57.5701 135.808 57.2883 135.631 56.9713C135.414 56.5776 135.253 56.1557 135.152 55.7176C135.024 55.1426 134.964 54.5547 134.974 53.9657V47.4531ZM137.366 54.9522C137.325 55.4407 137.447 55.9288 137.713 56.3412C137.845 56.4903 138.009 56.6068 138.194 56.6818C138.378 56.7568 138.578 56.7881 138.777 56.7734C138.971 56.7876 139.167 56.7559 139.347 56.6808C139.527 56.6057 139.687 56.4894 139.814 56.3412C140.072 55.9262 140.188 55.4387 140.144 54.9522V46.6052C140.189 46.0935 140.074 45.5805 139.814 45.1371C139.692 44.9811 139.534 44.8574 139.353 44.7769C139.172 44.6964 138.974 44.6614 138.777 44.6752C138.575 44.6608 138.373 44.6952 138.188 44.7757C138.003 44.8561 137.84 44.9801 137.713 45.1371C137.446 45.5779 137.324 46.0916 137.366 46.6052V54.9522Z" fill="#272A31"/>
<path d="M144.017 57.0901L147.423 50.5379C147.734 49.944 147.988 49.4238 148.186 48.9773C148.381 48.5319 148.533 48.1426 148.645 47.8094C148.744 47.5253 148.822 47.2341 148.877 46.9384C148.915 46.7204 148.936 46.4998 148.939 46.2786C148.944 46.0132 148.915 45.7482 148.854 45.4901C148.81 45.3012 148.723 45.125 148.599 44.9754C148.49 44.8467 148.347 44.7517 148.186 44.7016C148 44.6432 147.806 44.6153 147.611 44.6191C147.376 44.6059 147.141 44.6612 146.937 44.7783C146.732 44.8954 146.566 45.0693 146.458 45.2789C146.189 45.8677 146.066 46.513 146.101 47.1595V48.0371H144.294C144.228 47.7071 144.172 47.3772 144.126 47.11C144.075 46.808 144.051 46.5022 144.053 46.1961C144.053 45.7982 144.121 45.4032 144.254 45.0282C144.391 44.6368 144.608 44.2783 144.892 43.9757C145.203 43.6474 145.58 43.3888 145.999 43.2169C146.512 43.0137 147.06 42.916 147.611 42.9299C148.197 42.9179 148.781 42.9969 149.343 43.1641C149.783 43.2981 150.186 43.5331 150.519 43.8504C150.825 44.1578 151.052 44.5348 151.18 44.949C151.327 45.4253 151.399 45.9219 151.391 46.4204C151.392 46.7304 151.364 47.0398 151.305 47.3442C151.241 47.6821 151.146 48.0134 151.021 48.334C150.87 48.7205 150.698 49.0983 150.506 49.4656C150.297 49.8747 150.036 50.3432 149.729 50.8711L146.686 56.6447H151.193V58.4856H144.017V57.0901Z" fill="#272A31"/>
<path d="M152.607 57.0901L156.01 50.5379C156.323 49.944 156.578 49.4238 156.776 48.9773C156.971 48.5319 157.123 48.1426 157.236 47.8094C157.335 47.5253 157.412 47.2341 157.467 46.9384C157.505 46.7204 157.526 46.4998 157.53 46.2786C157.534 46.0132 157.506 45.7482 157.444 45.4901C157.4 45.3012 157.313 45.125 157.189 44.9754C157.081 44.8467 156.937 44.7517 156.776 44.7016C156.59 44.6432 156.396 44.6153 156.202 44.6191C155.966 44.6055 155.731 44.6606 155.527 44.7778C155.322 44.8949 155.156 45.0691 155.048 45.2789C154.779 45.8677 154.656 46.513 154.692 47.1595V48.0371H152.884C152.818 47.7071 152.762 47.3772 152.713 47.11C152.664 46.8077 152.641 46.5021 152.643 46.1961C152.643 45.7982 152.712 45.4032 152.845 45.0282C152.981 44.6368 153.199 44.2783 153.482 43.9757C153.793 43.6474 154.171 43.3888 154.589 43.2169C155.102 43.0137 155.65 42.916 156.202 42.9299C156.787 42.9179 157.371 42.9969 157.933 43.1641C158.373 43.2989 158.775 43.5338 159.109 43.8504C159.415 44.1578 159.642 44.5348 159.77 44.949C159.917 45.4253 159.989 45.9219 159.981 46.4204C159.983 46.7304 159.954 47.0398 159.895 47.3442C159.831 47.6821 159.736 48.0134 159.611 48.334C159.461 48.7205 159.289 49.0983 159.096 49.4656C158.888 49.8747 158.627 50.3432 158.319 50.8711L155.276 56.6447H159.783V58.4856H152.607V57.0901Z" fill="#272A31"/>
</svg>
