<svg width="79" height="47" viewBox="0 0 79 47" fill="none" xmlns="http://www.w3.org/2000/svg">
<g clip-path="url(#clip0_51_5281)">
<path d="M25.91 23.2C25.9046 22.277 26.264 21.3892 26.91 20.73L46.62 1.01997C47.2777 0.365955 48.1675 -0.00115967 49.095 -0.00115967C50.0225 -0.00115967 50.9123 0.365955 51.57 1.01997C51.8962 1.34431 52.1551 1.72994 52.3318 2.1547C52.5085 2.57945 52.5994 3.03494 52.5994 3.49497C52.5994 3.955 52.5085 4.41049 52.3318 4.83524C52.1551 5.26 51.8962 5.64563 51.57 5.96997L34.36 23.2L51.87 40.72C52.2039 41.0451 52.4692 41.4339 52.6503 41.8633C52.8315 42.2926 52.9248 42.7539 52.9248 43.22C52.9248 43.686 52.8315 44.1473 52.6503 44.5767C52.4692 45.0061 52.2039 45.3948 51.87 45.72C51.2123 46.374 50.3225 46.7411 49.395 46.7411C48.4675 46.7411 47.5777 46.374 46.92 45.72L26.92 25.72C26.5941 25.387 26.3372 24.9931 26.1638 24.5606C25.9905 24.1282 25.9042 23.6658 25.91 23.2V23.2Z" fill="white"/>
<path d="M51.81 23.2C51.8051 22.7426 51.891 22.2888 52.0627 21.8648C52.2343 21.4409 52.4883 21.0551 52.81 20.73L72.51 1.01997C73.1677 0.365955 74.0575 -0.00115967 74.985 -0.00115967C75.9125 -0.00115967 76.8023 0.365955 77.46 1.01997C77.7863 1.34431 78.0451 1.72994 78.2218 2.1547C78.3985 2.57945 78.4894 3.03494 78.4894 3.49497C78.4894 3.955 78.3985 4.41049 78.2218 4.83524C78.0451 5.26 77.7863 5.64563 77.46 5.96997L60.23 23.2L77.75 40.72C78.0838 41.0451 78.3492 41.4339 78.5303 41.8633C78.7115 42.2926 78.8048 42.7539 78.8048 43.22C78.8048 43.686 78.7115 44.1473 78.5303 44.5767C78.3492 45.0061 78.0838 45.3948 77.75 45.72C77.0923 46.374 76.2025 46.7411 75.275 46.7411C74.3475 46.7411 73.4577 46.374 72.8 45.72L52.8 25.72C52.4759 25.3867 52.2215 24.9922 52.0515 24.5596C51.8815 24.1269 51.7994 23.6647 51.81 23.2V23.2Z" fill="white"/>
<path d="M-1.04027e-05 23.2C-0.00486174 22.7426 0.0810284 22.2888 0.252675 21.8648C0.424322 21.4409 0.678318 21.0551 0.99999 20.73L20.7 1.01997C21.3577 0.365955 22.2475 -0.00115967 23.175 -0.00115967C24.1025 -0.00115967 24.9923 0.365955 25.65 1.01997C25.9763 1.34431 26.2351 1.72994 26.4118 2.1547C26.5885 2.57945 26.6794 3.03494 26.6794 3.49497C26.6794 3.955 26.5885 4.41049 26.4118 4.83524C26.2351 5.26 25.9763 5.64563 25.65 5.96997L8.45 23.2L25.97 40.72C26.3026 41.0458 26.5668 41.4348 26.7472 41.8641C26.9276 42.2934 27.0205 42.7543 27.0205 43.22C27.0205 43.6856 26.9276 44.1466 26.7472 44.5758C26.5668 45.0051 26.3026 45.3941 25.97 45.72C25.3123 46.374 24.4225 46.7411 23.495 46.7411C22.5675 46.7411 21.6777 46.374 21.02 45.72L1.02001 25.72C0.690506 25.3892 0.430504 24.9958 0.25533 24.563C0.0801565 24.1303 -0.00666771 23.6668 -1.04027e-05 23.2V23.2Z" fill="white"/>
</g>
<defs>
<clipPath id="clip0_51_5281">
<rect width="78.8" height="46.7" fill="white"/>
</clipPath>
</defs>
</svg>
