<svg width="114" height="36" viewBox="0 0 114 36" fill="none" xmlns="http://www.w3.org/2000/svg">
<path fill-rule="evenodd" clip-rule="evenodd" d="M59.6835 8.85C59.6815 9.30446 59.5449 9.74816 59.291 10.1251C59.0371 10.502 58.6772 10.7952 58.2567 10.9678C57.8363 11.1403 57.3742 11.1845 56.9287 11.0946C56.4832 11.0047 56.0743 10.7849 55.7536 10.4628C55.433 10.1408 55.2149 9.73092 55.127 9.28504C55.039 8.83916 55.0851 8.37722 55.2595 7.95753C55.4339 7.53785 55.7287 7.17922 56.1067 6.92693C56.4847 6.67465 56.929 6.54001 57.3835 6.54C57.9928 6.54782 58.5747 6.79403 59.0047 7.22583C59.4346 7.65763 59.6783 8.24068 59.6835 8.85V8.85ZM50.1935 13.49V14.05C49.7603 13.5757 49.2292 13.2012 48.6369 12.9525C48.0447 12.7039 47.4054 12.587 46.7635 12.61C44.9069 12.61 43.1265 13.3475 41.8137 14.6603C40.501 15.973 39.7635 17.7535 39.7635 19.61C39.7635 21.4665 40.501 23.247 41.8137 24.5597C43.1265 25.8725 44.9069 26.61 46.7635 26.61C47.4074 26.6416 48.0502 26.5276 48.644 26.2766C49.2378 26.0255 49.7674 25.6439 50.1935 25.16V25.76C50.1906 25.8264 50.2016 25.8927 50.2258 25.9546C50.2499 26.0166 50.2866 26.0728 50.3336 26.1199C50.3806 26.1669 50.4369 26.2036 50.4988 26.2277C50.5608 26.2518 50.6271 26.2628 50.6935 26.26H53.5835V12.99H50.7135C50.5817 12.9926 50.456 13.0461 50.3627 13.1393C50.2695 13.2325 50.216 13.3582 50.2135 13.49H50.1935ZM50.1935 22.02C49.8657 22.4741 49.4344 22.8435 48.9352 23.0974C48.436 23.3513 47.8835 23.4825 47.3235 23.48C46.8047 23.5065 46.286 23.4273 45.7988 23.247C45.3117 23.0668 44.8662 22.7893 44.4897 22.4315C44.1131 22.0737 43.8133 21.6431 43.6084 21.1658C43.4035 20.6884 43.2978 20.1744 43.2978 19.655C43.2978 19.1356 43.4035 18.6216 43.6084 18.1442C43.8133 17.6669 44.1131 17.2363 44.4897 16.8785C44.8662 16.5207 45.3117 16.2432 45.7988 16.063C46.286 15.8827 46.8047 15.8035 47.3235 15.83C47.8816 15.8319 48.4317 15.964 48.9299 16.2157C49.4281 16.4674 49.8607 16.8318 50.1935 17.28V22.02V22.02ZM55.6835 13.02H59.0835V26.31H55.6835V12.99V13.02ZM106.483 12.61C105.842 12.5824 105.203 12.6942 104.609 12.9376C104.015 13.181 103.481 13.5503 103.043 14.02V6.61H99.6435V26.31H102.513C102.644 26.3049 102.767 26.2503 102.858 26.1574C102.949 26.0644 103.001 25.9401 103.003 25.81V25.21C103.436 25.6891 103.968 26.0673 104.562 26.3179C105.157 26.5685 105.799 26.6853 106.443 26.66C108.3 26.66 110.08 25.9225 111.393 24.6097C112.706 23.297 113.443 21.5165 113.443 19.66C113.443 17.8035 112.706 16.023 111.393 14.7103C110.08 13.3975 108.3 12.66 106.443 12.66L106.483 12.61ZM105.913 23.41C105.354 23.4178 104.8 23.29 104.3 23.0375C103.801 22.785 103.369 22.4153 103.043 21.96V17.24C103.388 16.8047 103.823 16.4496 104.319 16.1992C104.815 15.9489 105.359 15.8092 105.913 15.79C106.432 15.7635 106.951 15.8427 107.438 16.023C107.925 16.2032 108.371 16.4807 108.747 16.8385C109.124 17.1963 109.424 17.6269 109.629 18.1042C109.833 18.5816 109.939 19.0956 109.939 19.615C109.939 20.1344 109.833 20.6484 109.629 21.1258C109.424 21.6031 109.124 22.0337 108.747 22.3915C108.371 22.7493 107.925 23.0268 107.438 23.207C106.951 23.3873 106.432 23.4665 105.913 23.44V23.41ZM97.9135 18.41V26.35H94.5135V18.8C94.5135 16.6 93.8035 15.72 91.8935 15.72C91.3663 15.7353 90.8481 15.8596 90.3714 16.0851C89.8946 16.3105 89.4698 16.6323 89.1235 17.03V26.31H85.7235V12.99H88.4235C88.5535 12.9951 88.6767 13.0497 88.7678 13.1426C88.8589 13.2356 88.911 13.3599 88.9135 13.49V14.05C89.3801 13.5809 89.9372 13.2114 90.5508 12.9639C91.1645 12.7164 91.8219 12.596 92.4835 12.61C93.8374 12.5616 95.1618 13.0137 96.2035 13.88C97.4135 14.88 97.8735 16.15 97.8735 18.38L97.9135 18.41ZM77.4335 12.61C76.7922 12.5824 76.1526 12.6942 75.5588 12.9376C74.9649 13.181 74.4309 13.5503 73.9935 14.02V6.61H70.5835V26.31H73.4535C73.5853 26.3074 73.711 26.2539 73.8042 26.1607C73.8974 26.0675 73.9509 25.9418 73.9535 25.81V25.21C74.3855 25.6891 74.9176 26.0673 75.5121 26.3179C76.1065 26.5685 76.7488 26.6853 77.3935 26.66C79.25 26.66 81.0304 25.9225 82.3432 24.6097C83.656 23.297 84.3935 21.5165 84.3935 19.66C84.3935 17.8035 83.656 16.023 82.3432 14.7103C81.0304 13.3975 79.25 12.66 77.3935 12.66L77.4335 12.61ZM76.8635 23.41C76.3037 23.417 75.7506 23.2888 75.2509 23.0364C74.7513 22.7839 74.32 22.4147 73.9935 21.96V17.24C74.3395 16.8062 74.775 16.4522 75.2703 16.2019C75.7656 15.9517 76.309 15.8112 76.8635 15.79C77.3822 15.7635 77.901 15.8427 78.3881 16.023C78.8753 16.2032 79.3207 16.4807 79.6972 16.8385C80.0738 17.1963 80.3737 17.6269 80.5786 18.1042C80.7834 18.5816 80.8891 19.0956 80.8891 19.615C80.8891 20.1344 80.7834 20.6484 80.5786 21.1258C80.3737 21.6031 80.0738 22.0337 79.6972 22.3915C79.3207 22.7493 78.8753 23.0268 78.3881 23.207C77.901 23.3873 77.3822 23.4665 76.8635 23.44V23.41ZM67.6535 12.61C68.1789 12.5936 68.704 12.6508 69.2135 12.78V15.94C69.2135 15.94 66.3835 14.94 64.6135 17V26.32H61.2135V12.99H64.0835C64.2135 12.9951 64.3367 13.0497 64.4278 13.1426C64.5189 13.2356 64.571 13.3599 64.5735 13.49V14.05C65.3827 13.2 66.4823 12.6859 67.6535 12.61V12.61ZM32.3435 25.11C32.1635 24.68 31.9935 24.22 31.8135 23.83C31.5335 23.19 31.2435 22.59 30.9935 22.02C28.5435 16.71 25.9235 11.32 23.1635 6.02L23.0535 5.81C22.7735 5.27 22.4935 4.71 22.2035 4.14C21.859 3.44191 21.4327 2.78731 20.9335 2.19C20.3979 1.50835 19.7147 0.957086 18.9352 0.577744C18.1557 0.198401 17.3004 0.00086213 16.4335 0C15.5703 0.00673133 14.7188 0.199616 13.937 0.565483C13.1553 0.93135 12.4616 1.46159 11.9035 2.12C11.4157 2.7455 10.9871 3.41506 10.6235 4.12C10.3435 4.69 10.0535 5.25 9.77347 5.78L9.66347 6C6.94347 11.31 4.28346 16.69 1.84346 22V22.07C1.59346 22.64 1.31346 23.24 1.03346 23.87C0.853464 24.26 0.673465 24.69 0.503465 25.15C0.0428494 26.3708 -0.104966 27.6875 0.0734728 28.98C0.265732 30.2758 0.791835 31.4993 1.6001 32.5303C2.40836 33.5612 3.47097 34.3641 4.68347 34.86C5.59026 35.2344 6.56245 35.4248 7.54347 35.42C7.85135 35.4169 8.15868 35.3935 8.46347 35.35C9.71529 35.192 10.9225 34.784 12.0135 34.15C13.6629 33.1601 15.1447 31.9146 16.4035 30.46C17.6689 31.9078 19.1496 33.1524 20.7935 34.15C21.8808 34.7839 23.0848 35.1921 24.3335 35.35C25.6179 35.531 26.9273 35.3617 28.1235 34.86C29.3371 34.3658 30.4007 33.5634 31.2092 32.5321C32.0177 31.5009 32.5431 30.2765 32.7335 28.98C32.9934 27.7122 32.8823 26.3963 32.4135 25.19L32.3435 25.11ZM16.3435 26.95C14.6899 25.038 13.4718 22.7894 12.7735 20.36C12.5965 19.654 12.5592 18.9203 12.6635 18.2C12.7315 17.6649 12.9269 17.1539 13.2335 16.71C13.5866 16.2174 14.0542 15.8181 14.596 15.5463C15.1378 15.2746 15.7375 15.1386 16.3435 15.15C16.9527 15.1271 17.5579 15.258 18.1031 15.5307C18.6484 15.8033 19.1163 16.2089 19.4635 16.71C19.77 17.1539 19.9655 17.6649 20.0335 18.2C20.1335 18.9205 20.0962 19.6534 19.9235 20.36C19.21 22.7853 17.9897 25.0315 16.3435 26.95ZM30.5035 28.61C30.3746 29.5237 30.0086 30.3876 29.4419 31.1157C28.8752 31.8439 28.1275 32.4108 27.2735 32.76C26.4216 33.1054 25.4953 33.2259 24.5835 33.11C23.6338 32.9886 22.7186 32.6756 21.8935 32.19C20.3866 31.2621 19.0365 30.101 17.8935 28.75C19.8939 26.4995 21.3604 23.8264 22.1835 20.93C22.4112 19.9472 22.472 18.933 22.3635 17.93C22.2131 17.0655 21.8714 16.2455 21.3635 15.53C20.7977 14.7351 20.0467 14.0901 19.1754 13.651C18.3042 13.2119 17.339 12.9919 16.3635 13.01C15.3888 12.997 14.4254 13.2192 13.555 13.6579C12.6845 14.0966 11.9328 14.7388 11.3635 15.53C10.8516 16.2433 10.5095 17.0642 10.3635 17.93C10.2202 18.9319 10.2814 19.9524 10.5435 20.93C11.3768 23.8341 12.8417 26.5181 14.8335 28.79C13.6997 30.1501 12.348 31.3126 10.8335 32.23C10.0083 32.7156 9.09318 33.0286 8.14347 33.15C7.2309 33.2479 6.30817 33.1244 5.45346 32.79C4.60016 32.4425 3.85287 31.8774 3.28612 31.1509C2.71937 30.4245 2.35298 29.5622 2.22347 28.65C2.11112 27.7144 2.22076 26.7654 2.54347 25.88C2.65347 25.53 2.82347 25.18 3.00347 24.75C3.18347 24.32 3.53347 23.58 3.82347 22.98V22.91C6.27347 17.63 8.89347 12.25 11.6135 7.01L11.7235 6.79L12.5735 5.16C12.8468 4.60472 13.1859 4.08431 13.5835 3.61C13.9308 3.1959 14.3645 2.8629 14.8543 2.63443C15.3441 2.40596 15.878 2.28756 16.4185 2.28756C16.9589 2.28756 17.4928 2.40596 17.9826 2.63443C18.4724 2.8629 18.9062 3.1959 19.2535 3.61C19.6475 4.08484 19.9833 4.60523 20.2535 5.16L21.1035 6.79L21.2135 7.01C23.9035 12.28 26.5235 17.67 28.9635 22.94C29.2535 23.51 29.5035 24.14 29.7835 24.71C30.0635 25.28 30.1335 25.49 30.2435 25.84C30.5335 26.7191 30.6191 27.6528 30.4935 28.57L30.5035 28.61Z" fill="#F5F5F5"/>
</svg>
