<svg width="143" height="23" viewBox="0 0 143 23" fill="none" xmlns="http://www.w3.org/2000/svg">
<path fill-rule="evenodd" clip-rule="evenodd" d="M5.24731 10.1251C3.73546 11.5086 3.35393 16.7387 5.1562 18.3069C6.24098 19.2501 8.17992 18.7188 9.34727 17.7615V9.67054C7.68735 9.36088 6.2239 9.23304 5.24731 10.1251ZM13.1739 0.0341797C13.3874 7.00293 13.2052 14.3666 13.265 21.4887H10.6228C10.2327 21.3041 10.3182 20.6365 10.0761 20.3069C8.77213 21.0455 7.95499 21.8154 6.34063 21.9433C-0.364493 22.4688 -1.68274 12.1677 2.06985 8.216C3.57032 6.63361 7.07236 5.64213 9.35865 7.03418V0.761452C10.5716 0.454634 11.9752 0.340998 13.1853 0.0341797" fill="#F5F5F5"/>
<path fill-rule="evenodd" clip-rule="evenodd" d="M74.6732 13.3864C76.5723 11.2784 78.5084 8.42329 80.322 5.93182C81.384 6.53977 82.298 7.29261 83.3287 7.92045C81.9279 9.90909 80.3505 11.7358 78.8643 13.6477C80.4672 15.7472 82.3322 17.5824 83.8753 19.7386C82.8611 20.4404 81.8877 21.1992 80.9598 22.0114C78.8472 19.5767 76.8883 16.9858 74.7643 14.5568C74.5536 16.679 74.7359 19.1932 74.6732 21.4659H70.7555V0.727272C71.9798 0.443181 73.3806 0.315341 74.5821 0C74.7957 4.26136 74.6134 8.94034 74.6732 13.3523" fill="#F5F5F5"/>
<path fill-rule="evenodd" clip-rule="evenodd" d="M103.922 13.3863C105.807 11.2642 107.749 8.41759 109.571 5.93179C110.636 6.53691 111.53 7.31247 112.578 7.92043C111.154 9.90907 109.597 11.7329 108.113 13.6477C109.711 15.7528 111.576 17.588 113.124 19.7386C112.105 20.4332 111.131 21.1924 110.209 22.0113C108.051 19.5795 106.083 16.9375 103.922 14.4886V21.4886H100.002V0.749977C101.22 0.448841 102.627 0.338046 103.828 0.0227051C104.042 4.28407 103.86 8.96304 103.919 13.375" fill="#F5F5F5"/>
<path fill-rule="evenodd" clip-rule="evenodd" d="M19.2783 18.216C20.084 19.6364 23.2131 18.5739 24.016 17.7614V15.0342C21.24 14.4433 17.9572 15.9035 19.2783 18.216ZM27.6604 21.4887H24.9271C24.7614 21.1097 24.6391 20.7133 24.5627 20.3069C22.7234 21.7444 18.6747 22.8864 16.6361 20.6705C15.2751 19.1904 15.0474 15.7785 16.6361 14.1364C18.2732 12.4319 20.6222 12.6052 23.9249 12.591C24.799 8.68758 19.3893 9.55405 17.3764 10.6023C17.0916 9.75008 16.7158 8.95746 16.3742 8.1478C17.8604 6.96314 20.0556 6.15917 22.843 6.42053C29.3431 7.02564 27.3985 14.341 27.6832 21.5114" fill="#F5F5F5"/>
<path fill-rule="evenodd" clip-rule="evenodd" d="M58.2734 8.21602C59.8621 6.53988 64.0276 5.55977 66.0178 7.30693C68.8877 9.82397 67 16.6024 67.5666 21.4887H63.5578C63.3556 18.9831 63.8254 14.4234 63.5578 11.7615C63.5065 11.2331 63.3015 10.395 63.0111 10.1251C62.2139 9.38647 60.2038 9.80409 59.0934 10.1251V21.4887H55.0846C54.8511 18.9319 55.3949 14.253 55.0846 11.5797C54.8425 9.46602 52.7613 9.46318 50.6202 10.1251V21.4887H46.6113V6.76147H49.3446C49.5796 7.22492 49.7629 7.71269 49.8913 8.21602C51.4345 6.29272 57.0093 5.395 58.2734 8.21602Z" fill="#F5F5F5"/>
<path fill-rule="evenodd" clip-rule="evenodd" d="M88.8863 18.2161C89.6864 19.6138 92.8354 18.5883 93.6241 17.7616V15.0343C90.8509 14.4462 87.5681 15.9093 88.8863 18.2161ZM97.2685 21.4888H94.5266C94.3609 21.1099 94.2386 20.7134 94.1622 20.307C92.8069 21.0087 91.7705 21.8582 89.9711 21.9434C86.5801 22.1082 85.0853 19.8752 85.1309 17.2161C85.222 13.0599 88.9233 12.2758 93.6041 12.5798C94.2334 8.51441 88.9917 9.64509 86.9531 10.5911C86.6684 9.65078 86.2071 8.91214 85.9509 7.95475C87.7588 7.0343 89.4643 6.1735 92.3286 6.4093C95.1074 6.63657 97.0037 8.39793 97.2485 11.2388C97.5019 14.1195 97.0663 17.8468 97.2485 21.5116" fill="#F5F5F5"/>
<path fill-rule="evenodd" clip-rule="evenodd" d="M118.133 18.2159C118.938 19.6364 122.067 18.5739 122.87 17.7614V15.0341C120.094 14.4432 116.812 15.9034 118.133 18.2159ZM126.515 21.4887H123.873C123.548 21.2699 123.545 20.7273 123.417 20.3068C121.578 21.7472 117.529 22.8835 115.49 20.6705C114.132 19.196 113.902 15.7784 115.49 14.1364C117.145 12.4318 119.531 12.608 122.87 12.5909C123.465 8.56252 118.272 9.63355 116.219 10.6023C115.935 9.75002 115.562 8.95741 115.217 8.14775C116.715 6.96025 118.813 6.19321 121.595 6.42048C128.172 6.96025 126.261 14.2813 126.515 21.5114" fill="#F5F5F5"/>
<path fill-rule="evenodd" clip-rule="evenodd" d="M134.441 18.4348C140.065 20.8268 140.54 8.38934 135.261 9.25014C132.05 9.7757 131.793 17.3041 134.441 18.4348ZM134.624 6.25014C138.61 5.77286 140.939 7.67059 141.912 9.52286C144.35 14.1564 142.331 19.3581 139.35 20.8865C136.096 22.5712 131.588 21.5115 129.886 18.7842C126.68 13.6706 129.521 6.85241 134.624 6.23877" fill="#F5F5F5"/>
<path fill-rule="evenodd" clip-rule="evenodd" d="M34.4026 6.76147C34.5677 8.2075 34.4937 10.2103 34.4937 12.216C34.4937 14.128 34.1748 16.341 34.6759 17.4888C35.3479 19.0228 38.0128 18.7444 39.3225 17.8524C39.3852 14.1848 39.203 10.2785 39.4136 6.77284H43.3314V21.5001H40.6892C40.2564 21.2956 40.3418 20.574 40.1425 20.1365C38.3944 22.0228 34.0923 22.645 32.0337 20.8637C29.1695 18.3836 31.0315 11.878 30.4849 7.04557C30.4849 6.91772 30.4849 6.78704 30.576 6.76147H34.4026Z" fill="#F5F5F5"/>
</svg>
