<svg width="110" height="36" viewBox="0 0 110 36" fill="none" xmlns="http://www.w3.org/2000/svg">
<path fill-rule="evenodd" clip-rule="evenodd" d="M97.5561 18.3336L105.451 15.0535C105.016 13.9497 103.713 13.1815 102.173 13.1815C100.2 13.1815 97.4577 14.9211 97.5565 18.3324M106.823 21.5103L109.833 23.5162C108.864 24.9556 106.521 27.4313 102.474 27.4313C97.4577 27.4313 93.8343 23.5501 93.8343 18.6006C93.8343 13.3463 97.4902 9.76828 102.04 9.76828C106.623 9.76828 108.864 13.4153 109.599 15.3891L110 16.393L98.1923 21.275C99.0959 23.0486 100.5 23.9506 102.474 23.9506C104.447 23.9506 105.819 22.9795 106.822 21.5096M87.6856 26.8962H91.5653V0.937504H87.6864L87.6856 26.8962ZM81.3542 18.6338C81.3542 15.5237 79.279 13.2483 76.6373 13.2483C73.9629 13.2483 71.7198 15.5237 71.7198 18.6338C71.7198 21.7113 73.9629 23.9525 76.6358 23.9525C79.2809 23.9517 81.3561 21.7102 81.3561 18.633L81.3542 18.6338ZM84.7644 10.3049V26.1605C84.7644 32.6826 80.9187 35.3605 76.3692 35.3605C72.0864 35.3605 69.5107 32.4831 68.5423 30.1416L71.9201 28.7361C72.5235 30.1741 73.9953 31.8797 76.3692 31.8797C79.279 31.8797 81.0865 30.0737 81.0865 26.696V25.4244H80.9526C80.0826 26.4946 78.4094 27.4321 76.3017 27.4321C71.8861 27.4321 67.839 23.5848 67.839 18.6338C67.839 13.6503 71.8861 9.76904 76.3017 9.76904C78.4094 9.76904 80.0826 10.705 80.9526 11.7428H81.0853V10.3049H84.7644ZM42.423 18.6006C42.423 15.4215 40.1563 13.2475 37.5292 13.2475C34.902 13.2475 32.6357 15.4215 32.6357 18.6006C32.6357 21.7441 34.902 23.9517 37.5292 23.9517C40.1563 23.9517 42.423 21.7441 42.423 18.6006ZM46.2318 18.6006C46.2318 23.684 42.3242 27.4313 37.5292 27.4313C32.7341 27.4313 28.8265 23.684 28.8265 18.6006C28.8265 13.4817 32.7341 9.7698 37.5292 9.7698C42.3242 9.7698 46.2318 13.4802 46.2318 18.6006ZM61.9344 18.6006C61.9344 15.4215 59.6681 13.2475 57.0409 13.2475C54.4138 13.2475 52.1471 15.4215 52.1471 18.6006C52.1471 21.7441 54.4138 23.9517 57.0409 23.9517C59.6681 23.9517 61.9344 21.7441 61.9344 18.6006ZM65.7451 18.6006C65.7451 23.684 61.836 27.4313 57.0409 27.4313C52.2458 27.4313 48.3379 23.684 48.3379 18.6006C48.3379 13.4817 52.2458 9.7698 57.0409 9.7698C61.836 9.7698 65.7451 13.4802 65.7451 18.6006ZM13.9146 27.4313C6.35694 27.4313 0 21.2762 0 13.717C0 6.15786 6.35694 0 13.9161 0C18.0986 0 21.0748 1.64006 23.3163 3.78244L20.6728 6.42446C19.0682 4.91866 16.8941 3.74849 13.9161 3.74849C8.39672 3.74849 4.07879 8.19801 4.07879 13.7185C4.07879 19.2391 8.39558 23.6855 13.915 23.6855C17.4941 23.6855 19.5339 22.2476 20.8394 20.942C21.9097 19.8741 22.613 18.334 22.8796 16.2267H13.9146V12.4793H26.5247C26.6601 13.1476 26.7265 13.9512 26.7265 14.8193C26.7265 17.6306 25.9568 21.1099 23.4826 23.5856C21.0732 26.0934 17.9957 27.4313 13.9146 27.4313Z" fill="#F5F5F5"/>
</svg>
