<svg width="110" height="24" viewBox="0 0 110 24" fill="none" xmlns="http://www.w3.org/2000/svg">
<path d="M109.978 20.7353C109.769 20.8013 109.552 20.8368 109.333 20.8406C108.613 20.8406 108.275 20.5334 108.275 19.6513V12.9765C108.275 9.46581 105.484 7.76311 102.18 7.76311C99.6565 7.76311 98.3005 8.07029 95.5972 9.15862L94.996 12.6957L98.5067 13.0687L99.007 11.3353C99.7408 10.9906 100.551 10.8395 101.359 10.8964C103.843 10.8964 103.883 12.7659 103.883 14.3326V14.846C103.045 14.7501 102.202 14.7061 101.359 14.7144C97.8485 14.7144 94.2061 15.592 94.2061 19.3792C94.2061 22.574 96.725 23.7677 98.9412 23.7677C101.425 23.7677 102.992 22.2712 103.874 20.6958C104.076 22.5696 105.19 23.7677 107.244 23.7677C108.208 23.7596 109.155 23.5123 110 23.048L109.978 20.7353ZM100.547 20.6387C99.2308 20.6387 98.7437 19.8532 98.7437 18.8833C98.7437 17.2114 100.109 16.7681 101.671 16.7681C102.413 16.7868 103.154 16.8557 103.887 16.9744C103.782 19.5153 102.114 20.6387 100.547 20.6387ZM94.6493 0.0131651L88.0053 23.4297H83.6783L90.3223 0L94.6493 0.0131651ZM85.7277 0.0131651L79.088 23.4297H74.7786L81.4226 0L85.7277 0.0131651ZM67.2963 8.08785H71.8954V13.5865H67.2876L67.2963 8.08785ZM67.2963 17.9267H71.8954V23.4297H67.2876L67.2963 17.9267ZM60.6084 17.7248L64.0796 18.0627L63.1273 23.4429H49.7032L49.2643 21.1302L57.7077 11.4099H52.9067L52.2265 13.7928L49.0581 13.4505L49.6023 8.06591H63.0878L63.4345 10.3786L54.9122 20.1121H59.8843L60.5996 17.7336L60.6084 17.7248ZM38.5917 7.76749C33.0711 7.76749 30.3459 11.4801 30.3459 15.9738C30.3459 20.8801 33.6196 23.7677 38.3504 23.7677C43.2566 23.7677 46.7981 20.6694 46.7981 15.7632C46.7981 11.4713 44.1036 7.76749 38.5917 7.76749ZM38.4864 20.3974C36.1035 20.3974 34.8747 18.3523 34.8747 15.6974C34.8747 12.801 36.2702 11.1334 38.5215 11.1334C40.5972 11.1334 42.2692 12.5289 42.2692 15.6271C42.2692 18.5586 40.7684 20.3974 38.4864 20.3974ZM26.3919 20.1121H28.4369V23.4517H21.9947V14.7802C21.9947 12.1252 21.1171 11.1027 19.3617 11.1027C17.2509 11.1027 16.3995 12.6035 16.3995 14.7495V20.1121H18.4401V23.4517H12.0243V14.7802C12.0243 12.1252 11.1466 11.1027 9.39121 11.1027C7.28038 11.1027 6.42464 12.6035 6.42464 14.7495V20.1121H9.3561V23.4517H0V20.1121H2.045V11.4055H0V8.06591H6.43342V10.3786C6.89056 9.54952 7.56948 8.86408 8.39416 8.39904C9.21883 7.934 10.1567 7.70772 11.1027 7.74555C13.3188 7.74555 15.3551 8.80316 16.1099 11.05C16.4944 10.045 17.1842 9.18568 18.0823 8.59295C18.9804 8.00023 20.0418 7.70387 21.1171 7.74555C23.873 7.74555 26.3832 9.41754 26.3832 13.0555V20.1121H26.3919Z" fill="#F5F5F5"/>
</svg>
