<svg width="110" height="20" viewBox="0 0 110 20" fill="none" xmlns="http://www.w3.org/2000/svg">
<path d="M0 0.0683969H7.76849C7.76849 0.0683969 14.8228 10.7383 15.0326 11.0228C15.2424 11.3074 15.2691 11.0228 15.2691 11.0228C14.9445 9.37106 14.5904 8.62896 14.5904 5.99157V0.0683969H22.3254V19.8276H14.5891C14.5891 19.8276 7.67965 9.73015 7.47052 9.4504C7.26139 9.17066 7.23405 9.4504 7.23405 9.4504C7.50059 10.8142 7.73705 11.0413 7.73705 13.4079V19.8276H0V0.0683969ZM34.5218 12.674L35.5777 8.66315C35.8046 7.85197 35.9618 6.68443 35.9618 6.68443C35.9694 6.64642 35.9901 6.61231 36.0204 6.58814C36.0507 6.56396 36.0885 6.55129 36.1272 6.55235C36.1659 6.55342 36.203 6.56816 36.2319 6.59396C36.2608 6.61976 36.2796 6.65496 36.2851 6.69332C36.3876 7.35095 36.5245 8.00275 36.6951 8.64606L37.7709 12.674H34.5218ZM33.0744 17.3653H39.1903L39.9277 19.8276H48.4917L40.5476 0.0683969H31.5995L23.8611 19.8276H32.4265L33.0744 17.3653ZM68.8722 0.0690805L60.2501 19.8276H53.3981L44.7739 0.0683969H53.2204L56.1734 9.05712C56.4981 10.0263 56.7345 12.1555 56.7345 12.1555C56.7899 12.3231 56.9881 12.3121 57.0202 12.1555C57.0202 12.1555 57.2567 10.0263 57.582 9.05712L60.4257 0.0683969L68.8722 0.0690805ZM70.5554 0.0690805H85.53V5.46902H78.708V7.35404H84.9402V12.49H78.708V14.4304H85.7664V19.8276H70.5547V0.0683969L70.5554 0.0690805ZM96.9739 5.40062H97.5952C98.9832 5.40062 100.192 5.58187 100.192 7.10371C100.192 8.57014 98.8636 8.75412 97.5336 8.75412H96.9732L96.9739 5.40062ZM89.0598 19.764H96.9739V13.4174C96.9739 13.4174 97.0252 13.1924 97.1789 13.4174L100.666 19.7592H110L105.157 13.3381C104.712 12.7629 103.965 12.269 103.799 12.1603C103.632 12.0515 103.799 12.0009 103.799 12.0009C106.81 11.1118 108.11 9.85395 108.11 6.86568C108.11 1.88707 103.856 0 98.8362 0H89.0633V19.7592L89.0598 19.764Z" fill="#F5F5F5"/>
</svg>
